<?xml version="1.0" standalone="no"?> <!DOCTYPE svg PUBLIC "-//W3C//DTD SVG 1.0//EN" "http://www.w3.org/TR/2001/REC-SVG-20010904/DTD/svg10.dtd" > <svg xmlns="http://www.w3.org/2000/svg" width="100%" height="100%">
<defs >
<font id="Folks-Bold" horiz-adv-x="462" ><font-face
    font-family="Folks"
    units-per-em="1000"
    panose-1="2 0 8 3 4 0 0 2 0 4"
    ascent="942"
    descent="-242"
    alphabetic="0" />
<missing-glyph horiz-adv-x="364" d="M33 0V666H298V0H33ZM66 33H265V633H66V33Z" />
<glyph unicode=" " glyph-name="space" horiz-adv-x="287" />
<glyph unicode="!" glyph-name="exclam" horiz-adv-x="243" d="M194 251V717H41V688V252Q41 240 48 230T67 213T92 201T118 196Q129 196 142 200T167 212T186 230T194 251ZM205 71Q205 108 179 133T116 158Q80 158 55 132T30 70Q30 34 56 9T118 -16Q154 -16 179
9T205 71Z" />
<glyph unicode="&quot;" glyph-name="quotedbl" horiz-adv-x="346" d="M306 720H202L181 481H275L306 720ZM153 720H49L28 481H122L153 720Z" />
<glyph unicode="#" glyph-name="numbersign" horiz-adv-x="584" d="M548 483Q548 494 541 502T522 510L422 508L467 711H406L363 508H263L307 711H246L203 508L106 510Q92 510 80 501T68 476Q68 465 75 457T94 449H190L153 271H53Q39 271 28 262T16 237Q16 226
23 219T41 211H140Q138 201 132 171T119 108T107 47T101 12Q101 1 108 -5T126 -12Q138 -12 147 -3T158 17L200 212H301Q299 203 292 172T278 107T264 45T258 11Q258 1 265 -5T281 -12Q295 -12 305 -5T318 16L360 211H461Q476 211 487 221T498 247Q498 257 491 264T472
272H372L410 449H509Q523 449 535 458T548 483ZM350 449L313 271H212L250 449H350Z" />
<glyph unicode="$" glyph-name="dollar" horiz-adv-x="523" d="M512 234Q512 283 492 318T439 377T366 417T286 445Q281 447 276 448T266 451L267 588Q283 585 300 579T335 566T368 554T396 548Q425 548 444 568T463 617Q463 639 443 657T396 687T339 708T292
721T272 725Q272 727 271 736T269 758T266 773Q266 779 266 786Q266 794 265 801T259 814T247 819Q233 819 231 803Q229 800 229 789T228 764T229 740T230 726Q187 724 146 707T71 662T18 594T-3 510Q-3 473 9 445T43 394T92 357T152 330Q172 323 191 318T229 307V136L223
135Q200 135 177 140T131 155T87 175T46 196L-8 66Q14 48 43 35T103 12T167 -3T229 -8V-85H266V-7Q313 -5 357 14T436 66T491 142T512 234ZM232 595Q232 594 231 588T230 573T230 565V461Q219 465 206 471T182 486T164 505T157 531Q158 544 166 560T186 585Q202
596 217 596T232 595ZM346 224Q346 191 322 167T266 136V297Q279 292 293 287T319 273T338 252T346 224Z" />
<glyph unicode="%" glyph-name="percent" horiz-adv-x="657" d="M299 562Q299 594 290 625T261 681T215 721T153 737Q117 737 90 721T43 680T14 622T4 558Q4 526 14 495T42 439T88 398T151 382Q187 382 214 398T260 440T289 498T299 562ZM516 678Q516 701 501
717T463 733Q448 733 435 726T416 704L119 53Q118 51 116 45T113 38L203 -17Q203 -17 209 -6T217 10L510 653Q512 659 514 665T516 678ZM631 162Q631 194 622 225T594 280T548 319T486 334Q451 334 423 319T376 279T347 223T337 159Q337 127 346 96T375 39T421
-1T484 -17Q520 -17 547 -1T593 40T621 98T631 162ZM152 631Q166 631 175 625T191 608T200 585T203 561Q203 549 200 536T191 512T175 494T151 486Q137 486 128 493T112 511T102 535T99 559Q99 571 102 583T111 606T128 624T152 631ZM485 231Q513 231 525 209T538
163Q538 150 536 137T527 112T510 94T484 87Q470 87 460 93T444 110T435 134T432 159Q432 171 435 183T444 206T460 224T485 231Z" />
<glyph unicode="&amp;" glyph-name="ampersand" horiz-adv-x="711" d="M554 168L615 240Q619 245 628 256T648 279T666 300L673 309L598 388L601 382Q595 382 585 373T564 353T544 330T532 315Q530 311 524 305T511 292T498 279T489 268L360 393Q360 393 373 399T403
417T438 444T466 479Q490 523 492 562T476 645Q457 690 409 712T306 735Q268 735 230 725T162 694T112 641T92 566Q92 528 110 496T153 435Q123 418 98 395T53 344T22 284T11 217Q11 161 33 118T92 46T177 1T276 -15Q337 -15 387 9T482 71Q486 67 502 52T536 19T570
-14T592 -33Q609 -46 632 -40T669 -14Q677 -2 675 12T666 38T651 61T636 77L554 168ZM373 563Q373 551 367 540T352 519T331 502T311 488Q304 495 295 504T277 522T263 543T257 566Q257 590 275 602T315 615Q337 615 355 601T373 563ZM386 175Q366 153 337 137T277
121Q256 121 237 129T202 152T178 185T169 226Q169 261 192 290T246 334L386 175Z" />
<glyph unicode="&apos;" glyph-name="quotesingle" horiz-adv-x="188" d="M153 720H49L28 481H122L153 720Z" />
<glyph unicode="(" glyph-name="parenleft" horiz-adv-x="226" d="M10 365Q10 334 13 291T25 199Q30 165 37 122T57 38T86 -32T128 -71Q132 -72 135 -73T142 -74Q154 -74 165 -70T186 -57T201 -37T207 -14Q207 3 203 19T193 53Q171 130 156 207T141 365Q141 406
146 457T162 556Q167 579 172 605T184 658T196 709T209 752Q210 752 193 756T155 765T117 775T99 779Q89 753 79 724T59 663T41 600T27 539Q19 496 14 453T9 364L10 365Z" />
<glyph unicode=")" glyph-name="parenright" horiz-adv-x="219" d="M45 783Q26 778 14 763T4 730Q5 720 8 710T16 688Q28 649 39 604T58 513T70 424T75 344Q75 286 68 223T44 103Q40 89 36 71T27 34T18 -3T9 -35Q9 -39 24 -45T57 -58T90 -69T106 -74Q106 -74 117
-50T142 11T170 89T190 168Q198 222 202 270T207 350Q207 391 203 431T191 511Q185 541 178 578T158 653T130 723T91 775Q90 776 85 778T74 782T60 784T45 783Z" />
<glyph unicode="*" glyph-name="asterisk" horiz-adv-x="393" d="M189 734Q172 734 155 723T138 691Q138 670 146 647T159 604L97 653Q97 653 92 656T83 660Q79 660 68 657T45 650T24 642T15 633Q15 631 20 623T31 606T44 590T53 581L128 549L56 516Q53 515 47
508T33 491T21 474T15 463Q15 459 24 455T46 448T69 442T84 439Q88 439 99 447T121 464T143 483T157 495Q155 491 152 478T146 448T141 418T139 400Q139 394 144 388T157 378T174 372T189 369Q195 369 204 371T221 378T234 388T240 400Q240 404 238 418T232 448T226
477T222 495Q225 492 235 483T257 465T279 447T295 439Q298 439 309 442T333 450T354 459T364 463Q364 463 359 471T346 488T332 506T322 516L251 550L326 582Q329 583 338 596T355 620T363 633Q361 634 348 640T317 653T295 660Q293 660 287 657T281 653L219 604Q224
624 232 647T241 691Q241 711 224 722T189 734Z" />
<glyph unicode="+" glyph-name="plus" horiz-adv-x="500" d="M232 602Q206 602 188 584T170 540V409H-3V286H170V152Q170 139 175 128T188 109Q206 91 232 91Q257 91 274 108Q293 125 293 152V285Q302 285 325 285Q349 285 375 285T424 289T455 298Q467 307 476
318T485 346Q485 361 476 373T455 394Q447 400 425 403T376 406T325 407Q302 407 293 407V540Q293 565 275 583T232 602Z" />
<glyph unicode="," glyph-name="comma" horiz-adv-x="244" d="M236 92L99 156L6 -54Q2 -62 1 -70T0 -86Q0 -115 20 -137T71 -159Q92 -159 111 -147T139 -116L236 92Z" />
<glyph unicode="-" glyph-name="hyphen" horiz-adv-x="405" d="M347 369H92Q83 369 70 366T44 356T23 339T11 314Q9 301 12 288T22 265T38 247T57 240H348L347 369Z" />
<glyph unicode="." glyph-name="period" horiz-adv-x="228" d="M170 71Q170 107 144 132T82 158Q46 158 20 133T-6 71Q-6 53 1 37T20 10T49 -9T83 -16Q101 -16 116 -9T144 9T163 37T170 71Z" />
<glyph unicode="/" glyph-name="slash" horiz-adv-x="433" d="M414 726Q414 729 397 737T358 755T320 770T302 777Q302 776 299 771T292 757T287 746L15 70Q13 66 9 53T4 34Q4 14 9 2T25 -16T50 -23T83 -25Q87 -25 103 4T140 78T184 174T228 272T261 350T277 386Q277
387 278 388Q278 388 288 413T314 476T346 556T379 637T404 700T414 726Z" />
<glyph unicode="0" glyph-name="zero" horiz-adv-x="588" d="M8 360Q8 318 15 273T38 186T79 106T139 42Q170 19 206 5T284 -9Q327 -9 363 5T431 42Q466 69 491 106T531 187T554 275T561 364Q561 406 554 451T530 538T489 618T429 681Q398 704 362 717T284 730Q242
730 206 717T139 680Q103 653 78 616T38 536T15 448T7 360H8ZM409 361Q409 332 404 292T386 214T348 151T284 125Q245 125 221 151T183 213T165 290T160 360Q160 388 165 427T184 504T222 567T284 593Q323 593 347 567T385 505T404 429T409 361Z" />
<glyph unicode="1" glyph-name="one" horiz-adv-x="391" d="M342 0V643Q342 676 322 698T267 720H105Q76 720 56 700T35 651Q35 622 56 602T106 581H183V0H342Z" />
<glyph unicode="2" glyph-name="two" horiz-adv-x="580" d="M530 0V140H276Q305 172 334 207T393 280Q413 306 435 336T475 397T505 461T517 527Q517 575 497 613T444 676T369 715T282 729Q176 729 100 660Q71 633 50 596T29 513Q29 480 48 457T102 434Q121 434
136 447Q141 451 144 456T151 467Q163 488 174 510T199 550T233 579T282 591Q311 591 333 573T356 524Q356 506 344 481T313 428T273 374T235 328Q230 322 221 310T199 282T173 250T148 219T130 196T121 185Q104 168 87 150T53 113Q45 103 40 92T34 66Q34 32 59
16T115 0H530Z" />
<glyph unicode="3" glyph-name="three" horiz-adv-x="587" d="M535 223Q535 281 504 324T421 393Q456 419 475 459T494 542Q494 585 477 620T430 679T363 716T284 729Q210 729 157 698T58 617Q58 617 59 616T60 614Q61 614 63 611T69 603T74 595T78 591Q79 590
88 578T107 552T125 526T135 514L136 513Q143 524 161 537T200 562T241 581T276 589Q304 589 323 570T343 522Q343 513 339 506T332 493Q315 471 290 460T243 440T206 417T198 379Q196 377 197 373T201 366Q204 349 213 341T233 326Q255 312 279 305T325 288T360
263T374 220Q374 179 346 155T278 131Q241 131 219 148T179 186T146 224T104 241Q74 241 53 219T32 168Q32 155 35 143T44 119Q58 88 83 64T140 24T206 -1T273 -10Q322 -10 369 7T453 54T512 128T535 223Z" />
<glyph unicode="4" glyph-name="four" horiz-adv-x="608" d="M581 229Q581 249 573 262T551 283T520 294T487 298V597Q487 625 481 649T462 691T427 719T374 729Q339 729 316 713T273 667L26 283Q18 272 12 259T6 231Q6 211 14 198T34 176T63 165T96 161H329V-1H485V161Q501
161 518 164T549 175T572 196T581 229ZM328 299H168L329 571L328 299Z" />
<glyph unicode="5" glyph-name="five" horiz-adv-x="568" d="M524 250Q524 294 509 333T467 401T402 447T319 464Q299 464 279 461T239 451L261 579H489L514 720H206Q174 720 154 704T129 656L87 394Q86 389 86 384T85 373Q85 348 103 330T147 311Q160 311 174
316T202 326T232 337T264 342Q308 342 335 315T362 243Q362 222 355 202T334 167T301 142T260 132Q234 132 212 141T169 160T130 180T97 189Q68 189 46 170T24 119Q24 98 36 80T66 48T107 24T149 7Q178 -2 207 -6T263 -11Q348 -11 411 30T505 149Q515 172 519 198T524
250Z" />
<glyph unicode="6" glyph-name="six" horiz-adv-x="574" d="M529 243Q529 285 517 323T481 390T424 439T346 462Q324 464 304 462T263 453Q275 476 291 503T328 560T372 620T420 678Q418 679 399 688T358 708T318 729T298 741Q273 709 248 678T198 615Q184 598
171 580T145 545Q121 512 100 477T62 404T36 326T26 245Q26 189 44 142T97 61T177 8T280 -11Q334 -11 380 8T459 62T510 142T529 243ZM275 132Q253 132 236 141T208 166T190 200T184 240Q184 260 190 279T207 312T236 335T275 344Q297 344 314 335T344 311T362
277T369 236Q369 215 363 197T344 164T315 141T275 132Z" />
<glyph unicode="7" glyph-name="seven" horiz-adv-x="581" d="M537 650Q537 682 514 700T460 719L23 720V580H349L99 105Q95 97 92 88T89 68Q89 36 112 15T167 -7Q190 -7 210 4T241 37L529 619Q537 633 537 650Z" />
<glyph unicode="8" glyph-name="eight" horiz-adv-x="596" d="M545 225Q545 252 538 279T517 329T482 370T433 397Q467 421 487 459T508 539Q508 572 497 601T467 655Q436 695 389 713T290 731Q237 731 188 713T107 654Q88 630 77 601T66 539Q66 495 86 459T141
397Q114 388 93 371T58 330T37 279T30 225Q30 170 50 127T106 53T188 7T287 -9Q339 -9 385 7T467 53T524 126T545 225ZM212 530Q212 561 233 583T287 605Q318 605 340 584T363 530Q363 499 342 476T288 452Q256 452 234 475T212 530ZM287 341Q308 341 326 333T357
312T378 280T386 240Q386 219 379 200T359 165T328 141T287 132Q265 132 247 141T216 165T196 199T189 239Q189 281 216 311T287 341Z" />
<glyph unicode="9" glyph-name="nine" horiz-adv-x="580" d="M532 473Q532 529 514 576T462 657T381 710T278 729Q222 729 176 709T98 655T47 573T29 470Q29 427 41 390T77 325T133 280T207 257Q253 252 296 264Q270 226 242 190T185 119Q182 115 175 107T159
90T145 72T135 59L203 5Q204 5 209 0T221 -12T232 -23T238 -27Q247 -17 274 11T334 73T395 141T440 199Q478 261 505 330T532 473ZM375 481Q375 460 370 441T353 406T324 382T283 373Q260 373 243 382T213 406T195 440T189 481Q189 502 195 521T214 554T243 578T283
587Q304 587 321 578T350 554T368 520T375 481Z" />
<glyph unicode=":" glyph-name="colon" horiz-adv-x="229" d="M197 407Q197 444 171 469T109 494Q91 494 76 488T48 469T29 441T22 407Q22 371 47 346T109 320Q145 320 171 345T197 407ZM198 71Q198 107 172 132T110 158Q74 158 48 133T22 71Q22 53 29 37T48 10T77
-9T111 -16Q129 -16 144 -9T172 9T191 37T198 71Z" />
<glyph unicode=";" glyph-name="semicolon" horiz-adv-x="242" d="M144 496Q107 496 81 471T55 408Q55 370 81 345T145 320Q163 320 178 327T205 346T224 374T231 408Q231 444 206 470T144 496ZM239 101L102 165L1 -54Q-6 -70 -6 -85Q-6 -115 14 -137T66 -159Q87
-159 106 -147T134 -116L239 101Z" />
<glyph unicode="&lt;" glyph-name="less" horiz-adv-x="488" d="M447 125V242L222 360L447 479V596L25 360L447 125Z" />
<glyph unicode="=" glyph-name="equal" horiz-adv-x="590" d="M538 258Q538 284 520 302T476 320H31V198H476Q501 198 519 215T538 258ZM538 428Q538 454 520 472T476 490H31V368H476Q501 368 519 385T538 428Z" />
<glyph unicode="&gt;" glyph-name="greater" horiz-adv-x="455" d="M431 360L9 596V478L234 360L9 241V124L431 360Z" />
<glyph unicode="?" glyph-name="question" horiz-adv-x="478" d="M463 536Q463 587 443 624T388 687T311 725T221 738Q199 738 175 734T127 721T81 699T41 668T11 628T-2 579Q-2 552 14 531T60 510Q80 510 91 520T112 543L113 544Q133 570 161 585T224 600Q256
600 280 583T305 530Q305 506 294 493T265 471T227 457T190 443T161 422T149 386V196L191 197H302L301 351Q336 358 365 374T417 413T451 468T463 536ZM224 157Q188 157 163 132T137 70Q137 34 163 9T225 -16Q261 -16 286 9T312 71Q312 108 287 133T224 158V157Z"
/>
<glyph unicode="@" glyph-name="at" horiz-adv-x="706" d="M653 272Q653 339 630 395T564 492T465 556T342 579Q263 579 196 550T80 470T2 351T-26 204Q-26 129 1 61T75 -58T188 -140T331 -171V-120Q330 -120 323 -120Q317 -120 307 -119T292 -116Q204 -102 149
-52T62 83Q41 138 41 200Q41 266 63 324T125 427T221 498T345 524Q401 524 447 505T526 452T577 370T595 268Q595 245 592 220T581 170T562 123T535 83Q522 69 505 54T467 38Q444 38 435 55T425 92Q425 122 430 153T440 213Q449 266 458 318T478 423H426L418 371Q409
400 383 415T328 431Q282 431 248 404T190 338T156 252T144 167Q144 138 151 108T173 52T212 12T271 -4Q307 -4 334 18T375 72Q374 54 380 39T399 13T426 -4T460 -10Q508 -10 544 19T604 91T641 183T653 272ZM397 308Q397 288 392 253T378 181T354 111T321 59Q312
51 301 46T276 40Q254 40 240 50T219 77T209 112T206 149Q206 176 212 216T234 294T273 359T332 386Q365 386 381 362T397 308Z" />
<glyph unicode="A" glyph-name="A" horiz-adv-x="652" d="M654 24L424 637Q408 679 379 703T303 727Q259 727 230 702T186 637L-15 107Q-19 97 -21 87T-24 65Q-24 32 -1 11T55 -11Q69 -11 80 -5T100 10Q107 13 116 29T135 64T151 102T162 130H449L498 -17L654
24ZM402 267H207L305 560L402 267Z" />
<glyph unicode="B" glyph-name="B" horiz-adv-x="593" d="M551 215Q551 263 529 303T467 367Q459 372 445 378T422 386Q456 408 473 442T491 519Q491 566 472 603T422 667T349 706T264 720H104Q69 720 46 697T22 639V-1Q45 0 86 0Q127 0 172 0Q217 0 258 0Q300
0 323 0Q370 0 411 15T484 59T533 126T551 215ZM182 582H258Q273 582 287 577T313 562T331 539T338 510Q338 493 331 480T311 456T284 441T253 436H182V582ZM181 305H305Q322 305 337 299T365 281T384 254T391 221Q391 203 384 188T365 162T337 145T304 138H181V305Z"
/>
<glyph unicode="C" glyph-name="C" horiz-adv-x="616" d="M592 117Q592 146 572 165T523 185Q507 185 490 178T452 161T406 145T350 137Q303 137 268 156T209 206T174 277T162 362Q162 403 173 440T207 507T260 557T333 585Q348 588 365 588Q412 588 450 571T524
526L580 639Q559 657 530 673T468 701T402 720T339 727Q334 727 328 727Q322 727 317 726Q246 719 189 687T90 606T26 492T3 358Q3 298 21 242T72 139Q120 68 194 30T361 -8Q384 -8 410 -5T462 5T512 23T555 50Q569 62 580 78T592 117Z" />
<glyph unicode="D" glyph-name="D" horiz-adv-x="661" d="M627 364Q627 384 626 403T620 443Q606 509 575 560T497 647T392 701T265 720Q246 720 211 720Q176 720 138 720Q100 720 65 720Q30 720 12 721V79Q12 45 36 23T94 0H281Q360 0 424 28T533 105T602 220T627
364ZM263 581Q310 581 347 564T411 517T452 447T466 362Q466 316 453 276T415 205T352 156T266 138H171V581H263Z" />
<glyph unicode="E" glyph-name="E" horiz-adv-x="484" d="M100 0H446V140H180V291H345Q374 291 395 310T417 360Q417 389 397 407Q386 417 373 423T343 429H180V580H363Q392 580 412 600T433 650Q433 679 413 699T364 720H210Q207 720 178 720Q150 720 115 720Q81
720 53 720T21 721V82Q21 66 27 51T43 25T68 7T100 0Z" />
<glyph unicode="F" glyph-name="F" horiz-adv-x="452" d="M418 580V721H102Q67 721 43 698T19 639V0H179V284H341Q370 284 391 303T412 352Q412 381 391 402T341 423H180V580H418Z" />
<glyph unicode="G" glyph-name="G" horiz-adv-x="736" d="M701 325Q701 373 683 399T613 425H443Q415 425 394 405T372 355Q372 325 393 305T444 284H537Q532 253 519 225T486 176T437 142T373 129Q323 129 285 147T221 197T182 270T169 359Q169 404 182 446T220
520T283 571T369 591Q396 591 418 586T462 571T503 551T544 526L607 652Q556 687 499 707T379 728Q299 728 231 700T114 622T38 504T10 355Q10 274 37 207T114 92T230 18T379 -9Q453 -9 512 16T614 86T678 192T701 325Z" />
<glyph unicode="H" glyph-name="H" horiz-adv-x="709" d="M654 70V721L494 719V436H189V648Q189 682 167 704Q145 728 110 728Q77 728 54 705T30 648V0H189V299H495V69Q495 53 501 39T518 15T543 -2T574 -9Q607 -9 630 14T654 70Z" />
<glyph unicode="I" glyph-name="I" horiz-adv-x="210" d="M97 870Q74 870 58 854T41 814Q41 790 58 774T98 757Q121 757 137 773T154 814Q154 837 137 853T97 870ZM181 -1V648Q181 680 158 703T102 727Q70 727 46 704T22 648V-1H181Z" />
<glyph unicode="J" glyph-name="J" horiz-adv-x="417" d="M387 217V648Q387 680 365 704T309 728Q276 728 253 705T230 649V212Q230 196 227 181T217 153T198 132T166 124Q155 124 140 128T109 139T77 152T50 162L15 35Q53 19 94 5T178 -10Q229 -10 268 7T333
55T373 127T387 217Z" />
<glyph unicode="K" glyph-name="K" horiz-adv-x="677" d="M618 69Q618 100 596 124L343 383L598 625L482 731L195 442V649Q195 682 172 705T116 729Q83 729 60 706T36 650V0H195V323L479 18Q503 -8 539 -8Q571 -8 594 14T618 69Z" />
<glyph unicode="L" glyph-name="L" d="M418 0L417 140H187V648Q187 681 164 705T108 729Q75 729 52 705T28 648V45Q28 30 37 21T60 7T85 1T103 -1L418 0Z" />
<glyph unicode="M" glyph-name="M" horiz-adv-x="908" d="M865 18L763 638Q756 680 726 704T653 729Q615 729 588 707T549 649L434 256L320 649Q309 685 282 707T216 729Q174 729 144 705T106 638L13 87Q12 82 12 77Q12 73 12 68Q12 35 34 14T89 -8Q120 -8 142
11T169 61L230 498L364 50H506L640 498L710 -8L865 18Z" />
<glyph unicode="N" glyph-name="N" horiz-adv-x="720" d="M661 70V648Q661 664 655 678T638 704T612 721T581 728Q565 728 551 722T526 704T509 678T502 647V262L182 692Q170 708 153 718T115 729Q81 729 58 705T35 648V0H194V462L519 21Q530 7 546 -1T581 -9Q615
-9 638 14T661 70Z" />
<glyph unicode="O" glyph-name="O" horiz-adv-x="761" d="M369 730Q292 730 228 700T118 620T45 502T19 360Q19 286 45 219T117 101T227 20T368 -10Q444 -10 508 20T618 101T690 219T716 360Q716 434 691 501T619 619T509 700T369 730ZM555 355Q555 312 543 272T508
200T449 149T366 129Q319 129 284 149T226 203T192 277T181 360Q181 402 192 443T226 517T284 570T366 591Q415 591 451 571T510 517T544 441T555 355Z" />
<glyph unicode="P" glyph-name="P" horiz-adv-x="558" d="M535 480Q535 499 532 519Q520 592 472 639T357 701Q266 721 169 721L4 720V73Q4 40 27 16T85 -8Q105 -8 120 3T146 30Q153 40 157 69T162 133T163 197Q163 227 163 239Q171 239 190 239Q209 239 230 239Q252
239 271 239T299 241Q349 244 392 262T467 312T517 385T535 480ZM164 580H276Q297 580 315 572T348 551T370 519T378 479Q378 458 370 440T348 408T316 386T276 378H164V580Z" />
<glyph unicode="Q" glyph-name="Q" horiz-adv-x="834" d="M779 30L660 147Q693 195 708 248T723 359Q723 433 698 500T626 618T516 699T375 729Q298 729 235 700T125 620T53 502T27 361Q27 287 52 220T124 102T234 21T375 -10Q426 -10 472 5T561 50L681 -71L779
30ZM562 363Q562 332 557 303T540 245Q535 245 529 248T514 256T498 262T483 262Q473 260 466 252T456 234Q454 226 456 217T463 198T471 182T476 168Q435 129 376 129Q327 129 292 149T233 203T199 279T188 364Q188 406 199 446T234 519T292 571T374 591Q421 591
456 572T515 520T550 447T562 363Z" />
<glyph unicode="R" glyph-name="R" horiz-adv-x="645" d="M586 59L377 304Q383 305 388 306T400 309Q433 318 461 333T511 372T544 425T556 494Q556 547 537 586T485 653T408 696T314 721Q305 722 284 722T235 723T177 722T118 721T68 720Q47 720 38 721V71Q38
55 44 41T61 15T86 -3T118 -10Q150 -10 173 13T197 69V296L456 -29L586 59ZM397 493Q397 459 373 435T314 410H197V580H310Q328 580 344 573T371 554T390 527T397 493Z" />
<glyph unicode="S" glyph-name="S" horiz-adv-x="553" d="M538 230Q538 284 514 320T451 381T368 422T280 451Q266 455 250 461T219 475T195 496T185 527Q185 542 192 553T211 573T237 586T264 590Q288 590 309 584T351 570T389 556T426 549Q454 549 472 569T491
617Q491 648 469 669T414 704T347 722T288 728Q241 728 194 714T110 672T49 604T25 511Q25 452 51 417T117 359T203 322T291 292Q301 288 315 282T343 267T365 247T375 223Q375 203 366 186T342 157T308 139T270 132Q238 132 207 141T142 163Q132 166 117 171T87
182T58 193T38 201V200Q36 198 36 194Q34 189 32 180T27 166Q25 158 21 144T12 113T3 83T-3 60Q21 48 56 36T130 14T204 -2T266 -9Q333 -9 391 17T491 96Q513 125 525 159T538 230Z" />
<glyph unicode="T" glyph-name="T" horiz-adv-x="515" d="M498 649Q498 678 478 699T428 720H-1L0 581H158V71Q158 39 181 16T237 -8Q270 -8 293 15T316 71V581H428Q456 581 477 600T498 649Z" />
<glyph unicode="U" glyph-name="U" horiz-adv-x="724" d="M666 289V647Q666 680 643 704T586 728Q553 728 530 705T507 648V285Q507 213 464 170T349 127Q277 127 234 170T191 285V722H32V289Q32 219 56 164T122 71T223 12T349 -9Q417 -9 475 11T575 70T642 164T666 289Z" />
<glyph unicode="V" glyph-name="V" horiz-adv-x="595" d="M606 650Q606 666 600 680T582 705T556 722T525 728Q499 728 480 713T451 673L297 234L116 730L-32 674L219 51Q230 25 247 8T295 -10Q328 -10 345 6T374 51L599 618Q606 635 606 650Z" />
<glyph unicode="W" glyph-name="W" horiz-adv-x="913" d="M896 648Q896 682 872 705T815 728Q783 728 763 708T737 658L646 220L519 667H374L247 220L141 727L-15 701L121 81Q130 39 157 15T230 -9Q267 -9 295 12T334 69L447 457L560 69Q571 34 599 13T664 -9Q709
-9 736 15T773 82L894 632Q896 642 896 648Z" />
<glyph unicode="X" glyph-name="X" horiz-adv-x="669" d="M628 69Q628 96 611 119L414 387L578 599Q597 623 597 650Q597 681 574 704T519 728Q496 728 478 715T447 684L322 508L161 733L40 635L230 386L33 118Q17 96 17 70Q17 38 40 15T96 -9Q118 -9 136 3T166
34L323 263L480 34Q493 16 510 4T550 -9Q582 -9 605 14T628 69Z" />
<glyph unicode="Y" glyph-name="Y" horiz-adv-x="587" d="M576 648Q576 664 570 678T554 703T529 720T498 727Q477 727 458 716T428 688L286 479L116 732L-8 637Q-8 635 -6 632T-2 626L207 338V72Q207 39 230 15T287 -9Q320 -9 343 15T367 72V338L561 604Q568
614 572 625T576 648Z" />
<glyph unicode="Z" glyph-name="Z" horiz-adv-x="595" d="M584 69Q584 98 563 118T512 139H208L537 597Q545 609 552 622T559 651Q559 669 550 682T527 703T496 716T464 720H3V582H335L6 121Q-2 111 -5 99T-9 74Q-9 36 18 18T79 0H512Q541 0 562 20T584 69Z" />
<glyph unicode="[" glyph-name="bracketleft" horiz-adv-x="280" d="M208 798H69Q44 798 29 780T13 738V-18Q13 -42 28 -60T69 -78H244L243 56Q243 56 234 56T211 57Q199 57 187 57T170 58V663H185Q195 663 207 667T229 679T247 697T257 722Q259 735 256 748T245
773T227 791T207 798H208Z" />
<glyph unicode="\" glyph-name="backslash" horiz-adv-x="308" d="M264 0L138 720H34L161 0H264Z" />
<glyph unicode="]" glyph-name="bracketright" horiz-adv-x="286" d="M265 -18V738Q265 761 250 779T209 798H80Q52 798 32 778T12 730Q12 697 36 680T90 662Q92 661 99 662T108 663V57H29V-78H209Q234 -78 249 -60T265 -18Z" />
<glyph unicode="^" glyph-name="asciicircum" horiz-adv-x="527" d="M491 162L254 583L18 161H137L254 386L373 161L491 162Z" />
<glyph unicode="_" glyph-name="underscore" horiz-adv-x="387" d="M367 -227V-192H6V-227H367Z" />
<glyph unicode="`" glyph-name="grave" horiz-adv-x="287" />
<glyph unicode="a" glyph-name="a" horiz-adv-x="602" d="M554 -2V470Q554 496 541 515T500 536Q484 538 466 536T428 520Q408 508 403 494T397 480Q397 480 379 489T333 508T268 521T195 517Q155 506 124 482T72 424T39 349T27 266Q27 211 44 162T94 74T173 14T277
-9Q320 -9 356 9T415 65Q415 65 415 57T414 37Q414 26 414 15T415 -2H554ZM406 271Q406 244 401 218T382 170T347 135T294 121Q264 121 243 134T209 168T189 215T182 267Q182 292 188 318T209 365T244 399T296 412Q326 412 347 400T381 367T400 322T406 271Z" />
<glyph unicode="b" glyph-name="b" horiz-adv-x="553" d="M530 273Q530 326 513 375T465 462T388 523T286 546Q251 546 218 534T158 498V764H4V69Q4 34 24 12T81 -10Q113 -10 125 11T141 59Q167 24 204 8T284 -9Q342 -9 388 14T465 77T513 168T530 273ZM375 268Q375
243 369 218T350 171T316 137T266 124Q235 124 214 136T179 168T159 215T153 268Q153 294 159 319T178 365T213 397T264 410Q294 410 315 398T349 365T369 319T375 268Z" />
<glyph unicode="c" glyph-name="c" horiz-adv-x="468" d="M293 540Q220 540 158 515T54 432Q30 398 15 356T0 268Q0 209 20 159T76 72T161 13T269 -8Q270 -9 272 -9Q275 -9 276 -8Q299 -8 329 -5T386 9T432 39T451 88Q451 114 431 134T384 154Q374 154 361 150T333
142T303 134T272 130Q244 130 223 142T186 174T164 219T156 269Q156 296 164 320T187 363T224 393T276 404Q308 404 341 392T406 369Q408 381 413 399T425 436T436 474T442 504Q405 522 370 531T293 540Z" />
<glyph unicode="d" glyph-name="d" horiz-adv-x="573" d="M540 70V765H386V495Q335 546 261 546Q204 546 158 524T80 463T31 375T13 271Q13 219 30 169T78 80T155 16T256 -8Q299 -8 337 10T402 63Q404 36 417 14T464 -9Q499 -9 519 13T540 70ZM390 260Q390 234
383 210T363 168T328 138T278 126Q249 126 228 139T194 172T174 217T167 269Q167 294 174 319T195 364T230 396T280 409Q311 409 332 396T366 361T384 314T390 260Z" />
<glyph unicode="e" glyph-name="e" horiz-adv-x="582" d="M545 288Q545 340 524 386T468 468T386 523T288 544Q230 544 181 523T95 464T38 377T17 269Q17 206 39 155T100 68T191 11T305 -9Q343 -9 377 -3T447 18L426 136Q399 130 372 125T317 119Q266 119 229
148T181 225H473Q508 225 526 237T545 288ZM385 312H181Q184 334 191 354T211 391T242 416T286 426Q309 426 327 416T357 390T377 354T386 312H385Z" />
<glyph unicode="f" glyph-name="f" horiz-adv-x="331" d="M339 707Q339 725 331 739T309 762T278 775T245 780H202Q149 780 120 749T83 673Q80 665 79 646T76 606T75 565T74 537Q59 537 43 535T13 525T-10 505T-19 473Q-19 455 -11 442T9 420T38 407T69 403Q70
402 71 402T74 403V-225H227V403Q243 403 261 405T294 415T319 436T329 469Q329 490 319 503T294 524T261 535T227 538V616Q227 628 236 634T257 642Q287 640 313 656T339 707Z" />
<glyph unicode="g" glyph-name="g" horiz-adv-x="598" d="M552 55V468Q552 503 534 525T478 547Q445 547 432 526T415 475Q391 510 354 527T275 545Q216 545 170 521T92 456T43 365T26 259Q26 205 43 156T92 69T169 9T272 -13Q309 -13 342 1T399 42Q400 37 400
27Q400 -30 370 -69T277 -108Q249 -108 222 -103T167 -90Q167 -95 165 -114T160 -155T155 -196T153 -220Q155 -221 157 -223T161 -226Q188 -234 216 -238T273 -242Q340 -242 392 -220T479 -158T533 -64T552 55ZM406 263Q406 239 399 214T379 170T345 138T296 125Q266
125 244 137T208 170T188 217T181 270Q181 296 188 321T209 365T246 397T297 409Q323 409 346 397Q364 387 376 372T394 340T403 303T406 263Z" />
<glyph unicode="h" glyph-name="h" horiz-adv-x="518" d="M495 66V349Q495 392 481 428T440 490T378 530T299 545Q261 545 224 532T159 493V705Q159 737 137 759T83 781Q67 781 53 775T29 759T12 734T5 704V-1H159V326Q159 364 185 390T250 416Q269 416 285 409T314
389T334 360T341 324V66Q341 35 362 12T416 -12Q449 -12 472 10T495 66Z" />
<glyph unicode="i" glyph-name="i" horiz-adv-x="254" d="M119 730Q96 730 80 714T63 674Q63 650 80 634T120 617Q143 617 159 633T176 674Q176 697 159 713T119 730ZM200 0V468Q200 483 194 497T178 521T154 538T124 545Q92 545 69 523T46 468V0H200Z" />
<glyph unicode="j" glyph-name="j" horiz-adv-x="252" d="M117 730Q94 730 78 714T61 674Q61 650 78 634T118 617Q141 617 157 633T174 674Q174 697 157 713T117 730ZM198 -181V509H44V-182Q44 -205 66 -218T115 -233Q129 -234 144 -231T171 -220T190 -203T198 -181Z" />
<glyph unicode="k" glyph-name="k" horiz-adv-x="514" d="M491 73L279 301Q283 305 295 315T324 340T359 369T392 398T417 425T430 443Q435 449 438 456T441 472Q441 502 419 523T367 544Q349 544 334 535T304 513L158 374V706Q158 738 136 760T82 783Q50 783
28 761T5 706V1L158 0V232L368 -16L491 73Z" />
<glyph unicode="l" glyph-name="l" horiz-adv-x="205" d="M176 0V705Q176 736 154 759T100 782Q68 782 45 760T22 705V-1L176 0Z" />
<glyph unicode="m" glyph-name="m" horiz-adv-x="916" d="M837 68V358Q837 401 822 435T781 494T718 532T640 545Q592 545 549 526T475 470Q449 507 408 527T320 547Q281 547 245 531T185 481Q183 508 169 526T125 545Q90 545 69 524T47 467V0H200V332Q200 367
224 390T284 414Q318 414 342 390T367 330V0H518V330Q518 364 542 388T601 412Q636 412 659 388T683 329V68Q683 36 706 14T761 -9Q793 -9 815 13T837 68Z" />
<glyph unicode="n" glyph-name="n" horiz-adv-x="575" d="M522 68V349Q522 394 506 430T462 491T395 531T314 545Q272 545 234 528T172 476Q168 503 154 525T108 547Q92 547 78 541T54 523T38 498T32 468V0H186V325Q186 363 212 389T276 416Q314 416 341 389T368
324V66Q368 34 390 12T445 -10Q461 -10 475 -4T499 12T516 37T522 68Z" />
<glyph unicode="o" glyph-name="o" horiz-adv-x="597" d="M554 269Q554 325 534 375T479 464T395 524T288 546Q230 546 182 524T98 463T42 375T22 267Q22 211 42 161T97 72T182 12T289 -11Q347 -11 395 11T479 72T534 161T554 269ZM401 268Q401 242 395 216T375
168T340 134T288 120Q259 120 238 133T203 168T183 216T176 268Q176 293 183 318T203 365T238 399T288 412Q317 412 338 399T374 366T394 319T401 268Z" />
<glyph unicode="p" glyph-name="p" horiz-adv-x="613" d="M33 466V-229H186V40Q237 -11 311 -11Q368 -11 414 12T492 73T541 160T559 264Q559 316 542 366T494 455T417 519T316 543Q273 543 235 525T171 472Q168 499 155 522T108 545Q73 545 53 523T33 466ZM182
275Q182 300 189 324T209 367T244 397T294 409Q323 409 344 396T378 363T398 317T405 266Q405 241 398 216T377 171T342 139T292 126Q260 126 239 139T206 174T188 221T182 275Z" />
<glyph unicode="q" glyph-name="q" horiz-adv-x="616" d="M561 -229V466Q561 501 541 523T485 545Q452 545 439 522T423 472Q397 507 359 525T277 543Q221 543 176 519T100 456T51 366T34 264Q34 210 51 161T101 73T179 12T282 -11Q356 -11 407 40V-229H561ZM411
275Q411 248 406 222T388 174T354 140T301 126Q272 126 251 138T216 171T195 216T188 266Q188 291 194 317T214 363T249 396T299 409Q327 409 348 398T383 368T404 325T411 275Z" />
<glyph unicode="r" glyph-name="r" horiz-adv-x="360" d="M338 470Q338 495 322 513T282 534Q262 536 240 526T201 505Q180 491 161 473T132 443T121 429Q115 446 107 463T87 494T63 511T36 506Q25 498 18 490T11 467V-2L165 -1V241Q165 264 167 284T178 322Q189
343 205 356T239 379T274 396T306 412T329 435T338 470Z" />
<glyph unicode="s" glyph-name="s" horiz-adv-x="481" d="M449 159Q449 202 429 231T379 281T313 314T247 339T196 361T176 388Q176 399 181 407T194 420Q202 426 212 428T233 431Q255 431 275 425T313 412T347 398T378 392Q401 392 418 408T435 449Q435 476 412
495T358 525T293 541T240 546Q204 546 167 536T98 506T47 456T27 384Q27 342 47 315T97 269T162 239T227 217T277 194T297 161Q297 148 291 139T274 124T252 116T229 113Q211 113 189 118T144 132T99 151T61 170L16 59Q60 29 118 10T231 -9Q268 -9 307 1T377 32T429
84T449 159Z" />
<glyph unicode="t" glyph-name="t" horiz-adv-x="347" d="M339 472Q339 493 330 505T307 525T276 535T243 538V620Q243 652 221 676T166 700Q134 700 112 677T89 621V537Q73 537 57 535T27 525T4 506T-5 473Q-5 453 4 441T27 421T57 411T90 408V0H243V407Q259
407 276 409T307 419T330 439T339 472Z" />
<glyph unicode="u" glyph-name="u" horiz-adv-x="578" d="M523 221V467Q523 499 501 521T446 544Q430 544 416 538T392 522T375 497T369 466V222Q369 177 347 151T279 125Q232 125 210 151T188 222V530H77H34V220Q34 102 99 46T279 -10Q394 -10 458 46T523 221Z" />
<glyph unicode="v" glyph-name="v" horiz-adv-x="478" d="M479 468Q479 499 457 521T402 544Q377 544 357 530T328 492L237 215L115 542L-17 483L162 48Q173 22 191 8T239 -7Q266 -7 284 9T312 49Q316 52 327 75T354 133T386 209T418 289T445 359T462 407Q479
447 479 468Z" />
<glyph unicode="w" glyph-name="w" horiz-adv-x="777" d="M780 469Q780 501 757 523T702 546Q678 546 658 532T629 495L539 221L447 500H306L213 221L104 549L-29 487L134 54Q144 28 162 11T212 -6Q241 -6 260 10T289 53L377 308L464 52Q472 26 492 10T541 -6Q572
-6 590 11T619 55L772 433Q775 441 777 450T780 469Z" />
<glyph unicode="x" glyph-name="x" horiz-adv-x="590" d="M548 69Q548 84 542 98T525 123L382 283L501 413Q512 424 518 438T525 469Q525 501 503 523T449 545Q429 545 413 536T385 511L285 375L141 549L31 456L187 282L44 123Q34 112 28 98T21 69Q21 54 27 40T43
16T68 -1T97 -8Q117 -8 134 2T164 28L285 190L406 28Q418 12 435 2T472 -8Q503 -8 525 15T548 69Z" />
<glyph unicode="y" glyph-name="y" horiz-adv-x="474" d="M473 471Q473 503 450 524T396 545Q366 545 349 527T323 482L236 219L124 536L-15 479L158 35Q156 31 146 9T124 -39T102 -91T89 -126Q78 -153 78 -171Q78 -201 101 -220T154 -240Q182 -240 199 -224T227
-182Q231 -179 242 -155T270 -92T305 -5T345 95T384 198T418 294T445 370T460 418Q467 435 470 449T473 471Z" />
<glyph unicode="z" glyph-name="z" horiz-adv-x="521" d="M492 68Q492 97 471 116T421 136H234L461 444Q467 452 471 461T475 482Q475 511 456 524T410 537H31V401H251L25 96Q11 77 11 56Q11 25 32 13T80 0H423Q451 0 471 19T492 68Z" />
<glyph unicode="{" glyph-name="braceleft" horiz-adv-x="315" d="M296 805Q296 818 288 827T266 837H162Q123 837 99 817T74 754V431Q74 417 64 410T42 396T19 382T9 360Q9 346 19 339T41 325T64 311T74 288V-34Q74 -76 98 -96T163 -117H284V-56Q274 -56 259
-56Q244 -56 230 -51T206 -32T196 9V274Q196 308 174 332T118 360Q152 364 174 388T197 446V721Q197 744 204 755T223 771T246 775Q259 775 270 777T288 784T296 805Z" />
<glyph unicode="|" glyph-name="bar" horiz-adv-x="167" d="M133 0V720H29V0H133Z" />
<glyph unicode="}" glyph-name="braceright" horiz-adv-x="315" d="M10 -85Q10 -98 18 -107T40 -117H143Q183 -117 207 -97T232 -34V289Q232 303 242 310T264 324T286 338T296 360Q296 374 286 381T264 395T241 409T231 432V754Q231 796 207 816T143 837H22V776Q32
776 46 776Q61 776 75 771T99 752T109 711V446Q109 412 131 388T187 360Q153 356 131 332T109 274V-1Q109 -25 102 -36T83 -51T59 -55Q46 -55 35 -57T17 -64T9 -85H10Z" />
<glyph unicode="~" glyph-name="asciitilde" horiz-adv-x="482" d="M438 442L428 441H360Q360 433 358 423T352 405T341 391T324 385Q305 385 283 393T238 412T190 432T141 441Q111 441 90 428T55 393T35 346T28 293Q27 291 27 285Q27 280 27 278H105Q105 286
107 296T113 314T124 329T141 335Q159 335 181 327T226 308T275 289T324 280Q355 280 377 295T412 334T432 386T438 442Z" />
<glyph unicode="&#xa1;" glyph-name="exclamdown" horiz-adv-x="240" d="M39 450V-15L192 -16V13V449Q192 461 185 471T166 488T141 500T115 505Q104 505 91 501T66 489T47 471T39 450ZM28 630Q28 593 54 568T116 543Q153 543 178 569T203 631Q203 667 177 692T115
717Q79 717 54 692T28 630Z" />
<glyph unicode="&#xa2;" glyph-name="cent" horiz-adv-x="498" d="M466 450Q466 475 450 492T411 519T361 535T313 542Q305 543 298 543Q291 543 284 543Q284 545 284 553T286 570T287 588T285 598Q286 606 282 616T266 627Q255 627 251 617T246 598Q244 595 244
587Q244 579 245 569T246 551T247 540Q197 534 154 510T80 449T32 366T14 269Q14 219 31 172T80 86T154 23T249 -5Q249 -7 248 -17T247 -38T246 -59Q246 -69 247 -71Q247 -80 251 -91T267 -102Q278 -102 282 -92T286 -72Q286 -71 286 -63Q286 -55 286 -46Q286 -37
286 -29Q286 -21 286 -20Q292 -12 299 -6Q315 -5 337 -1T382 10T426 22T460 32L435 161L403 149Q402 149 396 148T388 146Q365 142 342 138T296 131Q293 131 290 136T284 142V405Q290 404 295 404Q301 404 306 403Q328 400 349 394T391 383H392Q403 381 417 384Q439
389 452 408T466 450ZM248 139Q207 159 189 194T170 274Q170 316 188 350T248 399V139Z" />
<glyph unicode="&#xa3;" glyph-name="sterling" horiz-adv-x="639" d="M344 735Q297 735 253 723T174 685T118 621T97 530Q97 502 104 478T124 428Q118 428 106 427T80 424T55 419T40 412Q26 406 16 392T6 358Q6 341 14 329T35 310Q39 305 51 302T79 295T109 291T130
290Q137 288 146 290T156 292Q156 292 149 270T132 219T109 162T86 121L85 120Q74 106 68 93T62 69Q62 57 67 45T80 22T100 6T125 0H124H599V139H267Q286 161 299 192T314 254Q314 264 314 272Q314 281 312 290H440V428H289Q279 448 269 470T259 514Q259 534 267
548T288 573T319 587T354 592Q396 592 427 573T487 526Q494 518 501 510T517 497Q528 487 547 487Q576 487 594 509T612 559Q612 584 597 604T561 641T515 671T472 694Q442 710 411 722T344 735Z" />
<glyph unicode="&#xa5;" glyph-name="yen" horiz-adv-x="627" d="M592 648Q592 664 586 678T570 703T545 720T514 727Q493 727 475 716T444 688L302 479L161 688Q150 705 131 716T91 727Q75 727 61 721T36 703T19 678T13 647Q13 636 17 625T28 604L162 420H56Q52
420 49 415T42 402T38 388T36 376Q36 372 41 369T53 363T67 359T79 357H209L222 338L224 315H56Q52 315 49 310T42 297T38 283T36 272Q36 268 41 265T53 259T67 255T79 253H224V0H383V254H548Q560 254 568 264T577 286Q577 298 569 307T547 316H383V338L396 358H547Q561
358 568 367T576 390Q576 403 568 412T546 421H445L577 604Q592 623 592 648Z" />
<glyph unicode="&#xa7;" glyph-name="section" horiz-adv-x="600" d="M12 274Q12 212 38 174T105 110T192 67T283 30Q283 29 285 29Q310 16 328 2T346 -41Q346 -56 339 -66T321 -81T297 -89T271 -92Q241 -92 223 -84T191 -64T170 -38T152 -11T132 9T103 17Q73
17 51 -5T29 -57Q29 -90 47 -117T93 -164T153 -197T214 -215Q229 -217 244 -219T275 -221Q316 -221 357 -212T432 -182T486 -128T507 -46Q507 -14 494 16T455 67Q504 93 536 141T568 246Q568 298 542 332T477 391T392 433T307 467T242 504T216 553Q216 568 223
578T241 596T265 606T292 609Q316 609 339 601T383 579T424 548T458 513L541 609Q495 675 429 706T280 737Q242 737 204 729T135 701Q100 678 77 643T54 560Q54 528 68 498T106 444Q65 416 39 370T12 274ZM407 228Q407 203 390 187T351 160Q350 160 350 160T348
159Q346 158 345 157T342 156L233 204Q220 210 208 217T185 233T169 254T163 281Q163 306 180 327T218 362L341 307Q366 296 386 278T407 228Z" />
<glyph unicode="&#xa8;" glyph-name="dieresis" horiz-adv-x="440" d="M425 737Q425 763 408 781T364 799Q338 799 321 781T303 736Q303 712 321 695T364 677Q390 677 407 694T425 737ZM122 738Q122 763 105 781T62 799Q36 799 18 781T0 736Q0 711 18 694T62 676Q87
676 104 694T122 738Z" />
<glyph unicode="&#xa9;" glyph-name="copyright" horiz-adv-x="832" d="M775 361Q775 438 746 506T666 624T547 704T402 734Q325 734 257 705T139 624T59 505T29 360Q29 283 58 215T138 97T257 17T402 -13Q479 -13 547 16T665 97T745 216T775 361ZM402 681Q468
681 525 656T625 587T692 485T717 361Q717 295 693 237T626 135T526 66T402 40Q336 40 279 65T179 135T112 237T87 361Q87 426 111 484T178 586T278 655T402 681ZM555 200Q555 214 546 224T523 235Q514 235 504 230T481 220T453 209T420 204Q388 204 364 217T324
251T300 299T292 356Q292 384 299 412T321 464T359 501T416 515Q443 515 462 506T498 489Q499 489 499 488Q499 488 500 488Q510 484 517 484Q531 484 539 494T548 518Q548 538 534 551T499 572T456 583T420 586Q370 586 332 568T267 519T226 446T212 356Q212 310
226 270T266 199T331 150T418 132Q432 132 455 135T501 146T539 167T555 200Z" />
<glyph unicode="&#xaa;" glyph-name="ordfeminine" horiz-adv-x="414" d="M359 366V691Q359 708 347 719T317 731Q297 731 289 719T281 687Q263 709 238 720T185 731Q147 731 118 715T69 673T39 613T28 546Q28 512 38 479T69 420T118 377T184 361Q198 361 215
368T246 385T271 402L281 410L284 365L359 366ZM372 284Q372 299 363 310T338 321H55V249H338Q352 249 362 260T372 285V284ZM280 548Q280 528 276 507T262 469T236 442T195 431Q172 431 155 441T128 468T112 505T107 546Q107 566 112 586T128 622T156 649T196
660Q220 660 236 650T261 624T275 588T280 548Z" />
<glyph unicode="&#xab;" glyph-name="guillemotleft" horiz-adv-x="497" d="M399 500Q381 500 366 491T341 467L244 324Q237 314 232 303T226 278Q226 266 235 247T258 204T290 155T323 108T354 70T375 46L462 120Q455 129 440 151T408 199T376 246T352 277L439
391Q447 402 453 413T459 439Q459 464 442 482T399 500ZM189 500Q172 500 157 491T131 467L35 324Q28 314 23 302T17 277Q17 266 26 247T49 204T81 155T115 108T146 70T167 46L252 120Q246 129 231 151T199 199T167 246T143 277L230 391Q238 402 243 413T249 439Q249
463 232 481T189 500Z" />
<glyph unicode="&#xac;" glyph-name="logicalnot" horiz-adv-x="603" d="M553 216V464H29V360H472V216H553Z" />
<glyph unicode="&#xae;" glyph-name="registered" horiz-adv-x="832" d="M775 361Q775 438 746 506T666 624T547 704T402 734Q325 734 257 705T139 624T59 505T29 360Q29 283 58 215T138 97T257 17T402 -13Q479 -13 547 16T665 97T745 216T775 361ZM402 681Q468
681 525 656T625 587T692 485T717 361Q717 295 693 237T626 135T526 66T402 40Q336 40 279 65T179 135T112 237T87 361Q87 426 111 484T178 586T278 655T402 681ZM586 178Q586 180 583 185T578 193L466 324Q509 332 540 361T572 441Q572 473 561 498T529 541T482
568T424 578H271Q268 578 266 574T261 563T257 551T256 542V185Q256 165 270 150T305 135Q325 135 339 149T354 183V319L496 141Q498 139 503 133T513 127Q516 127 528 134T552 149T575 166T586 178ZM355 491H422Q442 491 457 476T473 441Q473 420 460 405T424
390H355V491Z" />
<glyph unicode="&#xaf;" glyph-name="overscore" horiz-adv-x="378" d="M356 647Q356 670 340 685T301 701H60Q38 701 23 685T8 648Q8 625 22 609T60 593H301Q324 593 340 608T356 647Z" />
<glyph unicode="&#xb0;" glyph-name="degree" horiz-adv-x="344" d="M305 596Q305 624 294 649T265 693T221 723T166 734Q137 734 112 723T68 694T38 650T27 595Q27 567 38 542T68 498T112 468T166 457Q194 457 219 468T264 497T294 541T305 596ZM258 596Q258
577 251 560T232 531T202 511T166 504Q147 504 131 511T102 530T82 560T74 596Q74 615 81 631T100 660T130 680T166 688Q185 688 202 681T231 661T251 632T258 596Z" />
<glyph unicode="&#xb1;" glyph-name="plusminus" horiz-adv-x="287" />
<glyph unicode="&#xb4;" glyph-name="acute" horiz-adv-x="304" d="M228 758Q225 758 217 756T205 752L40 687Q23 680 13 666T3 634Q3 610 20 594T61 578Q72 578 83 582Q88 583 110 590T158 606T205 625T232 642Q241 646 253 654T275 673T289 698T288 725Q280
743 262 750T228 758Z" />
<glyph unicode="&#xb5;" glyph-name="mu" horiz-adv-x="287" />
<glyph unicode="&#xb6;" glyph-name="paragraph" horiz-adv-x="607" d="M566 687Q566 701 556 710T532 720H227Q184 720 147 704T81 659T37 593T21 512Q21 469 37 432T81 366T146 321T227 304H292V-217H362L363 654H424V-218L496 -217L495 654Q504 654 516 654Q529
654 540 656T558 666T566 687Z" />
<glyph unicode="&#xb7;" glyph-name="middot" horiz-adv-x="243" d="M205 268Q205 250 198 235T179 207T152 188T118 181T84 188T56 206T36 234T29 268Q29 305 55 330T117 356T179 331T205 268Z" />
<glyph unicode="&#xb8;" glyph-name="cedilla" horiz-adv-x="210" d="M187 31H79Q76 26 69 13T53 -14T37 -42T26 -62Q16 -82 16 -106Q16 -126 28 -143T62 -161Q73 -161 83 -156T99 -139L187 31Z" />
<glyph unicode="&#xba;" glyph-name="ordmasculine" horiz-adv-x="401" d="M194 732Q156 732 125 717T72 676T38 617T26 547Q26 511 37 477T71 417T123 375T193 359Q231 359 262 374T314 416T348 475T360 545Q360 581 349 614T316 674T263 716T194 732ZM342 321H64Q54
321 46 309T37 285Q37 274 45 262T65 249H325Q330 249 342 252T354 261Q354 264 353 273T350 293T346 312T341 321H342ZM107 548Q107 567 112 587T127 623T154 649T193 660Q216 660 232 649T259 621T274 584T279 543Q279 523 274 503T259 467T232 440T192 430Q169
430 153 441T126 469T112 507T107 548Z" />
<glyph unicode="&#xbb;" glyph-name="guillemotright" horiz-adv-x="488" d="M460 259Q460 270 451 290T427 333T394 382T359 430T328 470T307 494L221 419Q228 410 243 387T276 339T310 290T334 259L247 145Q239 134 234 123T228 97Q228 72 245 54T288 36Q305
36 320 45T346 69L442 211Q449 222 454 233T460 259ZM251 258Q251 270 242 290T218 333T186 382T151 430T120 470T98 494L12 419Q19 410 34 387T67 339T100 290T124 259L38 145Q30 134 24 123T18 97Q18 72 35 54T78 36Q96 36 111 45T136 69L232 211Q239 222 245
233T251 258Z" />
<glyph unicode="&#xbf;" glyph-name="questiondown" horiz-adv-x="485" d="M2 186Q2 135 22 98T77 35T154 -3T244 -16Q266 -16 290 -12T339 0T385 22T425 53T455 94T467 143Q467 170 451 190T405 211Q385 211 375 201T354 179Q353 179 353 178Q332 152 304 137T241
121Q209 121 185 138T161 191Q161 215 172 228T201 250T238 264T276 278T304 300T316 336V525H275H163L165 371Q130 364 100 348T48 308T14 253T2 186ZM241 564Q278 564 303 589T328 652Q328 670 321 685T302 712T275 731T241 738Q205 738 179 713T153 651Q153
614 179 589T241 564Z" />
<glyph unicode="&#xc0;" glyph-name="Agrave" horiz-adv-x="652" d="M442 817Q442 834 433 848T406 869Q403 873 381 883T332 903T279 922T247 933Q236 938 223 938Q200 938 184 922T167 882Q167 865 177 851T204 829Q207 825 229 816T278 796T330 777T363 767Q370
764 375 763T386 762Q409 762 425 778T442 817ZM654 24L424 637Q408 679 379 703T303 727Q259 727 230 702T186 637L-15 107Q-19 97 -21 87T-24 65Q-24 32 -1 11T55 -11Q69 -11 80 -5T100 10Q107 13 116 29T135 64T151 102T162 130H449L498 -17L654 24ZM402 267H207L305
560L402 267Z" />
<glyph unicode="&#xc1;" glyph-name="Aacute" horiz-adv-x="652" d="M445 881Q445 904 429 920T389 937Q376 937 366 932Q358 931 334 923T282 904T232 883T206 869Q189 862 179 848T169 816Q169 793 186 777T227 760Q237 760 250 765Q255 766 268 770T298 781T334
794T369 809T396 821T409 829Q425 835 435 849T445 881ZM654 24L424 637Q408 679 379 703T303 727Q259 727 230 702T186 637L-15 107Q-19 97 -21 87T-24 65Q-24 32 -1 11T55 -11Q69 -11 80 -5T100 10Q107 13 116 29T135 64T151 102T162 130H449L498 -17L654 24ZM402
267H207L305 560L402 267Z" />
<glyph unicode="&#xc2;" glyph-name="Acircumflex" horiz-adv-x="652" d="M494 818Q494 835 485 849T458 871L335 919Q329 921 321 924T305 927Q298 927 291 924T275 918L152 869Q136 863 127 849T117 817Q117 794 133 777T173 760Q183 760 201 766T239 781T277
797T306 810Q316 806 333 798T370 782T407 767T436 761Q459 761 476 778T494 818ZM654 24L424 637Q408 679 379 703T303 727Q259 727 230 702T186 637L-15 107Q-19 97 -21 87T-24 65Q-24 32 -1 11T55 -11Q69 -11 80 -5T100 10Q107 13 116 29T135 64T151 102T162
130H449L498 -17L654 24ZM402 267H207L305 560L402 267Z" />
<glyph unicode="&#xc3;" glyph-name="Atilde" horiz-adv-x="652" d="M654 24L424 637Q408 679 379 703T303 727Q259 727 230 702T186 637L-15 107Q-19 97 -21 87T-24 65Q-24 32 -1 11T55 -11Q69 -11 80 -5T100 10Q107 13 116 29T135 64T151 102T162 130H449L498
-17L654 24ZM402 267H207L305 560L402 267ZM486 942H477H419Q419 935 417 927T412 911T402 898T388 893Q371 893 352 900T313 917T272 933T230 941Q204 941 186 930T156 900T139 859T132 814V802H199Q199 809 200 817T206 833T215 846T230 851Q245 851 264 844T303
827T345 811T388 803Q415 803 433 816T463 849T480 894T486 942Z" />
<glyph unicode="&#xc4;" glyph-name="Adieresis" horiz-adv-x="652" d="M517 737Q517 763 500 781T456 799Q430 799 413 781T395 736Q395 712 413 695T456 677Q482 677 499 694T517 737ZM214 738Q214 763 197 781T154 799Q128 799 110 781T92 736Q92 711 110 694T154
676Q179 676 196 694T214 738ZM654 24L424 637Q408 679 379 703T303 727Q259 727 230 702T186 637L-15 107Q-19 97 -21 87T-24 65Q-24 32 -1 11T55 -11Q69 -11 80 -5T100 10Q107 13 116 29T135 64T151 102T162 130H449L498 -17L654 24ZM402 267H207L305 560L402
267Z" />
<glyph unicode="&#xc5;" glyph-name="Aring" horiz-adv-x="652" d="M654 43L424 637Q413 664 396 686T350 719Q379 729 398 752T417 806Q417 828 408 845T382 876T347 896T306 903Q285 903 266 896T231 876T206 845T196 805Q196 775 213 752T260 718Q232 707 215
686T186 637L-15 107Q-19 97 -21 87T-24 65Q-24 32 -1 11T55 -11Q69 -11 80 -5T100 10Q107 13 116 29T135 64T151 102T162 130H449L504 -14L654 43ZM274 808Q274 821 283 830T306 839Q320 839 329 830T338 807Q338 793 329 785T306 776Q292 776 283 785T274 808ZM403
267H207L305 560L403 267Z" />
<glyph unicode="&#xc6;" glyph-name="AE" horiz-adv-x="849" d="M819 20Q819 24 818 43T813 84T806 123T798 140H559V289H728Q757 289 777 310T798 360Q798 389 778 409T728 429H559V581H745Q766 581 779 600T792 640Q792 650 788 664T778 690T762 711T742 720H351Q319
720 303 707T273 664L0 55L141 -13L209 139L403 142Q403 142 405 128T409 96T414 62T418 41Q424 24 444 12T483 0H763Q767 0 776 1T794 6T811 12T819 20ZM400 266H259L400 580V266Z" />
<glyph unicode="&#xc7;" glyph-name="Ccedilla" horiz-adv-x="639" d="M603 117Q603 146 583 165T534 185Q519 185 502 178T463 161T417 145T361 137Q314 137 279 156T220 206T185 277T173 362Q173 403 184 440T218 507T271 557T344 585Q359 588 376 588Q422 588
461 571T535 526L591 639Q570 657 541 673T479 701T413 720T350 727Q345 727 339 727Q333 727 328 726Q257 719 200 687T101 606T37 492T14 358Q14 292 35 231T94 122T187 40T309 -3Q302 -11 291 -21T270 -44T251 -69T243 -92Q243 -109 256 -121T287 -134Q310 -134
324 -117L405 -18L400 -7Q424 -6 459 2T526 25T580 63T603 117Z" />
<glyph unicode="&#xc8;" glyph-name="Egrave" horiz-adv-x="456" d="M341 817Q341 834 331 848T305 869Q302 873 280 883T231 903T178 922T146 933Q135 938 122 938Q99 938 83 922T66 882Q66 865 76 851T103 829Q105 825 127 816T177 796T229 777T262 767Q269
764 274 763T285 762Q308 762 324 778T341 817ZM87 0H433V140H167V291H332Q361 291 382 310T404 360Q404 389 384 407Q373 417 360 423T330 429H167V580H350Q379 580 399 600T420 650Q420 679 400 699T351 720H197Q194 720 165 720Q137 720 102 720Q68 720 40 720T8
721V82Q8 66 14 51T30 25T55 7T87 0Z" />
<glyph unicode="&#xc9;" glyph-name="Eacute" horiz-adv-x="467" d="M349 881Q349 904 333 920T293 937Q280 937 270 932Q262 931 238 923T186 904T136 883T110 869Q93 862 83 848T73 816Q73 793 90 777T131 760Q141 760 154 765Q159 766 172 770T202 781T238
794T273 809T300 821T313 829Q329 835 339 849T349 881ZM92 0H438V140H172V291H337Q366 291 387 310T409 360Q409 389 389 407Q378 417 365 423T335 429H172V580H355Q384 580 404 600T425 650Q425 679 405 699T356 720H202Q199 720 170 720Q142 720 107 720Q73
720 45 720T13 721V82Q13 66 19 51T35 25T60 7T92 0Z" />
<glyph unicode="&#xca;" glyph-name="Ecircumflex" horiz-adv-x="456" d="M393 818Q393 835 384 849T357 871L234 919Q228 921 220 924T204 927Q197 927 190 924T174 918L51 869Q35 863 26 849T16 817Q16 794 32 777T72 760Q82 760 100 766T138 781T176 797T205
810Q215 806 232 798T269 782T306 767T335 761Q358 761 375 778T393 818ZM87 0H433V140H167V291H332Q361 291 382 310T404 360Q404 389 384 407Q373 417 360 423T330 429H167V580H350Q379 580 399 600T420 650Q420 679 400 699T351 720H197Q194 720 165 720Q137
720 102 720Q68 720 40 720T8 721V82Q8 66 14 51T30 25T55 7T87 0Z" />
<glyph unicode="&#xcb;" glyph-name="Edieresis" horiz-adv-x="456" d="M380 838Q380 869 358 890T305 912Q274 912 253 890T232 837Q232 808 253 786T305 764Q336 764 358 785T380 838ZM106 912Q75 912 53 891T31 839Q31 807 52 786T105 764Q136 764 157 786T179
838Q179 869 158 890T106 912ZM87 0H433V140H167V291H332Q361 291 382 310T404 360Q404 389 384 407Q373 417 360 423T330 429H167V580H350Q379 580 399 600T420 650Q420 679 400 699T351 720H197Q194 720 165 720Q137 720 102 720Q68 720 40 720T8 721V82Q8 66
14 51T30 25T55 7T87 0Z" />
<glyph unicode="&#xcc;" glyph-name="Igrave" horiz-adv-x="252" d="M259 817Q259 834 250 848T224 869Q221 873 199 883T150 903T97 922T64 933Q51 938 40 938Q17 938 1 922T-16 882Q-16 865 -6 851T21 829Q24 825 46 816T96 796T148 777T181 767Q191 762 204
762Q227 762 243 778T259 817ZM203 -1V648Q203 680 180 703T124 727Q92 727 68 704T44 648V-1H203Z" />
<glyph unicode="&#xcd;" glyph-name="Iacute" horiz-adv-x="255" d="M261 881Q261 904 245 920T205 937Q200 937 195 936T182 932Q174 930 150 922T98 904T48 883T22 869Q6 863 -4 848T-14 816Q-14 793 3 777T43 760Q56 760 67 765Q72 766 85 770T115 781T151
794T186 809T213 821T226 829Q242 835 251 849T261 881ZM202 -1V648Q202 680 179 703T123 727Q91 727 67 704T43 648V-1H202Z" />
<glyph unicode="&#xce;" glyph-name="Icircumflex" horiz-adv-x="372" d="M368 818Q368 835 359 849T332 871L210 919Q203 921 196 924T180 927Q172 927 165 924T150 918L26 869Q10 863 1 849T-8 817Q-8 794 8 777T47 760Q57 760 75 766T114 781T152 797T180 810Q190
806 207 798T244 782T282 767T311 761Q334 761 351 778T368 818ZM260 -1V648Q260 680 237 703T181 727Q149 727 125 704T101 648V-1H260Z" />
<glyph unicode="&#xcf;" glyph-name="Idieresis" horiz-adv-x="290" d="M315 838Q315 869 294 890T240 912Q209 912 188 890T167 837Q167 808 189 786T240 764Q272 764 293 785T315 838ZM41 912Q11 912 -11 891T-34 839Q-34 807 -13 786T41 764Q72 764 93 786T114
838Q114 869 93 890T41 912ZM220 -1V648Q220 680 197 703T141 727Q109 727 85 704T61 648V-1H220Z" />
<glyph unicode="&#xd1;" glyph-name="Ntilde" horiz-adv-x="693" d="M648 70V648Q648 664 642 678T625 704T599 721T568 728Q552 728 538 722T513 704T496 678T489 647V262L169 692Q157 708 140 718T102 729Q68 729 45 705T22 648V0H181V462L506 21Q517 7 533
-1T568 -9Q602 -9 625 14T648 70ZM523 842H514H456Q456 835 454 827T449 811T439 798T425 793Q408 793 389 800T350 817T309 833T267 841Q241 841 223 830T193 800T176 759T169 714V702H236Q236 709 237 717T243 733T252 746T267 751Q282 751 301 744T340 727T382
711T425 703Q452 703 470 716T500 749T517 794T523 842Z" />
<glyph unicode="&#xd2;" glyph-name="Ograve" horiz-adv-x="734" d="M491 817Q491 834 482 848T455 869Q452 873 430 883T381 903T328 922T296 933Q285 938 272 938Q249 938 233 922T216 882Q216 865 226 851T253 829Q256 825 278 816T327 796T379 777T412 767Q419
764 424 763T435 762Q458 762 474 778T491 817ZM356 730Q279 730 215 700T105 620T32 502T6 360Q6 286 32 219T104 101T214 20T355 -10Q431 -10 495 20T605 101T677 219T703 360Q703 434 678 501T606 619T496 700T356 730ZM542 355Q542 312 530 272T495 200T436
149T353 129Q306 129 271 149T213 203T179 277T168 360Q168 402 179 443T213 517T271 570T353 591Q402 591 438 571T497 517T531 441T542 355Z" />
<glyph unicode="&#xd3;" glyph-name="Oacute" horiz-adv-x="744" d="M499 881Q499 904 483 920T443 937Q430 937 420 932Q412 931 388 923T336 904T286 883T260 869Q243 862 233 848T223 816Q223 793 240 777T281 760Q291 760 304 765Q309 766 322 770T352 781T388
794T423 809T450 821T463 829Q479 835 489 849T499 881ZM361 730Q284 730 220 700T110 620T37 502T11 360Q11 286 37 219T109 101T219 20T360 -10Q436 -10 500 20T610 101T682 219T708 360Q708 434 683 501T611 619T501 700T361 730ZM547 355Q547 312 535 272T500
200T441 149T358 129Q311 129 276 149T218 203T184 277T173 360Q173 402 184 443T218 517T276 570T358 591Q407 591 443 571T502 517T536 441T547 355Z" />
<glyph unicode="&#xd4;" glyph-name="Ocircumflex" horiz-adv-x="734" d="M543 818Q543 835 534 849T507 871L384 919Q378 921 370 924T354 927Q347 927 340 924T324 918L201 869Q185 863 176 849T166 817Q166 794 182 777T222 760Q232 760 250 766T288 781T326
797T355 810Q365 806 382 798T419 782T456 767T485 761Q508 761 525 778T543 818ZM356 730Q279 730 215 700T105 620T32 502T6 360Q6 286 32 219T104 101T214 20T355 -10Q431 -10 495 20T605 101T677 219T703 360Q703 434 678 501T606 619T496 700T356 730ZM542
355Q542 312 530 272T495 200T436 149T353 129Q306 129 271 149T213 203T179 277T168 360Q168 402 179 443T213 517T271 570T353 591Q402 591 438 571T497 517T531 441T542 355Z" />
<glyph unicode="&#xd5;" glyph-name="Otilde" horiz-adv-x="734" d="M356 730Q279 730 215 700T105 620T32 502T6 360Q6 286 32 219T104 101T214 20T355 -10Q431 -10 495 20T605 101T677 219T703 360Q703 434 678 501T606 619T496 700T356 730ZM542 355Q542 312
530 272T495 200T436 149T353 129Q306 129 271 149T213 203T179 277T168 360Q168 402 179 443T213 517T271 570T353 591Q402 591 438 571T497 517T531 441T542 355ZM545 942H536H478Q478 935 476 927T471 911T461 898T447 893Q430 893 411 900T372 917T331 933T289
941Q263 941 245 930T215 900T198 859T191 814V802H258Q258 809 259 817T265 833T274 846T289 851Q304 851 323 844T362 827T404 811T447 803Q474 803 492 816T522 849T539 894T545 942Z" />
<glyph unicode="&#xd6;" glyph-name="Odieresis" horiz-adv-x="753" d="M569 737Q569 712 587 694T630 676Q655 676 673 694T691 738Q691 764 673 781T629 799Q603 799 586 781T569 736V737ZM159 737Q159 762 142 780T99 798Q73 798 55 781T37 738Q37 712 54 694T98
676Q124 676 141 694T159 737ZM365 730Q288 730 224 700T114 620T41 502T15 360Q15 286 41 219T113 101T223 20T364 -10Q440 -10 504 20T614 101T686 219T712 360Q712 434 687 501T615 619T505 700T365 730ZM551 355Q551 312 539 272T504 200T445 149T362 129Q315
129 280 149T222 203T188 277T177 360Q177 402 188 443T222 517T280 570T362 591Q411 591 447 571T506 517T540 441T551 355Z" />
<glyph unicode="&#xd8;" glyph-name="Oslash" horiz-adv-x="765" d="M726 706Q726 717 718 725T697 734Q688 734 674 723T646 696T618 665T598 642Q550 685 491 708T367 731Q290 731 226 701T117 619T46 501T20 359Q20 292 41 231T106 117L14 18L55 -23L145 75Q190
33 247 12T366 -10Q442 -10 506 19T616 99T689 215T716 356Q716 421 696 484T639 601Q645 608 659 622T689 651T715 682T726 706ZM496 537L212 227Q195 258 188 290T181 357Q181 399 192 440T225 515T283 569T365 590Q441 590 497 537H496ZM555 356Q555 315 543
275T508 202T450 151T369 131Q334 131 303 143T248 181L529 488Q543 456 549 423T555 356Z" />
<glyph unicode="&#xd9;" glyph-name="Ugrave" horiz-adv-x="729" d="M487 817Q487 834 478 848T452 869Q449 873 427 883T378 903T325 922T292 933Q279 938 268 938Q245 938 229 922T212 882Q212 865 222 851T249 829Q252 825 274 816T324 796T376 777T409 767Q419
762 432 762Q455 762 471 778T487 817ZM669 289V647Q669 680 646 704T589 728Q556 728 533 705T510 648V285Q510 213 467 170T352 127Q280 127 237 170T194 285V722H35V289Q35 219 59 164T125 71T226 12T352 -9Q420 -9 478 11T578 70T645 164T669 289Z" />
<glyph unicode="&#xda;" glyph-name="Uacute" horiz-adv-x="729" d="M490 881Q490 904 474 920T434 937Q429 937 424 936T411 932Q403 930 379 922T327 904T277 883T251 869Q235 863 225 848T215 816Q215 793 232 777T272 760Q285 760 296 765Q301 766 314 770T344
781T380 794T415 809T442 821T455 829Q471 835 480 849T490 881ZM669 289V647Q669 680 646 704T589 728Q556 728 533 705T510 648V285Q510 213 467 170T352 127Q280 127 237 170T194 285V722H35V289Q35 219 59 164T125 71T226 12T352 -9Q420 -9 478 11T578 70T645
164T669 289Z" />
<glyph unicode="&#xdb;" glyph-name="Ucircumflex" horiz-adv-x="729" d="M539 818Q539 835 530 849T503 871L381 919Q374 921 367 924T351 927Q343 927 336 924T321 918L197 869Q181 863 172 849T163 817Q163 794 179 777T218 760Q228 760 246 766T285 781T323
797T351 810Q361 806 378 798T415 782T453 767T482 761Q505 761 522 778T539 818ZM669 289V647Q669 680 646 704T589 728Q556 728 533 705T510 648V285Q510 213 467 170T352 127Q280 127 237 170T194 285V722H35V289Q35 219 59 164T125 71T226 12T352 -9Q420 -9
478 11T578 70T645 164T669 289Z" />
<glyph unicode="&#xdc;" glyph-name="Udieresis" horiz-adv-x="697" d="M653 289V647Q653 680 630 704T573 728Q560 728 550 725Q551 729 551 737Q551 763 534 781T490 799Q464 799 447 781T429 736Q429 712 447 695T490 677H499Q494 662 494 648V285Q494 213
451 170T336 127Q264 127 221 170T178 285V677Q180 677 182 677T188 676Q213 676 230 694T248 738Q248 763 231 781T188 799Q162 799 144 781T126 736Q126 732 126 729T128 722H19V289Q19 219 43 164T109 71T210 12T336 -9Q404 -9 462 11T562 70T629 164T653 289Z"
/>
<glyph unicode="&#xdf;" glyph-name="germandbls" horiz-adv-x="547" d="M524 239Q524 269 516 298T492 353T453 398T400 427Q433 453 450 490T467 570Q467 616 450 654T403 719T333 761T248 776Q191 776 146 758T70 706T21 626T4 524V-225H158V535Q158 556 162
575T177 609T203 633T244 642Q279 642 302 618T325 558Q325 537 317 523T294 498T263 476T230 450Q223 441 219 434T215 413Q215 389 226 377T255 358T293 345T331 328T360 298T372 244Q372 208 361 188T332 157T296 140T259 127T231 107T219 70Q219 31 246 11T310
-9Q356 -9 395 14T462 73T507 153T524 239Z" />
<glyph unicode="&#xe0;" glyph-name="agrave" horiz-adv-x="562" d="M416 635Q416 652 407 666T381 687Q378 691 356 701T307 721T254 740T221 751Q210 755 197 755Q174 755 158 739T141 699Q141 682 151 668T178 646Q181 642 203 633T253 613T305 594T338 584Q349
580 361 580Q384 580 400 596T416 635ZM535 -2V470Q535 496 522 515T481 536Q465 538 447 536T409 520Q389 508 384 494T378 480Q378 480 360 489T314 508T249 521T176 517Q136 506 105 482T53 424T20 349T8 266Q8 211 25 162T75 74T154 14T258 -9Q301 -9 337 9T396
65Q396 65 396 57T395 37Q395 26 395 15T396 -2H535ZM387 271Q387 244 382 218T363 170T328 135T275 121Q245 121 224 134T190 168T170 215T163 267Q163 292 169 318T190 365T225 399T277 412Q307 412 328 400T362 367T381 322T387 271Z" />
<glyph unicode="&#xe1;" glyph-name="aacute" horiz-adv-x="570" d="M423 699Q423 722 407 738T367 754Q356 754 344 750Q339 749 326 745T295 735T259 721T224 707T197 695T184 687Q168 681 158 666T148 634Q148 610 165 594T205 578Q218 578 229 583Q234 584
247 588T277 599T313 612T348 627T375 639T388 647Q404 653 413 667T423 699ZM539 -2V470Q539 496 526 515T485 536Q469 538 451 536T413 520Q393 508 388 494T382 480Q382 480 364 489T318 508T253 521T180 517Q140 506 109 482T57 424T24 349T12 266Q12 211 29
162T79 74T158 14T262 -9Q305 -9 341 9T400 65Q400 65 400 57T399 37Q399 26 399 15T400 -2H539ZM391 271Q391 244 386 218T367 170T332 135T279 121Q249 121 228 134T194 168T174 215T167 267Q167 292 173 318T194 365T229 399T281 412Q311 412 332 400T366 367T385
322T391 271Z" />
<glyph unicode="&#xe2;" glyph-name="acircumflex" horiz-adv-x="612" d="M492 635Q492 653 483 667T456 688L334 736Q327 739 320 741T304 744Q296 744 289 742T274 736L150 686Q134 680 125 666T116 635Q116 612 132 595T171 578Q181 578 199 584T238 599T276
615T304 628Q314 623 331 615T368 599T406 585T435 579Q458 579 475 595T492 635ZM559 -2V470Q559 496 546 515T505 536Q489 538 471 536T433 520Q413 508 408 494T402 480Q402 480 384 489T338 508T273 521T200 517Q160 506 129 482T77 424T44 349T32 266Q32 211
49 162T99 74T178 14T282 -9Q325 -9 361 9T420 65Q420 65 420 57T419 37Q419 26 419 15T420 -2H559ZM411 271Q411 244 406 218T387 170T352 135T299 121Q269 121 248 134T214 168T194 215T187 267Q187 292 193 318T214 365T249 399T301 412Q331 412 352 400T386
367T405 322T411 271Z" />
<glyph unicode="&#xe3;" glyph-name="atilde" horiz-adv-x="582" d="M486 742H477H419Q419 735 417 727T412 711T402 698T388 693Q371 693 352 700T313 717T272 733T230 741Q204 741 186 730T156 700T139 659T132 614V602H199Q199 609 200 617T206 633T215 646T230
651Q245 651 264 644T303 627T345 611T388 603Q415 603 433 616T463 649T480 694T486 742ZM544 -2V470Q544 496 531 515T490 536Q474 538 456 536T418 520Q399 508 393 494T387 480Q387 480 369 489T323 508T258 521T185 517Q145 506 114 482T62 424T29 349T17
266Q17 211 34 162T84 74T163 14T267 -9Q310 -9 346 9T405 65Q405 65 405 57T404 37Q404 26 404 15T405 -2H544ZM396 271Q396 244 391 218T372 170T337 135T284 121Q254 121 233 134T199 168T179 215T172 267Q172 292 178 318T199 365T234 399T286 412Q316 412
337 400T371 367T390 322T396 271Z" />
<glyph unicode="&#xe4;" glyph-name="adieresis" horiz-adv-x="591" d="M404 734Q372 734 351 712T330 658Q330 628 352 607T405 585Q436 585 457 607T479 660Q479 691 457 712T404 734ZM206 734Q175 734 153 712T131 659Q131 628 153 607T206 585Q237 585 258
606T280 659Q280 690 259 712T206 734ZM549 -2V470Q549 496 536 515T495 536Q479 538 461 536T423 520Q403 508 398 494T392 480Q392 480 374 489T328 508T263 521T190 517Q150 506 119 482T67 424T34 349T22 266Q22 211 39 162T89 74T168 14T272 -9Q315 -9 351
9T410 65Q410 65 410 57T409 37Q409 26 409 15T410 -2H549ZM401 271Q401 244 396 218T377 170T342 135T289 121Q259 121 238 134T204 168T184 215T177 267Q177 292 183 318T204 365T239 399T291 412Q321 412 342 400T376 367T395 322T401 271Z" />
<glyph unicode="&#xe5;" glyph-name="aring" horiz-adv-x="563" d="M290 762Q270 762 251 756T217 737T193 707T184 668Q184 647 193 630T217 600T251 581T290 574Q309 574 328 581T361 600T385 630T394 668Q394 689 385 706T362 736T328 755T289 762H290ZM321
668Q321 655 312 646T289 636Q276 636 266 645T256 669Q256 683 265 691T289 700Q302 700 311 691T321 668ZM535 -2V470Q535 496 522 515T481 536Q465 538 447 536T409 520Q389 508 384 494T378 480Q378 480 360 489T314 508T249 521T176 517Q136 506 105 482T53
424T20 349T8 266Q8 211 25 162T75 74T154 14T258 -9Q301 -9 337 9T396 65Q396 65 396 57T395 37Q395 26 395 15T396 -2H535ZM387 271Q387 244 382 218T363 170T328 135T275 121Q245 121 224 134T190 168T170 215T163 267Q163 292 169 318T190 365T225 399T277
412Q307 412 328 400T362 367T381 322T387 271Z" />
<glyph unicode="&#xe6;" glyph-name="ae" horiz-adv-x="931" d="M895 290Q895 306 893 322T885 353Q873 394 850 429T796 490T725 531T643 546Q605 546 569 534T503 497Q499 507 495 516T485 533T470 544T446 549Q415 549 401 530T386 481Q376 498 360 510T325
530T286 541T246 545Q189 545 145 521T69 457T21 367T4 264Q4 210 21 161T70 74T147 14T249 -9Q290 -9 327 6T388 57Q388 52 389 37T392 11T393 -2H494L504 40Q536 14 574 2T655 -10Q699 -10 732 -3T806 18Q805 26 803 39T797 67T791 95T785 116Q784 121 781 123T774
129L771 132Q770 132 770 132Q770 133 770 133Q763 132 756 130T741 127Q730 125 720 124T698 122Q691 121 684 121Q678 121 671 121Q619 121 581 150T531 229H828Q837 229 845 229T862 232Q880 239 887 253T895 290ZM737 316H536L532 326Q533 346 541 364T564
397T596 419T636 428Q660 428 678 419T708 393T727 357T738 315L737 316ZM381 274Q381 248 375 223T356 177T321 143T270 130Q241 130 220 142T185 173T165 218T158 269Q158 294 165 319T185 364T219 398T268 411Q298 411 319 400T354 369T374 325T381 274Z" />
<glyph unicode="&#xe7;" glyph-name="ccedilla" horiz-adv-x="493" d="M285 542Q226 542 176 521T90 463T33 375T12 265Q12 218 26 175T68 95T133 34T219 -1Q213 -8 204 -19T185 -42T170 -67T163 -88Q163 -105 176 -117T207 -130Q217 -130 227 -126T244 -112L322
-7Q343 -5 367 0T413 16T448 44T463 88Q463 114 443 134T396 154Q386 154 373 150T345 142T315 134T284 130Q256 130 235 142T198 174T176 219T168 269Q168 296 176 320T199 363T236 393T288 404Q302 404 319 401T354 392T389 381T421 370L462 500Q417 517 376
529T285 542Z" />
<glyph unicode="&#xe8;" glyph-name="egrave" horiz-adv-x="544" d="M396 635Q396 652 387 666T361 687Q358 691 336 701T287 721T234 740T201 751Q190 755 177 755Q154 755 138 739T121 699Q121 682 131 668T158 646Q161 642 183 633T233 613T285 594T318 584Q329
580 341 580Q364 580 380 596T396 635ZM527 288Q527 340 506 386T450 468T368 523T270 544Q212 544 163 523T77 464T20 377T-1 269Q-1 206 21 155T82 68T173 11T287 -9Q325 -9 359 -3T429 18L408 136Q381 130 354 125T299 119Q248 119 211 148T163 225H455Q490
225 508 237T527 288ZM367 312H163Q166 334 173 354T193 391T224 416T268 426Q291 426 309 416T339 390T359 354T368 312H367Z" />
<glyph unicode="&#xe9;" glyph-name="eacute" horiz-adv-x="537" d="M395 699Q395 722 379 738T339 754Q328 754 316 750Q311 749 298 745T267 735T231 721T196 707T169 695T156 687Q141 681 131 666T120 634Q120 610 137 594T177 578Q190 578 201 583Q206 584
219 588T250 599T286 612T321 627T348 639T360 647Q376 653 385 667T395 699ZM523 288Q523 340 502 386T446 468T364 523T266 544Q208 544 159 523T73 464T16 377T-5 269Q-5 206 17 155T78 68T169 11T283 -9Q321 -9 355 -3T425 18L404 136Q377 130 350 125T295
119Q244 119 207 148T159 225H451Q486 225 504 237T523 288ZM363 312H159Q162 334 169 354T189 391T220 416T264 426Q287 426 305 416T335 390T355 354T364 312H363Z" />
<glyph unicode="&#xea;" glyph-name="ecircumflex" horiz-adv-x="571" d="M460 635Q460 653 451 667T424 688L302 736Q295 739 288 741T272 744Q264 744 257 742T242 736L118 686Q103 680 94 666T84 635Q84 612 100 595T139 578Q149 578 167 584T206 599T244 615T272
628Q282 623 299 615T336 599T374 585T403 579Q426 579 443 595T460 635ZM539 288Q539 340 518 386T462 468T380 523T282 544Q224 544 175 523T89 464T32 377T11 269Q11 206 33 155T94 68T185 11T299 -9Q337 -9 371 -3T441 18L420 136Q393 130 366 125T311 119Q260
119 223 148T175 225H467Q502 225 520 237T539 288ZM379 312H175Q178 334 185 354T205 391T236 416T280 426Q303 426 321 416T351 390T371 354T380 312H379Z" />
<glyph unicode="&#xeb;" glyph-name="edieresis" horiz-adv-x="566" d="M446 655Q446 687 425 708T371 730Q340 730 319 708T298 655Q298 625 320 604T371 582Q403 582 424 603T446 655ZM172 730Q142 730 120 709T97 657Q97 625 118 604T172 582Q203 582 224 603T245
656Q245 686 224 708T172 730ZM538 288Q538 340 517 386T461 468T379 523T281 544Q223 544 174 523T88 464T31 377T10 269Q10 206 32 155T93 68T184 11T298 -9Q336 -9 370 -3T440 18L419 136Q392 130 365 125T310 119Q259 119 222 148T174 225H466Q501 225 519
237T538 288ZM378 312H174Q177 334 184 354T204 391T235 416T279 426Q302 426 320 416T350 390T370 354T379 312H378Z" />
<glyph unicode="&#xec;" glyph-name="igrave" horiz-adv-x="244" d="M255 635Q255 652 246 666T219 687Q216 691 194 701T145 721T92 741T60 751Q53 754 47 754T36 755Q13 755 -3 739T-20 699Q-20 682 -10 668T17 646Q20 642 42 633T91 613T143 594T176 584Q188
580 199 580Q222 580 238 596T255 635ZM205 0V468Q205 483 199 497T183 521T159 538T129 545Q97 545 74 523T51 468V0H205Z" />
<glyph unicode="&#xed;" glyph-name="iacute" horiz-adv-x="246" d="M257 699Q257 722 241 738T201 754Q189 754 178 750Q173 749 160 745T129 735T93 721T58 707T31 695T18 687Q1 680 -9 666T-19 634Q-19 610 -2 594T39 578Q49 578 62 583Q67 584 80 588T110
599T146 612T181 627T208 639T221 647Q237 653 247 667T257 699ZM204 0V468Q204 483 198 497T182 521T158 538T128 545Q96 545 73 523T50 468V0H204Z" />
<glyph unicode="&#xee;" glyph-name="icircumflex" horiz-adv-x="396" d="M380 635Q380 653 371 667T344 688L221 736Q215 739 207 741T191 744Q184 744 177 742T161 736L38 686Q22 680 13 666T3 635Q3 612 19 595T59 578Q69 578 87 584T125 599T163 615T192 628Q202
623 219 615T256 599T293 585T322 579Q345 579 362 595T380 635ZM278 0V468Q278 483 272 497T256 521T232 538T202 545Q170 545 147 523T124 468V0H278Z" />
<glyph unicode="&#xef;" glyph-name="idieresis" horiz-adv-x="350" d="M343 655Q343 687 321 708T268 730Q237 730 216 708T195 655Q195 625 216 604T268 582Q299 582 321 603T343 655ZM69 730Q38 730 16 709T-6 657Q-6 625 15 604T68 582Q99 582 120 603T142
656Q142 686 121 708T69 730ZM254 0V468Q254 483 248 497T232 521T208 538T178 545Q146 545 123 523T100 468V0H254Z" />
<glyph unicode="&#xf1;" glyph-name="ntilde" horiz-adv-x="594" d="M532 68V349Q532 394 516 430T472 491T405 531T324 545Q282 545 244 528T182 476Q178 503 164 525T118 547Q102 547 88 541T64 523T48 498T42 468V-1H196V325Q196 363 222 389T286 416Q324 416
351 389T378 324V66Q378 34 400 12T455 -10Q471 -10 485 -4T509 12T526 37T532 68ZM463 722H454H396Q396 715 394 707T389 691T379 678T365 673Q348 673 329 680T290 697T249 713T207 721Q181 721 163 710T133 680T116 639T109 594V582H176Q176 589 177 597T183
613T192 626T207 631Q222 631 241 624T280 607T322 591T365 583Q392 583 410 596T440 629T457 674T463 722Z" />
<glyph unicode="&#xf2;" glyph-name="ograve" horiz-adv-x="541" d="M397 635Q397 652 388 666T362 687Q360 691 338 701T288 721T235 740T202 751Q191 755 178 755Q155 755 139 739T122 699Q122 682 132 668T159 646Q162 642 184 633T234 613T286 594T319 584Q330
580 342 580Q365 580 381 596T397 635ZM527 269Q527 325 507 375T452 464T368 524T261 546Q203 546 155 524T71 463T15 375T-5 267Q-5 211 15 161T70 72T155 12T262 -11Q320 -11 368 11T452 72T507 161T527 269ZM374 268Q374 242 368 216T348 168T313 134T261 120Q232
120 211 133T176 168T156 216T149 268Q149 293 156 318T176 365T211 399T261 412Q290 412 311 399T347 366T367 319T374 268Z" />
<glyph unicode="&#xf3;" glyph-name="oacute" horiz-adv-x="541" d="M400 699Q400 722 384 738T344 754Q333 754 321 750Q316 749 303 745T272 735T236 721T201 707T174 695T161 687Q145 681 135 666T125 634Q125 610 142 594T182 578Q195 578 206 583Q211 584
224 588T255 599T291 612T326 627T352 639T365 647Q381 653 390 667T400 699ZM527 269Q527 325 507 375T452 464T368 524T261 546Q203 546 155 524T71 463T15 375T-5 267Q-5 211 15 161T70 72T155 12T262 -11Q320 -11 368 11T452 72T507 161T527 269ZM374 268Q374
242 368 216T348 168T313 134T261 120Q232 120 211 133T176 168T156 216T149 268Q149 293 156 318T176 365T211 399T261 412Q290 412 311 399T347 366T367 319T374 268Z" />
<glyph unicode="&#xf4;" glyph-name="ocircumflex" horiz-adv-x="581" d="M469 635Q469 653 459 667T433 688L311 736Q303 739 296 741T281 744Q273 744 266 742T251 736L127 686Q111 680 102 666T93 635Q93 612 109 595T148 578Q158 578 176 584T215 599T253
615T281 628Q291 623 308 615T345 599T383 585T412 579Q435 579 452 595T469 635ZM547 269Q547 325 527 375T472 464T388 524T281 546Q223 546 175 524T91 463T35 375T15 267Q15 211 35 161T90 72T175 12T282 -11Q340 -11 388 11T472 72T527 161T547 269ZM394 268Q394
242 388 216T368 168T333 134T281 120Q252 120 231 133T196 168T176 216T169 268Q169 293 176 318T196 365T231 399T281 412Q310 412 331 399T367 366T387 319T394 268Z" />
<glyph unicode="&#xf5;" glyph-name="otilde" horiz-adv-x="579" d="M546 269Q546 325 526 375T471 464T387 524T280 546Q222 546 174 524T90 463T34 375T14 267Q14 211 34 161T89 72T174 12T281 -11Q339 -11 387 11T471 72T526 161T546 269ZM393 268Q393 242
387 216T367 168T332 134T280 120Q251 120 230 133T195 168T175 216T168 268Q168 293 175 318T195 365T230 399T280 412Q309 412 330 399T366 366T386 319T393 268ZM453 742H444H386Q386 735 384 727T379 711T369 698T355 693Q338 693 319 700T280 717T239 733T197
741Q171 741 153 730T123 700T105 659T99 614Q98 612 98 608T99 602H166Q166 609 167 617T173 633T182 646T197 651Q212 651 231 644T270 627T312 611T355 603Q382 603 400 616T430 649T447 694T453 742Z" />
<glyph unicode="&#xf6;" glyph-name="odieresis" horiz-adv-x="573" d="M304 660Q304 630 325 609T377 587Q408 587 429 608T451 661Q451 692 430 713T378 735Q346 735 325 713T303 660H304ZM252 661Q252 691 231 713T178 735Q146 735 125 713T104 659Q104 629
126 608T178 587Q209 587 230 608T252 661ZM543 269Q543 325 523 375T468 464T384 524T277 546Q219 546 171 524T87 464T31 376T11 268Q11 211 31 161T86 72T171 12T278 -11Q336 -11 384 11T468 72T523 161T543 269ZM165 266Q165 291 171 317T192 364T227 398T278
412Q307 412 328 399T363 365T383 318T390 267Q390 240 384 214T364 167T328 133T276 120Q247 120 226 133T192 168T172 215T165 266Z" />
<glyph unicode="&#xf7;" glyph-name="divide" horiz-adv-x="287" />
<glyph unicode="&#xf8;" glyph-name="oslash" horiz-adv-x="600" d="M563 536Q563 546 557 554T539 562Q530 562 519 553T496 532T474 507T457 487Q386 547 292 547Q234 547 185 525T100 466T44 378T24 270Q24 220 40 173T86 85L16 2L52 -28L122 50Q156 20 198
5T286 -11Q344 -11 393 11T478 70T534 158T554 266Q554 317 539 363T492 450Q497 455 508 467T532 492T553 517T563 536ZM358 384L191 195Q185 212 181 230T177 268Q177 293 184 318T204 365T239 399T289 412Q330 412 358 384ZM401 264Q401 238 395 213T374 167T339
134T288 121Q269 121 251 128T218 149L387 340Q395 322 398 303T401 264Z" />
<glyph unicode="&#xf9;" glyph-name="ugrave" horiz-adv-x="539" d="M396 635Q396 652 387 666T361 687Q358 691 336 701T287 721T234 740T201 751Q190 755 177 755Q154 755 138 739T121 699Q121 682 131 668T158 646Q161 642 183 633T233 613T285 594T318 584Q329
580 341 580Q364 580 380 596T396 635ZM505 220V467Q505 499 483 521T428 544Q412 544 398 538T374 522T357 497T351 466V222Q351 177 329 151T261 125Q214 125 192 151T170 222V530H59H16V220Q16 102 81 46T261 -10Q376 -10 440 46T505 221V220Z" />
<glyph unicode="&#xfa;" glyph-name="uacute" horiz-adv-x="539" d="M399 699Q399 722 383 738T343 754Q332 754 320 750Q315 749 302 745T271 735T235 721T200 707T173 695T160 687Q144 681 134 666T124 634Q124 610 141 594T181 578Q194 578 205 583Q210 584
223 588T253 599T289 612T324 627T351 639T364 647Q380 653 389 667T399 699ZM505 220V467Q505 499 483 521T428 544Q412 544 398 538T374 522T357 497T351 466V222Q351 177 329 151T261 125Q214 125 192 151T170 222V530H59H16V220Q16 102 81 46T261 -10Q376 -10
440 46T505 221V220Z" />
<glyph unicode="&#xfb;" glyph-name="ucircumflex" horiz-adv-x="570" d="M463 635Q463 653 453 667T427 688L305 736Q297 739 290 741T275 744Q267 744 260 742T245 736L121 686Q105 680 96 666T87 635Q87 612 103 595T142 578Q152 578 170 584T209 599T247 615T275
628Q285 623 302 615T339 599T377 585T406 579Q429 579 446 595T463 635ZM520 220V467Q520 499 498 521T443 544Q427 544 413 538T389 522T372 497T366 466V222Q366 177 344 151T276 125Q229 125 207 151T185 222V530H74H31V220Q31 102 96 46T276 -10Q391 -10 455
46T520 221V220Z" />
<glyph unicode="&#xfc;" glyph-name="udieresis" horiz-adv-x="568" d="M449 660Q449 691 428 712T375 734Q343 734 322 712T301 658Q301 627 323 607T376 586Q406 586 427 607T449 660ZM101 658Q101 628 123 607T175 586Q205 586 227 607T249 660Q249 690 227
712T175 734Q143 734 122 712T101 658ZM519 220V467Q519 499 497 521T442 544Q426 544 412 538T388 522T371 497T365 466V222Q365 177 343 151T275 125Q228 125 206 151T184 222V530H73H30V220Q30 102 95 46T275 -10Q390 -10 454 46T519 221V220Z" />
<glyph unicode="&#xff;" glyph-name="ydieresis" horiz-adv-x="493" d="M419 655Q419 687 397 708T344 730Q313 730 292 708T271 655Q271 625 292 604T344 582Q375 582 397 603T419 655ZM145 730Q114 730 92 709T70 657Q70 625 91 604T144 582Q175 582 196 603T218
656Q218 686 197 708T145 730ZM482 471Q482 503 459 524T405 545Q375 545 358 527T332 482L245 219L133 536L-6 479L167 35Q165 31 155 9T133 -39T111 -91T98 -126Q87 -153 87 -171Q87 -201 110 -220T163 -240Q191 -240 208 -224T236 -182Q240 -179 251 -155T279
-92T314 -5T354 95T393 198T427 294T454 370T469 418Q476 435 479 449T482 471Z" />
<glyph unicode="&#x152;" glyph-name="OE" horiz-adv-x="987" d="M956 68Q956 97 936 117T886 138H689V288H857Q886 288 906 308T927 358Q927 387 907 407T857 428H689V579H909V718L873 720H609Q591 720 581 714T565 696T557 671T555 641Q537 665 514 682T464
711T408 728T349 733Q312 733 278 727Q213 716 161 681T73 594T18 481T-2 353Q-2 281 24 215T95 98T204 18T343 -12Q371 -12 401 -7T459 10T511 37T554 76V77Q555 73 557 64T560 46T564 29T568 20Q570 10 581 5T606 0L885 -2Q914 -2 935 18T956 68ZM159 360Q159
403 169 445T202 520T260 574T344 595Q392 595 427 575T486 522T520 448T532 363Q532 319 522 278T489 203T431 150T347 130Q299 130 264 150T205 202T170 275T159 360Z" />
<glyph unicode="&#x153;" glyph-name="oe" horiz-adv-x="936" d="M898 287Q898 327 884 367T846 440T790 497T719 533T635 546Q576 546 534 525T453 463Q418 501 372 523T271 546Q213 546 165 524T81 464T25 376T5 269Q5 212 24 162T78 73T161 13T268 -10Q322
-10 370 11T453 73Q490 31 541 11T649 -10Q667 -10 688 -8T732 -3T775 5T812 16Q808 35 802 58T791 105Q790 107 788 116T786 128Q784 132 784 136V137Q777 136 769 134T755 129Q732 123 710 119T665 114Q611 114 577 144T533 226H830Q863 226 880 239T898 287ZM737
313H533Q536 334 543 354T563 390T593 416T635 426Q658 426 677 417T709 392T730 356T737 313ZM381 272Q381 246 375 220T356 172T322 137T270 123Q241 123 220 135T185 168T165 214T158 265Q158 289 164 315T184 363T218 399T268 413Q298 413 319 401T354 369T374
324T381 272Z" />
<glyph unicode="&#x178;" glyph-name="Ydieresis" horiz-adv-x="604" d="M469 838Q469 869 448 890T394 912Q363 912 342 890T321 837Q321 808 343 786T394 764Q426 764 447 785T469 838ZM195 912Q165 912 143 891T120 839Q120 807 141 786T195 764Q226 764 247
786T268 838Q268 869 247 890T195 912ZM584 648Q584 664 578 678T562 703T537 720T506 727Q485 727 466 716T436 688L294 479L124 732L0 637Q0 635 2 632T6 626L215 338V72Q215 39 238 15T295 -9Q328 -9 351 15T375 72V338L569 604Q576 614 580 625T584 648Z" />
<glyph unicode="&#x192;" glyph-name="florin" horiz-adv-x="408" d="M411 706Q411 732 397 746T363 766T320 774T278 775Q226 775 194 745T151 668Q148 660 144 642T137 602T132 562T128 535Q111 533 94 530T62 518T39 497T29 462Q29 445 37 433T57 414T85 404T115
401L69 -50Q67 -70 56 -83T19 -100Q9 -102 0 -102T-17 -105L-18 -220Q-13 -222 -5 -224T13 -229T31 -232T46 -234H76Q108 -234 133 -222T177 -189T205 -141T219 -83L269 401Q285 400 304 404T340 417T368 442T379 477Q379 493 371 504T351 522T323 532T294 535Q292
536 288 536T282 535Q284 556 287 575T297 613Q299 615 299 618Q299 621 301 623Q313 637 331 641T367 651T398 668T411 706Z" />
<glyph unicode="&#x2c6;" glyph-name="circumflex" horiz-adv-x="360" d="M362 635Q362 653 352 667T326 688L204 736Q196 739 189 741T174 744Q166 744 159 742T144 736L20 686Q4 680 -5 666T-14 635Q-14 612 2 595T41 578Q51 578 69 584T108 599T146 615T174
628Q184 623 201 615T238 599T276 585T305 579Q328 579 345 595T362 635Z" />
<glyph unicode="&#x2dc;" glyph-name="tilde" horiz-adv-x="376" d="M359 712H350H292Q292 705 290 697T285 681T275 668T261 663Q244 663 225 670T186 687T145 703T103 711Q77 711 59 700T29 670T12 629T5 584V572H72Q72 579 73 587T79 603T88 616T103 621Q118
621 137 614T176 597T218 581T261 573Q288 573 306 586T336 619T353 664T359 712Z" />
<glyph unicode="&#x2013;" glyph-name="endash" horiz-adv-x="581" d="M527 410H88Q64 410 49 391T33 349Q33 326 48 307T88 287H501H526L527 410Z" />
<glyph unicode="&#x2014;" glyph-name="emdash" horiz-adv-x="562" d="M513 224L512 368H29V223L513 224Z" />
<glyph unicode="&#x2018;" glyph-name="quoteleft" horiz-adv-x="242" d="M-1 515L136 451L228 660Q235 674 235 692Q235 722 215 744T164 766Q143 766 124 754T96 722L-1 515Z" />
<glyph unicode="&#x2019;" glyph-name="quoteright" horiz-adv-x="240" d="M234 692L97 756L4 546Q0 538 -1 530T-2 514Q-2 485 18 463T69 441Q90 441 109 453T137 484L234 692Z" />
<glyph unicode="&#x201a;" glyph-name="quotesinglbase" horiz-adv-x="244" d="M236 97L116 163Q116 163 105 141T79 92T52 42T39 15Q35 8 29 -6T16 -35T5 -64T0 -85Q0 -115 20 -137T71 -159Q92 -159 111 -148T139 -116Q143 -114 154 -91T178 -38T205 24T227 75T236 97Z" />
<glyph unicode="&#x201c;" glyph-name="quotedblleft" horiz-adv-x="471" d="M-1 505L135 441L241 674Q248 691 248 706Q248 736 228 758T176 780Q155 780 136 768T109 737L-1 505ZM208 505L345 441L451 674Q457 689 457 706Q457 736 437 758T386 780Q365 780
346 768T318 737L208 505Z" />
<glyph unicode="&#x201d;" glyph-name="quotedblright" horiz-adv-x="468" d="M455 716L319 780L213 546Q206 530 206 515Q206 485 227 463T278 441Q299 441 318 452T346 484L455 716ZM246 716L109 780L3 546Q-3 532 -3 515Q-3 485 17 463T68 441Q89 441 108 453T136
484L246 716Z" />
<glyph unicode="&#x201e;" glyph-name="quotedblbase" horiz-adv-x="472" d="M457 116L321 180L215 -54Q208 -70 208 -85Q208 -115 229 -137T280 -159Q301 -159 320 -148T348 -116L457 116ZM248 116L111 180L5 -54Q-1 -68 -1 -85Q-1 -115 19 -137T70 -159Q91 -159
110 -147T138 -116L248 116Z" />
<glyph unicode="&#x2020;" glyph-name="dagger" horiz-adv-x="611" d="M592 417Q592 450 570 470Q559 481 546 487T516 493H364V659Q364 675 359 690T342 716Q321 739 287 739Q255 739 232 716Q221 704 215 690T209 658V492H-3V343H209V-213H365V344H517Q549 344
571 366Q592 387 592 417Z" />
<glyph unicode="&#x2021;" glyph-name="daggerdbl" horiz-adv-x="287" />
<glyph unicode="&#x2022;" glyph-name="bullet" horiz-adv-x="344" d="M288 360Q288 388 277 413T247 458T203 488T149 499Q120 499 95 488T51 458T21 414T10 360Q10 331 21 306T51 262T95 232T149 221Q177 221 202 232T247 262T277 306T288 360Z" />
<glyph unicode="&#x2026;" glyph-name="ellipsis" horiz-adv-x="722" d="M670 70Q670 103 646 127T588 151Q555 151 531 127T507 69Q507 36 531 12T589 -12Q622 -12 646 12T670 70ZM430 70Q430 103 407 127T349 151Q315 151 292 127T268 69Q268 36 291 12T349
-12Q383 -12 406 12T430 70ZM190 70Q190 103 167 127T109 151Q76 151 52 127T28 69Q28 36 52 12T110 -12Q143 -12 167 12T191 70H190Z" />
<glyph unicode="&#x2030;" glyph-name="perthousand" horiz-adv-x="948" d="M928 162Q928 194 919 225T891 280T846 319T784 334Q749 334 721 319T674 279T645 223T635 159Q635 127 644 96T673 39T719 -1T782 -17Q818 -17 845 -1T891 40T919 98T928 162ZM282 562Q282
594 273 625T244 681T198 721T136 737Q100 737 73 721T26 680T-3 622T-13 558Q-13 526 -3 495T25 439T71 398T134 382Q170 382 197 398T243 440T272 498T282 562ZM499 678Q499 701 484 717T446 733Q431 733 418 726T399 704L102 53Q101 51 99 46T96 38Q96 35 107
26T132 8T160 -9T176 -17Q179 -17 182 -14T190 -6T196 3T200 10L493 653Q499 665 499 678ZM614 162Q614 194 605 225T577 280T531 319T469 334Q434 334 406 319T359 279T330 223T320 159Q320 127 329 96T358 39T404 -1T467 -17Q503 -17 530 -1T576 40T604 98T614
162ZM782 87Q768 87 758 93T742 110T733 134T730 159Q730 171 733 183T742 206T758 224T783 231Q811 231 823 209T835 163Q835 150 833 137T824 112T807 94T782 87ZM135 631Q149 631 158 625T174 608T183 585T186 561Q186 549 183 536T174 512T158 494T134 486Q120
486 111 493T95 511T85 535T82 559Q82 571 85 583T94 606T111 624T135 631ZM468 231Q496 231 508 209T521 163Q521 150 519 137T510 112T493 94T467 87Q453 87 443 93T427 110T418 134T415 159Q415 171 418 183T427 206T443 224T468 231Z" />
<glyph unicode="&#x2039;" glyph-name="guilsinglleft" horiz-adv-x="288" d="M197 489Q180 489 164 480T137 456L26 314Q25 313 25 301T24 275Q24 261 24 249Q24 237 24 235Q24 233 26 229T32 220T39 211T43 204L138 73Q148 59 162 51T193 42Q218 42 236 60T255
103Q255 117 249 129T234 152L149 267L236 380Q244 391 249 402T255 428Q255 452 239 470T197 489Z" />
<glyph unicode="&#x203a;" glyph-name="guilsinglright" horiz-adv-x="272" d="M83 488Q58 488 40 471T21 428Q21 414 27 402T41 379L126 265L40 151Q32 140 26 129T20 103Q20 78 37 60T80 42Q97 42 112 51T138 75L240 217Q241 218 241 230T242 256Q242 270 242
282Q242 294 242 296Q242 301 234 312T224 327L137 458Q129 472 115 480T83 488Z" />
<glyph unicode="&#x2122;" glyph-name="trademark" horiz-adv-x="746" d="M696 369Q696 371 696 374T695 380L643 688Q640 704 628 714T598 725Q581 725 569 716T552 689L480 447L409 689Q404 705 393 715T364 725Q347 725 334 715T318 687L266 380V369L331 364L370
623L447 360H515L592 623L630 364L696 369ZM281 690Q281 702 273 711T251 720H55Q43 720 34 712T25 690Q25 679 31 672T47 662Q51 660 61 660T84 659Q96 659 106 659T120 660V367H186V660Q189 660 199 660T222 659Q234 659 244 659T259 662Q268 664 274 671T281
690Z" />
</font>
</defs>
</svg>
