<?xml version="1.0" standalone="no"?> <!DOCTYPE svg PUBLIC "-//W3C//DTD SVG 1.0//EN" "http://www.w3.org/TR/2001/REC-SVG-20010904/DTD/svg10.dtd" > <svg xmlns="http://www.w3.org/2000/svg" width="100%" height="100%">
<defs >
<font id="Folks-Normal" horiz-adv-x="423" ><font-face
    font-family="Folks"
    units-per-em="1000"
    panose-1="2 0 5 3 2 0 0 2 0 4"
    ascent="897"
    descent="-226"
    alphabetic="0" />
<missing-glyph horiz-adv-x="364" d="M33 0V666H298V0H33ZM66 33H265V633H66V33Z" />
<glyph unicode=" " glyph-name="space" horiz-adv-x="255" />
<glyph unicode="!" glyph-name="exclam" horiz-adv-x="210" d="M52 38Q52 16 68 2T105 -13Q127 -13 142 2T158 40Q158 63 142 77T104 92Q81 92 67 76T52 38ZM64 147L147 146V693Q147 710 134 723T104 736Q87 736 76 724T64 694V147Z" />
<glyph unicode="&quot;" glyph-name="quotedbl" horiz-adv-x="287" d="M50 495H113L133 720H70L50 495ZM154 495H217L237 720H174L154 495Z" />
<glyph unicode="#" glyph-name="numbersign" horiz-adv-x="611" d="M181 269H80Q69 269 59 261T49 241Q49 233 55 227T70 220H171Q170 214 167 197T159 158T149 111T140 65T133 29T130 11Q130 3 135 -2T149 -8Q159 -8 166 -2T175 14L218 222H333Q331 212 324 180T310
111T296 45T290 9Q290 1 296 -3T309 -8Q319 -8 327 -2T337 14L379 219H483Q495 219 504 227T514 249Q514 257 508 263T493 269H390L428 452H531Q542 452 551 459T561 479Q561 487 555 493T541 499H438L483 703H435L391 499H277L322 703H274L229 499H131Q120 499
111 492T101 473Q101 464 106 458T122 452H219L181 269ZM228 269L267 452H381L343 269H228Z" />
<glyph unicode="$" glyph-name="dollar" horiz-adv-x="488" d="M220 74H209Q192 74 174 79T137 92T102 112T74 134L23 72Q34 51 58 36T111 11T169 -3T220 -8V-73L259 -74V-7Q302 -4 341 16T409 67T455 138T472 223Q472 270 453 303T404 361T335 401T259 430V652Q274
649 293 642T331 626T364 612T387 605Q403 605 414 617T425 646Q425 667 405 682T358 708T303 723T258 728Q258 735 259 747T260 770T255 790T238 799Q227 799 223 790T219 769T219 744T220 726Q184 726 151 710T93 667T52 608T37 539Q37 479 70 439T157 376Q173
369 188 364T220 352V74ZM220 649L221 443Q203 450 187 459T158 482T138 511T130 548Q130 566 137 583T157 614T186 637T220 649ZM259 76V340Q281 333 302 323T341 298T369 263T380 217Q380 193 370 169T344 126T305 93T259 76Z" />
<glyph unicode="%" glyph-name="percent" horiz-adv-x="742" d="M39 562Q39 529 49 498T80 443T128 405T193 391Q230 391 259 405T308 444T339 501T350 568Q350 602 340 632T309 685T261 721T196 735Q159 735 130 721T81 684T50 629T39 562ZM182 -4L245 -31Q250
-19 265 18T303 107T352 223T406 351T458 477T502 586T534 666T546 701Q546 715 536 726T510 737Q500 737 492 732T479 716L182 -4ZM390 153Q390 118 400 87T431 33T480 -3T546 -17Q582 -17 611 -4T660 33T692 87T703 153Q703 187 693 218T663 272T615 309T549
323Q513 323 484 310T433 273T401 219T390 153ZM106 563Q106 583 111 604T127 641T154 668T195 679Q218 679 234 669T260 643T276 607T281 567Q281 547 276 526T261 487T234 458T194 446Q171 446 155 457T128 485T112 523T106 563ZM457 153Q457 174 462 195T477
232T505 258T547 268Q572 268 588 258T615 232T629 196T634 154Q634 133 630 112T615 75T589 48T547 38Q523 38 506 48T478 74T462 111T457 153Z" />
<glyph unicode="&amp;" glyph-name="ampersand" horiz-adv-x="682" d="M209 443Q176 426 146 401T93 345T57 277T43 201Q43 152 61 112T111 44T184 -1T273 -17Q340 -17 400 15T500 102L612 -31L674 22L553 167Q560 177 576 197T608 241T637 288T649 326Q649 343
639 355T612 365H607Q595 365 585 356T567 335T551 310T539 287Q530 272 520 258T500 229L336 425Q360 440 383 457T425 495T455 541T467 599Q467 634 453 660T415 703T361 728T299 737Q267 737 237 728T184 700T146 656T131 594Q131 573 138 552T156 512T181 475T209
443ZM285 482Q277 494 265 507T243 534T225 564T217 596Q217 613 224 625T244 646T272 658T302 662Q332 662 357 643T382 591Q382 571 373 555T349 525T317 502T285 482ZM259 384L445 164Q432 143 413 125T372 94T326 72T277 64Q246 64 220 75T174 107T144 154T133
211Q133 240 143 266T171 315T211 355T259 384Z" />
<glyph unicode="&apos;" glyph-name="quotesingle" horiz-adv-x="183" d="M50 495H113L133 720H70L50 495Z" />
<glyph unicode="(" glyph-name="parenleft" horiz-adv-x="204" d="M51 370Q51 355 53 318T61 234T73 137T91 45T115 -24T145 -51Q157 -51 170 -43T183 -20Q183 3 176 26T163 72Q146 145 136 220T126 370Q126 410 131 464T144 573T164 681T189 772L124 784Q96 681
74 579T51 370Z" />
<glyph unicode=")" glyph-name="parenright" horiz-adv-x="204" d="M21 -15Q21 -32 32 -41T59 -51Q76 -51 89 -24T113 47T131 141T144 241T151 326T154 380Q154 486 129 587T74 789L12 773Q22 754 30 724T46 656T59 577T69 497T76 425T78 369Q78 294 68 220T41
72Q36 52 29 29T21 -15Z" />
<glyph unicode="*" glyph-name="asterisk" horiz-adv-x="386" d="M171 594L90 658Q79 665 71 665Q56 665 45 653T33 627Q33 605 52 597L148 556L56 517Q34 507 34 484Q34 470 45 459T70 448Q79 448 93 456T121 476T149 498T169 515L158 394H228L217 515Q224 510
237 499T264 476T293 457T316 448Q331 448 341 459T352 484Q352 507 330 517L238 556L334 597Q343 601 348 609T353 626Q353 641 342 653T315 665Q306 665 296 658L215 594Q218 620 223 649T228 704Q228 718 218 727T193 736Q179 736 169 727T158 704Q158 678 163
649T171 594Z" />
<glyph unicode="+" glyph-name="plus" horiz-adv-x="545" d="M46 377V310H239V134Q239 120 249 111T273 101Q287 101 297 110T307 133V309H478Q492 309 502 319T513 343Q513 357 503 367T479 377H307V550Q307 564 298 574T274 584Q259 584 250 574T240 549V377H46Z" />
<glyph unicode="," glyph-name="comma" horiz-adv-x="186" d="M92 107L6 -73Q2 -81 2 -92Q2 -109 14 -122T44 -135Q56 -135 66 -129T82 -111L170 69L92 107Z" />
<glyph unicode="-" glyph-name="hyphen" horiz-adv-x="360" d="M44 328L45 250H283Q299 250 310 261T321 289Q321 305 310 316T283 328H44Z" />
<glyph unicode="." glyph-name="period" horiz-adv-x="180" d="M37 39Q37 18 53 3T90 -13Q112 -13 127 2T143 39Q143 62 127 77T89 92Q67 92 52 76T37 39Z" />
<glyph unicode="/" glyph-name="slash" horiz-adv-x="407" d="M11 -7L74 -34L379 736Q382 743 382 753Q382 767 373 777T350 787Q339 787 330 779T315 760L11 -7Z" />
<glyph unicode="0" glyph-name="zero" horiz-adv-x="545" d="M37 360Q37 324 41 283T57 200T85 121T129 55T190 9T272 -9Q319 -9 355 8T417 55T460 123T488 204T503 288T508 367Q508 403 503 444T487 525T458 602T414 667T353 712T272 729Q226 729 191 712T129
666T86 599T57 520T42 438T37 360ZM129 360Q129 382 131 412T138 474T154 538T180 595T218 636T272 652Q303 652 326 637T365 596T391 539T406 475T414 412T416 360Q416 337 414 307T407 244T391 180T365 123T325 83T269 67Q223 67 196 100T153 181T134 277T129
360Z" />
<glyph unicode="1" glyph-name="one" horiz-adv-x="545" d="M150 720Q133 720 122 709T110 680Q110 663 121 653T149 642H241V-1L328 0V675Q328 692 317 706T287 720H150Z" />
<glyph unicode="2" glyph-name="two" horiz-adv-x="544" d="M183 79Q216 123 248 166T312 255Q333 284 360 318T411 389T451 465T468 545Q468 585 452 619T410 678T348 716T273 730Q225 730 186 713T117 665T72 595T56 508Q56 486 64 470T99 454Q122 454 133 475Q137
482 137 490Q137 498 139 506Q143 535 151 560T175 605T214 636T270 648Q292 648 311 641T345 619T368 586T377 545Q377 516 360 479T318 404T268 332T226 276L81 78Q75 70 70 60T64 39Q64 19 81 10T116 0H480V79H183Z" />
<glyph unicode="3" glyph-name="three" horiz-adv-x="544" d="M369 387Q408 414 428 456T448 546Q448 584 435 617T397 676T340 715T268 730Q203 730 157 696T92 599Q92 600 93 600T94 599Q99 597 103 596T112 592Q115 590 123 586T141 578T158 571T168 567H169Q177
603 201 626T264 650Q285 650 303 641T333 616T353 582T360 542Q360 501 350 478T325 442T292 424T259 415T233 403T223 379Q223 368 228 358Q236 343 250 340T279 335Q334 327 366 296T398 206Q398 176 388 152T359 110T316 82T262 72Q230 72 210 81T175 106T153
137T136 169T119 193T96 203Q79 203 67 190T55 159Q55 148 58 138T66 116Q78 87 98 64T143 24T198 -1T260 -10Q307 -10 348 6T421 53T471 123T489 212Q489 270 456 318T369 387Z" />
<glyph unicode="4" glyph-name="four" horiz-adv-x="544" d="M361 730Q341 730 324 720T295 692L43 266Q38 258 32 247T26 225Q26 210 31 203T46 191T66 187T88 186H351V-2H433V187Q443 187 457 187Q471 187 484 190T505 201T514 225Q514 241 506 249T485 260T459
264Q445 264 435 264V647Q435 681 416 705T361 730ZM132 264L350 651V264H132Z" />
<glyph unicode="5" glyph-name="five" horiz-adv-x="545" d="M207 720Q178 720 168 712T153 674L115 417Q114 410 113 404T112 391Q112 377 123 367T147 357Q157 357 169 362T195 372T224 383T257 388Q288 388 312 377T353 345T378 299T387 242Q387 212 378 182T352
128T310 88T250 73Q220 73 195 84T149 110T113 135T88 147Q71 147 58 135T45 106Q45 90 57 75T87 47T124 24T156 9Q205 -10 252 -10Q305 -10 347 11T419 67T465 149T481 246Q481 289 468 328T429 398T367 447T285 465Q242 465 203 448L233 642H466L476 720H207Z"
/>
<glyph unicode="6" glyph-name="six" horiz-adv-x="544" d="M193 436Q218 482 240 514T285 575T336 631T399 695Q395 697 385 702T365 715T345 728T334 737Q313 715 289 695T244 652Q207 610 173 563T114 465T73 358T57 245Q57 197 70 151T110 69T176 10T269 -12Q320
-12 360 8T429 62T472 140T487 232Q487 277 474 318T436 392T374 443T288 462Q237 462 193 436ZM270 70Q236 70 213 85T175 123T154 176T147 234Q147 263 153 291T174 341T212 376T270 390Q304 390 328 376T367 338T390 285T397 226Q397 196 390 168T367 119T327
84T270 70Z" />
<glyph unicode="7" glyph-name="seven" horiz-adv-x="545" d="M66 720V640H391L129 48Q126 40 126 32Q126 15 138 3T168 -10Q181 -10 192 -3T208 16L489 661Q493 669 493 680Q493 699 480 709T449 719L66 720Z" />
<glyph unicode="8" glyph-name="eight" horiz-adv-x="545" d="M180 404Q150 395 127 377T88 333T64 278T56 218Q56 170 71 129T115 56T183 6T272 -12Q321 -12 361 6T429 55T473 128T489 218Q489 248 481 278T457 333T418 376T364 404Q404 427 430 469T456 558Q456
597 442 629T403 685T345 721T273 734Q235 734 202 721T143 685T104 630T89 558Q89 508 114 469T180 404ZM273 441Q250 441 231 450T199 475T179 511T172 553Q172 575 179 594T199 628T231 651T272 660Q317 660 345 629T374 554Q374 532 367 512T347 476T315 451T273
441ZM148 220Q148 248 156 274T179 319T218 350T272 362Q301 362 324 351T364 321T389 277T398 224Q398 196 390 169T366 119T327 83T272 69Q242 69 219 82T180 117T156 166T148 220Z" />
<glyph unicode="9" glyph-name="nine" horiz-adv-x="544" d="M351 282Q328 234 297 191T229 110Q228 109 219 100T198 78T177 56T168 43L224 -10Q226 -10 234 -3T252 14T269 32T279 42Q320 85 357 135T424 239T470 353T487 473Q487 521 474 567T434 650T367 708T274
731Q221 731 181 710T113 655T71 575T57 480Q57 436 70 396T109 324T171 274T255 255Q307 255 351 282ZM274 328Q240 328 216 342T177 380T154 432T147 492Q147 522 154 550T177 600T217 635T274 649Q306 649 329 635T368 599T390 548T398 492Q398 462 392 433T372
380T333 343T274 328Z" />
<glyph unicode=":" glyph-name="colon" horiz-adv-x="199" d="M52 39Q52 18 68 3T105 -13Q127 -13 142 2T158 39Q158 62 142 77T104 92Q82 92 67 76T52 39ZM52 378Q52 356 67 341T105 325Q127 325 143 340T159 378Q159 401 143 415T105 430Q83 430 68 415T52 378Z" />
<glyph unicode=";" glyph-name="semicolon" horiz-adv-x="214" d="M68 381Q68 358 83 344T122 329Q144 329 159 345T174 382Q174 404 159 418T122 433Q99 433 84 419T68 381ZM102 98L20 -73Q16 -81 16 -92Q16 -109 28 -122T58 -135Q70 -135 80 -129T96 -111L180
60L102 98Z" />
<glyph unicode="&lt;" glyph-name="less" horiz-adv-x="521" d="M50 360L471 122V193L168 360L471 527V598L50 360Z" />
<glyph unicode="=" glyph-name="equal" horiz-adv-x="544" d="M64 439Q50 439 40 430T29 406Q29 392 39 382T63 372H489V439H64ZM54 313L53 247H479Q493 247 503 256T514 280Q514 294 504 303T479 313H54Z" />
<glyph unicode="&gt;" glyph-name="greater" horiz-adv-x="521" d="M50 122L471 360L50 598V527L353 360L50 193V122Z" />
<glyph unicode="?" glyph-name="question" horiz-adv-x="465" d="M163 36Q163 15 179 1T215 -14Q237 -14 252 0T268 37Q268 60 253 74T215 89Q192 89 178 74T163 36ZM256 354Q294 360 326 376T381 418T416 476T429 549Q429 594 412 629T365 688T297 724T216 736Q171
736 129 720T58 669Q44 652 33 632T22 588Q22 569 32 555T63 540Q86 540 94 555T108 587V589Q124 625 153 639T221 654Q269 654 302 626T335 547Q335 510 323 489T293 455T254 438T215 427T185 415T173 393V146L256 145V354Z" />
<glyph unicode="@" glyph-name="at" horiz-adv-x="770" d="M450 73Q448 54 454 38T473 11T501 -6T536 -13Q584 -13 618 16T675 89T708 181T719 268Q719 335 697 392T635 490T538 555T415 579Q338 579 272 549T158 467T83 347T55 204Q55 133 83 66T159 -54T271
-139T409 -172L408 -132Q391 -132 368 -127T328 -115Q167 -59 123 106Q111 152 111 201Q111 267 133 327T195 433T292 506T418 534Q476 534 522 514T602 458T652 374T670 269Q670 248 667 222T658 169T641 119T616 79T583 46T542 28Q528 28 519 34T505 49T498 70T496
93Q496 122 501 152T511 212Q520 266 530 320T550 429H502L492 370Q484 399 458 416T403 434Q357 434 323 406T267 337T234 249T223 165Q223 136 229 106T250 52T289 12T348 -4Q364 -4 380 2T410 18T434 43T450 73ZM349 35Q326 35 313 45T292 72T282 108T279 146Q279
173 285 214T305 295T344 362T404 391Q421 391 434 384T455 364T468 336T473 306Q473 290 471 264T462 207T446 147T423 91T391 51T349 35Z" />
<glyph unicode="A" glyph-name="A" horiz-adv-x="618" d="M306 728Q281 728 267 712T245 674L15 55Q10 42 10 31Q10 14 21 2T51 -10Q65 -10 76 -2T92 20L143 155H475L538 -10L624 15L373 674Q363 700 350 714T306 728ZM167 231L309 624L450 231H167Z" />
<glyph unicode="B" glyph-name="B" horiz-adv-x="545" d="M64 0H300Q346 0 386 15T455 59T501 127T518 213Q518 247 507 278T475 332T425 371T361 389Q409 408 434 445T460 534Q460 576 445 610T403 669T340 707T263 720H110Q90 720 77 710T64 678V0ZM151 414V642H251Q275
642 296 634T335 610T362 575T372 530Q372 504 361 483T331 446T288 423T240 414H151ZM150 77V345H288Q316 345 341 335T386 307T416 265T428 211Q428 182 417 158T386 115T342 87T288 77H150Z" />
<glyph unicode="C" glyph-name="C" horiz-adv-x="609" d="M37 353Q37 281 58 215T120 99T221 20T358 -10Q403 -10 451 0T538 37Q552 47 566 59T581 92Q581 109 570 122T542 135Q531 135 516 125T480 103T429 81T360 71Q300 71 256 96T184 162T142 255T128 360Q128
411 141 462T181 555T250 623T351 649Q380 649 402 644T444 628T481 603T519 568L569 613Q555 641 532 663T479 700T419 723T357 731Q276 731 216 700T117 616T57 495T37 353Z" />
<glyph unicode="D" glyph-name="D" horiz-adv-x="642" d="M64 42Q64 21 78 11T112 0H291Q371 0 430 30T528 110T586 227T605 368Q605 437 585 500T524 613T427 691T295 720Q292 720 274 720Q257 720 232 720Q207 720 178 720Q150 720 125 720Q100 720 83 720T64
722V42ZM150 78V642H288Q345 642 387 618T456 556T498 468T512 368Q512 314 500 262T461 169T391 103T286 78H150Z" />
<glyph unicode="E" glyph-name="E" horiz-adv-x="447" d="M64 47Q64 27 75 14T108 0H431V79H152V320H350Q367 320 378 331T390 360Q390 377 378 388T349 399H152V641H360Q377 641 389 652T401 681Q401 697 389 708T361 720H109Q98 720 87 720Q76 720 65 722L64 47Z" />
<glyph unicode="F" glyph-name="F" horiz-adv-x="412" d="M64 0H151V319H343Q360 319 372 330T384 359Q384 375 372 386T343 398H153V642H390V721H113Q93 721 79 709T64 676V0Z" />
<glyph unicode="G" glyph-name="G" horiz-adv-x="688" d="M571 331Q571 283 560 236T525 152T462 91T368 68Q304 68 259 92T185 156T143 250T129 360Q129 413 142 465T184 559T257 627T361 653Q394 653 417 647T461 631T502 606T547 576L597 640Q549 675 494 701T378
728Q295 728 232 699T125 620T60 501T37 354Q37 277 59 211T123 95T227 18T370 -10Q443 -10 497 18T588 92T641 200T659 329Q659 369 646 390T590 411H445Q428 411 416 399T403 370Q403 353 415 342T444 331H571Z" />
<glyph unicode="H" glyph-name="H" horiz-adv-x="684" d="M64 0L150 -1V331H533V33Q533 16 545 4T575 -9Q593 -9 606 3T620 34V721H533V407H150V684Q150 702 138 715T108 728Q90 728 77 715T64 684V0Z" />
<glyph unicode="I" glyph-name="I" horiz-adv-x="214" d="M64 0H150V684Q150 702 138 715T108 728Q90 728 77 715T64 684V0ZM70 790Q70 776 81 766T106 755Q121 755 131 765T142 791Q142 806 131 816T106 826Q90 826 80 816T70 790Z" />
<glyph unicode="J" glyph-name="J" horiz-adv-x="367" d="M260 729Q242 729 230 717T217 686V172Q217 149 212 129T196 94T167 70T124 61Q111 61 100 64T79 73T59 84T37 94L12 22Q39 7 68 -2T130 -11Q172 -11 204 4T258 46T291 107T303 182V685Q303 703 291 716T260 729Z" />
<glyph unicode="K" glyph-name="K" horiz-adv-x="568" d="M64 0H151V345L495 6Q510 -9 531 -9Q547 -9 559 2T571 30Q571 49 556 64L231 381L542 671L480 727L150 416V686Q150 705 137 717T106 729Q89 729 77 716T64 686V0Z" />
<glyph unicode="L" glyph-name="L" horiz-adv-x="381" d="M64 50Q64 30 74 15T108 -1L371 0L370 80H150V685Q150 703 138 716T108 729Q89 729 77 716T64 684V50Z" />
<glyph unicode="M" glyph-name="M" horiz-adv-x="854" d="M208 728Q183 728 165 714T141 674L36 47Q35 42 35 32Q35 14 47 3T77 -8Q96 -8 107 3T122 32L209 618L384 24H470L646 618L737 -5L823 10L713 674Q709 699 690 713T646 728Q621 728 606 714T583 677L427
142L272 677Q265 700 249 714T208 728Z" />
<glyph unicode="N" glyph-name="N" horiz-adv-x="680" d="M64 1L150 0V572L537 9Q550 -10 573 -10Q591 -10 603 2T616 33V684Q616 702 604 715T572 729Q555 729 543 715T530 684L531 148L144 710Q131 729 108 729Q90 729 77 716T64 685V1Z" />
<glyph unicode="O" glyph-name="O" horiz-adv-x="702" d="M37 361Q37 290 57 224T116 106T215 23T351 -9Q428 -9 486 22T585 105T645 223T665 360Q665 430 645 496T586 614T488 697T352 729Q275 729 216 698T117 616T57 499T37 361ZM132 360Q132 410 143 462T180
556T247 626T348 653Q411 653 453 626T522 556T560 459T571 351Q571 299 559 248T519 157T450 91T348 66Q289 66 248 93T181 162T144 257T132 360Z" />
<glyph unicode="P" glyph-name="P" horiz-adv-x="537" d="M64 35Q64 17 77 4T108 -9Q126 -9 138 4T150 35V270H287Q335 270 377 286T451 332T501 403T519 494Q519 519 515 539Q506 581 485 614T434 671T366 707T286 720Q231 720 175 718T64 722V35ZM152 348V643H283Q314
643 341 632T388 600T420 553T432 495Q432 465 421 438T389 391T341 360T284 348H152Z" />
<glyph unicode="Q" glyph-name="Q" horiz-adv-x="703" d="M603 133Q638 186 651 241T665 360Q665 430 645 496T585 614T487 697T352 729Q275 729 216 698T117 616T57 499T37 361Q37 290 57 224T117 105T216 22T352 -9Q409 -9 461 11T553 73L655 -29L709 28L603
133ZM540 196Q533 203 522 215T497 240T471 262T448 272Q432 272 421 261T409 233Q409 221 419 207T442 179T470 153T492 132Q466 100 430 83T351 66Q289 66 247 93T179 164T142 261T131 368Q131 418 143 468T181 560T249 627T348 653Q408 653 450 628T519 562T558
470T571 366Q571 321 564 280T540 196Z" />
<glyph unicode="R" glyph-name="R" horiz-adv-x="533" d="M64 35Q64 17 76 4T108 -10Q125 -10 138 3T151 33V318L459 -24L524 30L252 319Q260 317 267 317Q274 317 281 317Q325 317 365 329T435 365T483 424T501 507Q501 555 484 594T437 661T367 704T279 720Q225
720 172 719T64 722V35ZM151 387V640H276Q303 640 328 630T371 603T401 561T412 509Q412 483 402 461T376 423T337 397T289 387H151Z" />
<glyph unicode="S" glyph-name="S" horiz-adv-x="488" d="M25 140L0 55Q22 47 54 36T120 15T186 -2T240 -9Q286 -9 328 9T402 59T453 132T472 221Q472 259 457 289T418 343T363 384T300 414Q276 423 246 433T191 457T148 493T130 548Q130 571 141 590T170 622T209
642T252 649Q276 649 295 642T331 627T360 612T387 605Q403 605 414 617T425 646Q425 667 405 683T356 709T299 724T254 729Q213 729 174 716T105 677T56 617T37 537Q37 480 62 447T126 392T208 358T291 328T354 287T380 220Q380 189 369 162T337 115T290 83T232
71Q199 71 173 81T117 103Q113 104 99 110T68 122T39 133T25 140Z" />
<glyph unicode="T" glyph-name="T" horiz-adv-x="440" d="M16 720V641H175V36Q175 19 188 6T219 -8Q237 -8 249 5T261 36V641H401Q417 641 429 652T442 680Q442 697 431 708T402 720H16Z" />
<glyph unicode="U" glyph-name="U" horiz-adv-x="683" d="M64 255Q64 194 85 145T143 62T231 9T341 -10Q401 -10 451 8T539 61T598 145T619 255V683Q619 701 606 714T576 727Q557 727 545 714T533 683V254Q533 211 519 176T480 117T420 79T342 65Q299 65 264 78T203
116T164 176T150 254V723H64V255Z" />
<glyph unicode="V" glyph-name="V" horiz-adv-x="568" d="M78 730L-3 700L238 34Q245 15 253 4T284 -8Q306 -8 314 3T330 34L556 664Q558 669 559 674T560 686Q560 703 548 715T517 728Q501 728 491 718T476 694L285 139L78 730Z" />
<glyph unicode="W" glyph-name="W" horiz-adv-x="833" d="M15 713L134 44Q139 18 156 5T200 -9Q223 -9 240 2T264 36L416 583L569 36Q575 14 592 3T633 -9Q659 -9 676 4T698 44L811 672Q812 676 812 685Q812 705 800 717T767 729Q749 729 739 717T725 687L629
102L460 694H373L204 102L100 728L15 713Z" />
<glyph unicode="X" glyph-name="X" horiz-adv-x="599" d="M248 386L20 61Q10 46 10 32Q10 15 23 3T53 -9Q64 -9 74 -3T90 13L299 317L509 13Q515 4 525 -2T546 -9Q563 -9 575 2T588 31Q588 46 578 61L350 386L544 660Q548 666 551 672T554 686Q554 703 541 715T510
728Q498 728 489 721T472 704L299 451L111 728L38 684L248 386Z" />
<glyph unicode="Y" glyph-name="Y" horiz-adv-x="506" d="M71 733L-1 687Q1 684 1 681T4 674L209 338V36Q209 17 221 4T253 -9Q272 -9 284 4T297 36V338L495 663Q499 669 501 674T503 688Q503 705 491 716T461 727Q435 727 422 705L253 425L71 733Z" />
<glyph unicode="Z" glyph-name="Z" horiz-adv-x="576" d="M416 644L42 80Q32 65 32 49Q32 20 53 10T99 0H503Q520 0 534 11T548 39Q548 56 534 67T503 78H139L516 644Q522 653 527 663T533 685Q533 699 524 706T502 717T475 720Q461 720 451 720H45V644H416Z" />
<glyph unicode="[" glyph-name="bracketleft" horiz-adv-x="229" d="M52 -3Q52 -18 62 -30T89 -43H170Q185 -43 196 -32T207 -6Q207 9 200 16T182 27T158 30Q146 30 136 30V690H190V763H89Q73 763 63 751T52 723V-3Z" />
<glyph unicode="\" glyph-name="backslash" horiz-adv-x="289" d="M50 720L176 0H239L113 720H50Z" />
<glyph unicode="]" glyph-name="bracketright" horiz-adv-x="229" d="M196 723Q196 738 186 750T159 763H78Q63 763 52 752T41 726Q41 711 48 704T66 693T89 690Q102 690 112 690V30H58V-43H159Q175 -43 185 -31T196 -3V723Z" />
<glyph unicode="^" glyph-name="asciicircum" horiz-adv-x="577" d="M50 174H122L288 477L455 174H527L288 595L50 174Z" />
<glyph unicode="_" glyph-name="underscore" horiz-adv-x="460" d="M50 -217H410V-190H50V-217Z" />
<glyph unicode="`" glyph-name="grave" horiz-adv-x="220" d="M224 641L53 708Q45 711 36 711Q19 711 8 701T-3 673Q-3 659 4 649T24 634L196 567L224 641Z" />
<glyph unicode="a" glyph-name="a" horiz-adv-x="567" d="M419 471Q391 506 352 524T268 542Q212 542 169 518T97 456T52 368T36 268Q36 216 51 167T95 78T167 15T268 -9Q315 -9 354 11T418 73V-4H503V500Q503 516 492 529T463 542Q445 542 436 536T424 519T420
497T419 471ZM126 269Q126 304 134 339T161 404T208 451T278 469Q320 469 347 452T391 407T414 344T421 275Q421 237 415 200T393 132T347 83T273 64Q232 64 204 83T158 131T134 197T126 269Z" />
<glyph unicode="b" glyph-name="b" horiz-adv-x="565" d="M64 33Q64 16 76 3T107 -11Q124 -11 132 -3T144 17T147 42Q147 56 147 68Q172 29 211 9T297 -11Q356 -11 399 13T471 76T514 166T528 270Q528 319 514 368T471 455T400 518T303 542Q258 542 218 522T150
466V765H64V33ZM147 264Q147 299 153 335T176 400T221 447T292 466Q333 466 361 448T406 401T431 337T439 267Q439 234 432 198T408 133T364 85T297 66Q253 66 225 83T179 128T154 191T147 264Z" />
<glyph unicode="c" glyph-name="c" horiz-adv-x="450" d="M37 265Q37 211 52 162T98 75T174 15T277 -8Q293 -8 317 -5T365 6T404 27T421 63Q421 78 410 89T382 101Q373 101 361 96T335 86T306 75T276 70Q238 70 211 89T165 137T137 201T128 269Q128 304 137 339T164
401T212 446T282 464Q312 464 341 451T396 424L437 494Q417 505 399 514T363 529T326 538T282 542Q223 542 178 520T101 459T53 370T37 265Z" />
<glyph unicode="d" glyph-name="d" horiz-adv-x="568" d="M419 461Q396 501 357 521T272 542Q215 542 171 519T98 456T53 367T37 265Q37 217 52 168T95 80T166 17T262 -8Q310 -8 351 13T418 76Q418 63 418 48Q418 33 421 21T434 0T462 -9Q479 -9 491 3T504 33V765H419V461ZM271
71Q231 71 204 89T159 136T134 200T126 269Q126 303 134 337T161 400T208 445T276 463Q320 463 348 444T391 394T413 327T419 255Q419 220 411 187T384 129T338 87T271 71Z" />
<glyph unicode="e" glyph-name="e" horiz-adv-x="538" d="M131 233H455Q482 233 495 242T508 280Q508 329 492 376T447 459T375 518T279 541Q223 541 179 518T103 457T54 370T37 268Q37 212 53 162T102 73T180 13T286 -10Q323 -10 353 -2T418 21L399 88Q373 80
345 74T289 67Q255 67 226 80T176 116T143 169T131 233ZM129 299Q133 330 143 361T170 416T213 455T277 470Q310 470 336 455T380 415T408 360T419 299H129Z" />
<glyph unicode="f" glyph-name="f" horiz-adv-x="253" d="M83 534Q72 534 58 534T31 533T9 523T0 498Q0 480 8 472T29 460T56 458T84 459V-213H169V459Q179 459 196 458T230 458T259 469T271 496Q271 515 259 523T231 534T197 535T169 534V672Q169 689 181 695T208
702Q218 702 230 702Q243 702 253 705T270 716T277 740Q277 760 261 769T227 779H189Q140 779 112 747T83 667V534Z" />
<glyph unicode="g" glyph-name="g" horiz-adv-x="565" d="M420 463Q394 501 353 521T267 541Q209 541 166 516T95 449T52 357T37 255Q37 204 51 156T95 70T166 9T264 -14Q312 -14 352 6T418 68Q419 63 419 57Q419 52 419 47Q419 7 410 -28T381 -90T330 -132T253
-148Q220 -148 189 -139Q187 -157 186 -175T184 -213Q184 -213 184 -216Q184 -219 185 -219Q200 -224 216 -225T249 -226Q302 -226 348 -207T428 -155T481 -76T501 23V499Q501 515 490 528T461 542Q443 542 435 535T423 516T419 490T420 463ZM280 64Q237 64 208
82T160 129T134 194T126 267Q126 302 134 337T161 401T208 446T278 464Q313 464 345 446Q371 431 386 410T408 365T417 313T419 258Q419 226 412 192T388 130T345 83T280 64Z" />
<glyph unicode="h" glyph-name="h" horiz-adv-x="548" d="M64 -2H148V340Q148 366 158 389T185 429T225 457T274 467Q300 467 323 457T363 429T390 388T400 338V31Q400 14 412 2T441 -11Q459 -11 471 1T484 32V338Q484 381 471 418T432 482T372 525T291 541Q249
541 211 523T149 471V734Q149 751 137 764T107 777Q89 777 77 764T64 733V-2Z" />
<glyph unicode="i" glyph-name="i" horiz-adv-x="214" d="M65 -1H149V500Q149 516 138 529T109 542Q91 542 78 531T65 500V-1ZM70 660Q70 646 81 636T106 625Q121 625 131 635T142 661Q142 676 131 686T106 696Q90 696 80 686T70 660Z" />
<glyph unicode="j" glyph-name="j" horiz-adv-x="212" d="M64 -212H148V500Q148 517 136 530T105 544Q86 544 75 531T64 499V-212ZM70 660Q70 646 81 636T106 625Q121 625 131 635T142 661Q142 676 131 686T106 696Q90 696 80 686T70 660Z" />
<glyph unicode="k" glyph-name="k" horiz-adv-x="465" d="M64 1L148 0V256L406 -8L471 43L207 305L416 468Q424 474 429 483T435 503Q435 517 424 529T397 542Q387 542 379 537T362 526L149 350V736Q149 754 137 767T107 780Q89 780 77 767T64 737V1Z" />
<glyph unicode="l" glyph-name="l" horiz-adv-x="212" d="M64 -2L148 -1V736Q148 754 136 767T106 780Q88 780 76 767T64 736V-2Z" />
<glyph unicode="m" glyph-name="m" horiz-adv-x="846" d="M64 0H149V353Q149 377 158 398T183 435T220 460T265 469Q289 469 310 460T348 435T373 398T383 352V0H466V352Q466 376 475 397T500 434T537 459T583 469Q607 469 628 460T664 435T689 398T698 352V34Q698
17 710 4T740 -9Q758 -9 770 4T782 34V355Q782 442 731 491T593 541Q542 541 499 518T431 450Q411 495 370 519T280 543Q242 543 206 526T147 477Q147 488 147 499T142 520T130 536T107 542Q90 542 77 529T64 499V0Z" />
<glyph unicode="n" glyph-name="n" horiz-adv-x="548" d="M64 -1H148V340Q148 366 157 389T184 429T224 457T273 467Q299 467 322 457T362 429T390 388T400 338V31Q400 14 412 2T441 -11Q459 -11 471 1T484 32V339Q484 383 471 420T432 484T370 526T289 541Q248
541 210 523T148 471Q148 482 148 495Q148 508 145 518T133 536T108 543Q90 543 77 531T64 500V-1Z" />
<glyph unicode="o" glyph-name="o" horiz-adv-x="547" d="M37 268Q37 216 52 166T98 77T173 13T274 -11Q330 -11 374 13T448 76T493 166T509 267Q509 319 493 368T447 456T373 518T273 542Q217 542 173 519T99 457T53 369T37 268ZM127 267Q127 300 135 335T160
399T205 448T272 467Q312 467 340 449T386 402T412 338T420 268Q420 233 412 197T387 132T341 84T271 65Q232 65 205 84T160 133T135 198T127 267Z" />
<glyph unicode="p" glyph-name="p" horiz-adv-x="566" d="M64 -212H148V66Q174 29 214 10T300 -10Q357 -10 400 15T471 80T514 170T529 272Q529 321 514 370T471 457T400 519T303 543Q256 543 215 522T147 461Q147 474 147 488T145 515T132 534T104 542Q87 542
76 528T64 498V-212ZM144 262Q144 290 146 317T157 368T182 413T225 449Q260 468 295 468Q334 468 362 449T407 399T432 334T440 265Q440 231 432 196T405 132T359 85T291 67Q251 67 223 84T178 130T152 192T144 262Z" />
<glyph unicode="q" glyph-name="q" horiz-adv-x="567" d="M418 464Q392 502 351 522T264 542Q208 542 166 518T95 454T52 365T37 265Q37 215 52 167T96 79T168 16T265 -8Q311 -8 351 12T418 69V-212H503V499Q503 516 491 529T462 542Q443 542 434 535T422 517T418
491Q418 477 418 464ZM126 270Q126 304 134 339T159 403T204 449T273 467Q300 467 325 457T370 427Q388 410 398 390T413 347T419 302T421 255Q421 220 413 187T387 127T341 84T272 67Q232 67 204 86T159 134T134 200T126 270Z" />
<glyph unicode="r" glyph-name="r" horiz-adv-x="273" d="M64 -2L149 -1V275Q149 326 160 357T187 408T222 437T258 454T285 471T296 497Q296 517 282 530T247 543Q230 543 214 535T185 513T162 483T147 452Q148 465 149 477T150 503Q150 520 136 530T107 540Q90
540 77 528T64 498V-2Z" />
<glyph unicode="s" glyph-name="s" horiz-adv-x="446" d="M23 76Q39 56 62 40T112 14T166 -2T220 -8Q254 -8 289 1T352 30T399 79T417 147Q417 189 396 218T343 268T274 303T205 331T152 359T130 396Q130 414 138 427T159 450T188 463T221 467Q247 467 269 459T309
441T341 423T366 415Q383 415 393 427T404 454Q404 477 383 493T332 521T272 537T224 542Q192 542 160 533T102 505T60 459T43 396Q43 356 64 330T117 285T186 253T255 226T308 193T330 147Q330 127 320 113T295 88T262 72T226 67Q200 67 181 72T146 86T113 107T77
133L23 76Z" />
<glyph unicode="t" glyph-name="t" horiz-adv-x="248" d="M84 534Q73 534 59 534T33 532T12 521T3 496Q3 479 12 471T33 461T60 458T85 459V0H169V459Q179 459 194 459T222 460T244 471T254 496Q254 514 245 522T222 532T193 535T168 534L169 654Q169 671 157
685T126 700Q107 700 96 686T84 654V534Z" />
<glyph unicode="u" glyph-name="u" horiz-adv-x="550" d="M64 198Q64 96 119 44T275 -9Q376 -9 431 43T486 198V498Q486 516 474 529T444 542Q427 542 415 529T402 499V200Q402 137 372 102T275 66Q209 66 179 101T149 200V523L64 522V198Z" />
<glyph unicode="v" glyph-name="v" horiz-adv-x="433" d="M79 541L-1 515L173 24Q179 7 189 -1T218 -9Q234 -9 245 0T261 24Q265 37 279 75T311 164T350 271T386 375T414 458T425 498Q425 515 412 528T382 541Q367 541 358 533T343 510L218 134L79 541Z" />
<glyph unicode="w" glyph-name="w" horiz-adv-x="761" d="M3 514L163 37Q169 18 180 5T214 -9Q235 -9 246 3T263 34L381 403L498 34Q504 16 515 4T547 -9Q570 -9 580 4T598 37L750 484Q753 491 753 500Q753 518 740 530T709 542Q695 542 684 534T667 511L546 127L428
499H334L215 127L86 541L3 514Z" />
<glyph unicode="x" glyph-name="x" horiz-adv-x="476" d="M186 284L20 62Q10 49 10 32Q10 15 22 4T51 -8Q63 -8 73 -2T90 15L238 220L386 15Q393 5 403 -1T425 -8Q442 -8 454 3T466 32Q466 49 456 62L290 284L435 473Q445 486 445 502Q445 518 433 530T404 542Q392
542 382 535T365 518L238 347L93 541L23 496L186 284Z" />
<glyph unicode="y" glyph-name="y" horiz-adv-x="433" d="M2 508L174 17Q169 5 158 -24T134 -84T113 -144T103 -181Q103 -199 116 -210T146 -221Q163 -221 172 -210T187 -184Q191 -172 203 -137T233 -53T272 55T314 173T355 290T390 392T415 466T424 501Q424 518
411 530T381 542Q365 542 355 532T340 507L218 133L84 534L2 508Z" />
<glyph unicode="z" glyph-name="z" horiz-adv-x="451" d="M303 457L35 62Q27 49 27 37Q27 20 38 10T66 0H389Q406 0 419 10T433 39Q433 56 420 66T389 77H144L413 473Q417 478 419 484T422 498Q422 515 411 524T383 534H38V457H303Z" />
<glyph unicode="{" glyph-name="braceleft" horiz-adv-x="321" d="M50 360Q79 357 95 338T112 289V-46Q112 -81 135 -96T190 -112H254V-75Q234 -75 221 -74T199 -66T188 -48T184 -14V282Q184 311 166 334T117 360Q147 363 165 386T184 438V734Q184 773 197 784T227
795T257 796T271 811Q271 819 267 825T254 832H190Q158 832 135 817T112 766V431Q112 403 96 383T50 360Z" />
<glyph unicode="|" glyph-name="bar" horiz-adv-x="163" d="M50 0H113V720H50V0Z" />
<glyph unicode="}" glyph-name="braceright" horiz-adv-x="321" d="M67 832Q59 832 55 827T50 814Q50 801 56 798T72 795Q82 795 93 795Q105 795 114 791T130 773T137 734V438Q137 409 156 386T205 360Q175 357 156 335T137 282V-14Q137 -36 134 -48T122 -66T101
-73T67 -75V-112H132Q164 -112 186 -97T209 -46V289Q209 318 225 337T271 360Q242 362 226 382T209 431V766Q209 801 187 816T132 832H67Z" />
<glyph unicode="~" glyph-name="asciitilde" horiz-adv-x="459" d="M50 292H100Q101 310 108 329T138 348Q161 348 183 340T227 321T272 302T319 293Q343 293 360 303T388 329T404 365T409 407V418H359Q358 399 350 381T320 362Q297 362 276 370T232 389T187 409T140
418Q116 418 99 408T71 382T55 345T50 303V292Z" />
<glyph unicode="&#xa1;" glyph-name="exclamdown" horiz-adv-x="210" d="M52 684Q52 661 66 646T104 630Q127 630 142 644T158 682Q158 704 143 719T105 735Q84 735 68 721T52 684ZM64 28Q64 11 75 -1T104 -14Q121 -14 134 -1T147 29V523L64 522V28Z" />
<glyph unicode="&#xa2;" glyph-name="cent" horiz-adv-x="450" d="M230 538Q184 530 148 504T87 440T49 357T36 269Q36 224 48 179T84 95T144 30T230 -3Q230 -13 229 -22T228 -42Q228 -47 228 -54T231 -69T237 -80T249 -85Q256 -85 260 -81T266 -70T268 -56T269
-44Q269 -34 268 -25T267 -7Q280 -8 300 -3T341 9T383 25T415 39L384 101L319 77Q318 77 306 75T290 73Q284 73 278 73Q272 73 267 75V463Q272 464 277 464T287 465Q308 465 327 457T366 440H367Q372 438 376 437T385 436Q401 436 412 449T424 478Q424 496 408
508T371 529T327 540T291 544Q285 544 279 544Q273 544 267 543Q267 553 268 563T269 583Q269 588 269 595T266 608T260 619T249 624Q241 624 237 620T231 609T228 595T227 582Q227 571 228 560T230 538ZM230 455V84Q172 112 151 163T129 275Q129 301 134 329T152
382T183 426T230 455Z" />
<glyph unicode="&#xa3;" glyph-name="sterling" horiz-adv-x="596" d="M152 400H71Q54 400 42 389T29 360Q29 343 41 332T71 321H175Q182 296 182 266Q182 221 164 186T125 123T85 76T67 42Q67 25 80 13T110 0H556L555 80H183Q202 96 218 117T245 163T263 214T270
265Q270 280 268 293T263 322H400V401H243Q235 416 226 433T210 469T197 505T192 541Q192 568 202 589T230 624T271 646T319 654Q410 654 456 572Q462 561 466 549T477 528Q488 512 508 512Q528 512 540 525T552 559Q552 586 535 613T501 661Q467 700 418 719T317
738Q276 738 238 726T169 691T121 634T103 556Q103 512 117 475T152 400Z" />
<glyph unicode="&#xa5;" glyph-name="yen" horiz-adv-x="578" d="M289 425L120 705Q114 716 103 721T80 727Q64 727 52 716T39 688Q39 675 46 663L199 411L74 410L73 362L229 363L243 338L245 318H73V269L244 270L245 -2H333L331 270L493 271Q503 271 510 278T518
295Q518 306 511 312T493 319H331V338L346 363L492 364Q503 364 510 370T518 388Q518 399 511 405T492 412H378L531 663Q535 669 537 674T539 688Q539 705 527 716T497 727Q471 727 458 705L289 425Z" />
<glyph unicode="&#xa7;" glyph-name="section" horiz-adv-x="571" d="M137 454Q116 442 97 423T63 382T40 334T31 284Q31 224 57 185T124 119T211 73T298 35T364 -7T391 -65Q391 -90 378 -105T346 -129T304 -141T262 -144Q221 -144 198 -135T163 -112T147 -83T139
-53T129 -30T105 -21Q83 -21 71 -36T59 -72Q59 -112 78 -140T128 -187T194 -215T265 -224Q304 -224 342 -216T411 -188T461 -137T480 -60Q480 -24 463 8T416 61Q441 71 463 88T502 128T528 176T538 230Q538 284 511 321T442 386T352 433T262 473T193 518T165 578Q165
601 177 616T207 641T246 655T286 659Q325 659 349 653T391 634T424 601T460 550L523 592Q499 631 479 658T435 703T379 729T298 737Q258 737 219 730T147 704T95 654T75 575Q75 540 91 507T137 454ZM204 412L360 335Q377 327 393 317T423 293T444 262T452 224Q452
201 441 183T412 149T374 123T334 106L205 171Q189 179 173 189T142 213T119 243T110 280Q110 300 118 319T140 356T170 388T204 412Z" />
<glyph unicode="&#xa8;" glyph-name="dieresis" horiz-adv-x="239" d="M-29 631Q-29 608 -13 594T25 579Q47 579 62 595T77 632Q77 653 62 668T25 684Q2 684 -13 669T-29 631ZM163 631Q163 611 178 595T214 579Q237 579 252 593T268 631Q268 654 253 669T214 684Q192
684 178 668T163 631Z" />
<glyph unicode="&#xa9;" glyph-name="copyright" horiz-adv-x="858" d="M56 361Q56 284 85 216T165 98T284 18T429 -12Q506 -12 574 17T692 97T772 216T802 361Q802 438 773 506T693 624T574 704T429 734Q352 734 284 705T166 625T86 506T56 361ZM103 361Q103
429 128 489T197 594T300 665T429 692Q497 692 556 666T660 594T730 489T756 361Q756 293 731 233T661 128T557 57T429 30Q360 30 301 56T197 128T128 233T103 361ZM241 355Q241 310 254 269T293 197T356 148T442 130Q455 130 478 132T524 142T563 163T580 196Q580
207 573 215T555 223Q547 223 537 217T514 205T483 192T442 186Q406 186 380 201T337 240T312 295T303 358Q303 388 311 419T335 475T378 516T439 532Q461 532 477 526T505 513T527 500T547 494Q557 494 564 502T571 520Q571 539 556 552T520 573T477 584T442 588Q392
588 354 569T291 518T254 444T241 355Z" />
<glyph unicode="&#xaa;" glyph-name="ordfeminine" horiz-adv-x="436" d="M77 322L76 276H363Q372 276 379 282T386 298Q386 308 380 315T363 322H77ZM310 685Q292 708 266 720T211 732Q173 732 144 716T95 674T65 614T55 546Q55 512 65 479T94 420T142 377T209
361Q239 361 266 375T310 415V371L372 370V700Q372 712 364 722T342 732Q318 732 314 718T310 685ZM119 548Q119 570 124 593T142 635T172 665T217 677Q244 677 262 666T291 636T306 596T311 551Q311 527 307 503T293 460T263 428T215 416Q188 416 170 428T141
460T124 502T119 548Z" />
<glyph unicode="&#xab;" glyph-name="guillemotleft" horiz-adv-x="407" d="M179 472Q167 472 157 465T140 448L51 296Q47 290 43 283T39 268Q39 263 47 246T69 205T97 157T126 109T148 72T159 55L222 92L116 266L204 409Q212 422 212 436Q212 450 203 461T179
472ZM334 472Q322 472 312 465T295 448L205 296Q201 290 197 283T193 268Q193 263 201 246T223 205T251 157T280 109T302 72T313 55L377 92L270 266L359 409Q367 422 367 436Q367 450 358 461T334 472Z" />
<glyph unicode="&#xac;" glyph-name="logicalnot" horiz-adv-x="568" d="M50 360H464V216H518V423H50V360Z" />
<glyph unicode="&#xae;" glyph-name="registered" horiz-adv-x="858" d="M56 361Q56 284 85 216T165 98T284 18T429 -12Q506 -12 574 17T692 97T772 216T802 361Q802 438 773 506T693 624T574 704T429 734Q352 734 284 705T166 625T86 506T56 361ZM103 361Q103
429 128 489T197 594T300 665T429 692Q497 692 556 666T660 594T730 489T756 361Q756 293 731 233T661 128T557 57T429 30Q360 30 301 56T197 128T128 233T103 361ZM301 165Q301 153 310 144T331 135Q343 135 352 143T361 164V335L530 146Q539 135 553 135Q564
135 573 143T582 164Q582 175 574 183L429 336Q457 332 483 338T531 360T564 399T577 453Q577 483 566 507T537 549T493 576T438 586H332Q319 586 310 577T301 555V165ZM361 381V531H436Q451 531 465 526T491 510T509 487T516 457Q516 425 496 403T443 381H361Z"
/>
<glyph unicode="&#xaf;" glyph-name="overscore" horiz-adv-x="291" d="M40 666Q23 666 12 655T0 626Q0 609 12 598T41 587L251 586Q268 586 280 597T293 626Q293 643 281 654T252 666H40Z" />
<glyph unicode="&#xb0;" glyph-name="degree" horiz-adv-x="366" d="M50 601Q50 574 60 550T89 507T131 479T183 468Q210 468 234 478T277 507T305 549T316 601Q316 629 306 653T277 695T235 723T183 734Q156 734 132 724T89 695T61 653T50 601ZM93 601Q93 639
119 665T183 691Q221 691 247 665T273 601Q273 563 247 537T183 511Q145 511 119 537T93 601Z" />
<glyph unicode="&#xb1;" glyph-name="plusminus" horiz-adv-x="618" d="M506 87H44V19H506V87ZM309 453H241V331H44V263H241V141H309V263H506V331H309V453Z" />
<glyph unicode="&#xb4;" glyph-name="acute" horiz-adv-x="224" d="M196 719L28 653Q16 648 9 638T1 614Q1 597 13 586T42 575Q51 575 76 584T130 605T186 628T224 644L196 719Z" />
<glyph unicode="&#xb5;" glyph-name="mu" horiz-adv-x="604" d="M166 449H74V201Q74 152 75 104T77 8Q77 -28 75 -64T73 -137Q73 -149 74 -161T79 -184T92 -202T116 -209Q136 -209 147 -198T158 -167Q158 -152 148 -127T126 -72T104 -7T94 62Q94 70 94 78T95 94Q106
49 132 20T208 -9Q245 -9 271 6T315 46T346 102T366 163Q366 137 369 107T383 52T414 9T468 -9Q493 -9 510 1T538 27T553 65T558 108Q558 113 558 119T557 130H536Q536 119 536 103T531 71T518 45T493 34Q479 34 471 44T460 68T456 96T455 121V449H363Q363 408
364 365T362 279T351 195T325 114Q318 99 309 85T289 60T263 41T230 34Q205 34 192 45T173 75T167 114T166 153V449Z" />
<glyph unicode="&#xb6;" glyph-name="paragraph" horiz-adv-x="611" d="M434 -212L490 -211L491 668Q499 668 511 668T534 668T553 675T561 694Q561 705 553 712T534 720H244Q203 720 168 705T107 663T65 600T50 524Q50 483 65 448T106 386T168 344T244 328H313V-211H368L369
667L435 668L434 -212Z" />
<glyph unicode="&#xb7;" glyph-name="middot" horiz-adv-x="214" d="M54 241T54 262T69 299T106 315T144 300T160 262Q160 241 145 226T107 210Q86 210 70 225Z" />
<glyph unicode="&#xb8;" glyph-name="cedilla" horiz-adv-x="162" d="M85 30L30 -69Q18 -90 18 -116Q18 -130 28 -141T53 -152Q63 -152 72 -146T86 -131L162 30H85Z" />
<glyph unicode="&#xba;" glyph-name="ordmasculine" horiz-adv-x="427" d="M75 323V276H353Q363 276 370 283T377 300Q377 310 370 316T353 323H75ZM54 548Q54 513 65 479T96 419T147 376T215 360Q252 360 282 375T333 417T365 475T376 543Q376 578 366 612T335
672T285 715T216 732Q178 732 148 717T97 676T65 617T54 548ZM120 547Q120 568 125 591T141 633T170 664T213 676Q240 676 259 664T289 631T305 587T310 540Q310 518 305 496T287 456T257 427T213 416Q187 416 170 428T141 460T125 502T120 547Z" />
<glyph unicode="&#xbb;" glyph-name="guillemotright" horiz-adv-x="407" d="M88 482L25 444L136 265L48 122Q40 109 40 95Q40 80 49 70T73 59Q85 59 95 66T112 83L201 234Q205 240 209 247T213 262Q213 267 204 285T182 327T152 377T122 426T99 464T88 482ZM243
482L179 444L291 265L203 122Q195 109 195 95Q195 80 203 70T228 59Q240 59 250 65T267 83L356 234Q360 240 364 247T368 262Q368 267 359 285T337 327T307 377T277 426T254 464T243 482Z" />
<glyph unicode="&#xbf;" glyph-name="questiondown" horiz-adv-x="464" d="M165 685Q165 663 179 647T217 631Q239 631 254 646T270 683Q270 706 255 720T217 735Q197 735 181 721T165 685ZM175 523V328Q175 313 187 306T217 294T256 284T295 266T325 232T337
174Q337 124 304 96T223 67Q188 67 167 75T134 96T115 124T103 151T89 172T66 181Q46 181 35 167T24 133Q24 110 35 90T60 52Q89 17 131 1T218 -15Q260 -15 299 -3T367 33T413 92T431 172Q431 211 418 244T382 302T328 344T258 367V523H175Z" />
<glyph unicode="&#xc0;" glyph-name="Agrave" horiz-adv-x="618" d="M420 800Q420 813 413 823T393 839Q382 843 360 852T313 872T266 889T235 897Q218 897 207 887T196 859Q196 845 203 835T223 820Q233 816 255 807T303 787T349 770T380 762Q397 762 408 772T420
800ZM306 728Q281 728 267 712T245 674L15 55Q10 42 10 31Q10 14 21 2T51 -10Q65 -10 76 -2T92 20L143 155H475L538 -10L624 15L373 674Q363 700 350 714T306 728ZM167 231L309 624L450 231H167Z" />
<glyph unicode="&#xc1;" glyph-name="Aacute" horiz-adv-x="618" d="M382 897Q373 897 352 890T305 872T258 853T225 839Q213 834 206 824T198 800Q198 783 210 772T239 761Q248 761 269 768T315 786T362 805T395 819Q407 824 414 834T422 858Q422 875 411 886T382
897ZM306 728Q281 728 267 712T245 674L15 55Q10 42 10 31Q10 14 21 2T51 -10Q65 -10 76 -2T92 20L143 155H475L538 -10L624 15L373 674Q363 700 350 714T306 728ZM167 231L309 624L450 231H167Z" />
<glyph unicode="&#xc2;" glyph-name="Acircumflex" horiz-adv-x="618" d="M308 888Q303 888 297 886T286 881L180 839Q154 829 154 801Q154 784 165 773T193 762Q202 762 218 767T251 780T284 794T309 805Q318 801 333 794T365 780T397 768T422 762Q439 762 451
774T464 803Q464 831 439 841L331 881Q326 883 320 885T308 888ZM306 728Q281 728 267 712T245 674L15 55Q10 42 10 31Q10 14 21 2T51 -10Q65 -10 76 -2T92 20L143 155H475L538 -10L624 15L373 674Q363 700 350 714T306 728ZM167 231L309 624L450 231H167Z" />
<glyph unicode="&#xc3;" glyph-name="Atilde" horiz-adv-x="618" d="M203 852Q186 852 175 841T163 812Q163 795 175 784T204 772H414Q431 772 443 783T456 812Q456 829 444 840T415 852H203ZM167 231L309 624L450 231H167ZM306 728Q281 728 267 712T245 674L15
55Q10 42 10 31Q10 14 21 2T51 -10Q65 -10 76 -2T92 20L143 155H475L538 -10L624 15L373 674Q363 700 350 714T306 728Z" />
<glyph unicode="&#xc4;" glyph-name="Adieresis" horiz-adv-x="618" d="M139 734Q139 712 154 698T191 684Q211 684 226 699T241 735Q241 755 226 770T191 786Q169 786 154 771T139 734ZM376 733Q376 713 391 699T426 684Q448 684 463 697T478 734Q478 755 463
770T427 786Q404 786 390 771T376 733ZM306 728Q281 728 267 712T245 674L15 55Q10 42 10 31Q10 14 21 2T51 -10Q65 -10 76 -2T92 20L143 155H475L538 -10L624 15L373 674Q363 700 350 714T306 728ZM167 231L309 624L450 231H167Z" />
<glyph unicode="&#xc5;" glyph-name="Aring" horiz-adv-x="617" d="M281 722Q267 715 259 702T245 674L15 55Q10 42 10 31Q10 14 21 2T51 -10Q65 -10 76 -2T92 20L143 155H475L538 -10L624 15L373 674Q368 688 360 702T336 722Q362 730 378 751T395 801Q395 819
388 834T369 860T342 878T309 885Q274 885 249 861T223 801Q223 773 239 752T281 722ZM271 802Q271 818 282 828T310 839Q326 839 337 828T348 801Q348 784 337 774T309 763Q293 763 282 774T271 802ZM167 231L309 624L450 231H167Z" />
<glyph unicode="&#xc6;" glyph-name="AE" horiz-adv-x="766" d="M-10 24L65 -10L151 154H385V46Q385 26 397 13T430 0H690Q706 0 718 11T730 40Q730 57 719 68T690 79H471V319H669Q685 319 697 330T709 359Q709 375 699 387T672 399H473V641H683V720H376Q354 720
345 711T326 682L-10 24ZM188 229L385 619V229H188Z" />
<glyph unicode="&#xc7;" glyph-name="Ccedilla" horiz-adv-x="596" d="M37 353Q37 286 55 224T110 113T199 32T324 -8Q318 -14 309 -23T290 -43T275 -64T268 -84Q268 -97 277 -105T300 -114Q320 -114 333 -98L402 -8Q420 -6 450 1T509 21T559 51T581 92Q581 109
570 122T542 135Q531 135 516 125T479 103T428 81T360 71Q300 71 256 96T184 162T142 255T128 360Q128 411 141 462T181 555T250 623T351 649Q380 649 402 644T444 628T481 603T519 568L569 613Q555 641 532 663T479 700T419 723T357 731Q276 731 216 700T117 616T57
495T37 353Z" />
<glyph unicode="&#xc8;" glyph-name="Egrave" horiz-adv-x="447" d="M334 800Q334 813 327 823T307 839Q296 843 274 852T227 872T180 889T149 897Q132 897 121 887T110 859Q110 845 117 835T137 820Q147 816 169 807T217 787T263 770T294 762Q311 762 322 772T334
800ZM64 47Q64 27 75 14T108 0H431V79H152V320H350Q367 320 378 331T390 360Q390 377 378 388T349 399H152V641H360Q377 641 389 652T401 681Q401 697 389 708T361 720H109Q98 720 87 720Q76 720 65 722L64 47Z" />
<glyph unicode="&#xc9;" glyph-name="Eacute" horiz-adv-x="447" d="M296 897Q287 897 266 890T219 872T172 853T139 839Q127 834 120 824T112 800Q112 783 124 772T153 761Q162 761 183 768T229 786T276 805T309 819Q321 824 328 834T336 858Q336 875 325 886T296
897ZM64 47Q64 27 75 14T108 0H431V79H152V320H350Q367 320 378 331T390 360Q390 377 378 388T349 399H152V641H360Q377 641 389 652T401 681Q401 697 389 708T361 720H109Q98 720 87 720Q76 720 65 722L64 47Z" />
<glyph unicode="&#xca;" glyph-name="Ecircumflex" horiz-adv-x="447" d="M64 47Q64 27 75 14T108 0H371Q387 0 399 11T411 39Q411 56 399 67T370 79H152V320H350Q367 320 378 331T390 360Q390 377 378 388T349 399H152V641H360Q377 641 389 652T401 681Q401 697
389 708T361 720H109Q90 720 77 707T64 675V47ZM222 888Q217 888 211 886T200 881L94 839Q68 829 68 801Q68 784 79 773T107 762Q116 762 132 767T165 780T198 794T223 805Q232 801 247 794T279 780T311 768T336 762Q353 762 365 774T378 803Q378 831 353 841L245
881Q240 883 234 885T222 888Z" />
<glyph unicode="&#xcb;" glyph-name="Edieresis" horiz-adv-x="447" d="M75 817Q75 794 91 780T129 765Q151 765 166 781T181 818Q181 839 166 854T129 870Q106 870 91 855T75 817ZM267 817Q267 797 282 781T318 765Q341 765 356 779T372 817Q372 840 357 855T318
870Q296 870 282 854T267 817ZM64 47Q64 27 75 14T108 0H431V79H152V320H350Q367 320 378 331T390 360Q390 377 378 388T349 399H152V641H360Q377 641 389 652T401 681Q401 697 389 708T361 720H109Q98 720 87 720Q76 720 65 722L64 47Z" />
<glyph unicode="&#xcc;" glyph-name="Igrave" horiz-adv-x="214" d="M218 800Q218 813 211 823T191 839Q180 843 158 852T111 872T64 889T33 897Q16 897 5 887T-6 859Q-6 845 1 835T21 820Q31 816 53 807T101 787T147 770T178 762Q195 762 206 772T218 800ZM64
0H150V684Q150 702 138 715T108 728Q90 728 77 715T64 684V0Z" />
<glyph unicode="&#xcd;" glyph-name="Iacute" horiz-adv-x="214" d="M180 897Q171 897 150 890T103 872T56 853T23 839Q11 834 4 824T-4 800Q-4 783 8 772T37 761Q46 761 67 768T113 786T160 805T193 819Q205 824 212 834T220 858Q220 875 209 886T180 897ZM64
0H150V684Q150 702 138 715T108 728Q90 728 77 715T64 684V0Z" />
<glyph unicode="&#xce;" glyph-name="Icircumflex" horiz-adv-x="214" d="M106 888Q101 888 95 886T84 881L-22 839Q-48 829 -48 801Q-48 784 -37 773T-9 762Q0 762 16 767T49 780T82 794T107 805Q116 801 131 794T163 780T195 768T220 762Q237 762 249 774T262
803Q262 831 237 841L129 881Q124 883 118 885T106 888ZM64 0H150V684Q150 702 138 715T108 728Q90 728 77 715T64 684V0Z" />
<glyph unicode="&#xcf;" glyph-name="Idieresis" horiz-adv-x="214" d="M-41 817Q-41 794 -25 780T13 765Q35 765 50 781T65 818Q65 839 50 854T13 870Q-10 870 -25 855T-41 817ZM151 817Q151 797 166 781T202 765Q225 765 240 779T256 817Q256 840 241 855T202
870Q180 870 166 854T151 817ZM64 0H150V684Q150 702 138 715T108 728Q90 728 77 715T64 684V0Z" />
<glyph unicode="&#xd1;" glyph-name="Ntilde" horiz-adv-x="680" d="M234 852Q217 852 206 841T194 812Q194 795 206 784T235 773L445 772Q462 772 474 783T487 812Q487 829 475 840T446 852H234ZM64 1L150 0V572L537 9Q550 -10 573 -10Q591 -10 603 2T616 33V684Q616
702 604 715T572 729Q555 729 543 715T530 684L531 148L144 710Q131 729 108 729Q90 729 77 716T64 685V1Z" />
<glyph unicode="&#xd2;" glyph-name="Ograve" horiz-adv-x="702" d="M37 361Q37 290 57 224T116 106T215 23T351 -9Q428 -9 486 22T585 105T645 223T665 360Q665 430 645 496T586 614T488 697T352 729Q275 729 216 698T117 616T57 499T37 361ZM462 800Q462 813
455 823T435 839Q424 843 402 852T355 872T308 889T277 897Q260 897 249 887T238 859Q238 845 245 835T265 820Q275 816 297 807T345 787T391 770T422 762Q439 762 450 772T462 800ZM132 360Q132 410 143 462T180 556T247 626T348 653Q411 653 453 626T522 556T560
459T571 351Q571 299 559 248T519 157T450 91T348 66Q289 66 248 93T181 162T144 257T132 360Z" />
<glyph unicode="&#xd3;" glyph-name="Oacute" horiz-adv-x="702" d="M37 361Q37 290 57 224T116 106T215 23T351 -9Q428 -9 486 22T585 105T645 223T665 360Q665 430 645 496T586 614T488 697T352 729Q275 729 216 698T117 616T57 499T37 361ZM424 897Q415 897
394 890T347 872T300 853T267 839Q255 834 248 824T240 800Q240 783 252 772T281 761Q290 761 311 768T357 786T404 805T437 819Q449 824 456 834T464 858Q464 875 453 886T424 897ZM132 360Q132 410 143 462T180 556T247 626T348 653Q411 653 453 626T522 556T560
459T571 351Q571 299 559 248T519 157T450 91T348 66Q289 66 248 93T181 162T144 257T132 360Z" />
<glyph unicode="&#xd4;" glyph-name="Ocircumflex" horiz-adv-x="702" d="M37 361Q37 290 57 224T116 106T215 23T351 -9Q428 -9 486 22T585 105T645 223T665 360Q665 430 645 496T586 614T488 697T352 729Q275 729 216 698T117 616T57 499T37 361ZM350 888Q345
888 339 886T328 881L222 839Q196 829 196 801Q196 784 207 773T235 762Q244 762 260 767T293 780T326 794T351 805Q360 801 375 794T407 780T439 768T464 762Q481 762 493 774T506 803Q506 831 481 841L373 881Q368 883 362 885T350 888ZM132 360Q132 410 143
462T180 556T247 626T348 653Q411 653 453 626T522 556T560 459T571 351Q571 299 559 248T519 157T450 91T348 66Q289 66 248 93T181 162T144 257T132 360Z" />
<glyph unicode="&#xd5;" glyph-name="Otilde" horiz-adv-x="702" d="M37 361Q37 290 57 224T116 106T215 23T351 -9Q428 -9 486 22T585 105T645 223T665 360Q665 430 645 496T586 614T488 697T352 729Q275 729 216 698T117 616T57 499T37 361ZM245 852Q228 852
217 841T205 812Q205 795 217 784T246 773L456 772Q473 772 485 783T498 812Q498 829 486 840T457 852H245ZM132 360Q132 410 143 462T180 556T247 626T348 653Q411 653 453 626T522 556T560 459T571 351Q571 299 559 248T519 157T450 91T348 66Q289 66 248 93T181
162T144 257T132 360Z" />
<glyph unicode="&#xd6;" glyph-name="Odieresis" horiz-adv-x="702" d="M37 361Q37 290 57 224T116 106T215 23T351 -9Q428 -9 486 22T585 105T645 223T665 360Q665 430 645 496T586 614T488 697T352 729Q275 729 216 698T117 616T57 499T37 361ZM65 741Q65 720
78 705T114 689Q135 689 150 704T165 739Q165 760 150 775T115 790Q94 790 80 776T65 741ZM537 738Q537 718 552 704T588 689Q609 689 623 704T638 741Q638 761 624 776T588 791Q565 791 551 776T537 738ZM132 360Q132 410 143 462T180 556T247 626T348 653Q411
653 453 626T522 556T560 459T571 351Q571 299 559 248T519 157T450 91T348 66Q289 66 248 93T181 162T144 257T132 360Z" />
<glyph unicode="&#xd8;" glyph-name="Oslash" horiz-adv-x="703" d="M560 645Q517 687 463 708T348 730Q271 730 213 699T116 615T57 497T37 360Q37 292 53 232T110 116L25 13L67 -27L149 72Q188 31 239 11T348 -10Q424 -10 483 21T583 103T644 220T665 357Q665
423 650 484T599 601Q605 608 618 622T644 652T667 682T677 706Q677 718 669 726T649 735Q640 735 628 724T602 697T578 667T560 645ZM505 581L170 185Q148 227 140 268T131 356Q131 406 142 458T179 553T246 623T347 651Q392 651 433 634T505 581ZM203 134L538
531Q556 487 563 443T571 351Q571 301 559 251T521 160T454 95T355 70Q311 70 272 86T203 134Z" />
<glyph unicode="&#xd9;" glyph-name="Ugrave" horiz-adv-x="683" d="M452 800Q452 813 445 823T425 839Q414 843 392 852T345 872T298 889T267 897Q250 897 239 887T228 859Q228 845 235 835T255 820Q265 816 287 807T335 787T381 770T412 762Q429 762 440 772T452
800ZM64 255Q64 194 85 145T143 62T231 9T342 -10Q401 -10 452 8T540 61T598 145T619 255V683Q619 701 606 714T576 727Q557 727 545 714T533 683V254Q533 211 519 176T480 117T420 79T342 65Q299 65 264 78T203 116T164 176T150 254V723H64V255Z" />
<glyph unicode="&#xda;" glyph-name="Uacute" horiz-adv-x="683" d="M414 897Q405 897 384 890T337 872T290 853T257 839Q245 834 238 824T230 800Q230 783 242 772T271 761Q280 761 301 768T347 786T394 805T427 819Q439 824 446 834T454 858Q454 875 443 886T414
897ZM64 255Q64 194 85 145T143 62T231 9T342 -10Q401 -10 452 8T540 61T598 145T619 255V683Q619 701 606 714T576 727Q557 727 545 714T533 683V254Q533 211 519 176T480 117T420 79T342 65Q299 65 264 78T203 116T164 176T150 254V723H64V255Z" />
<glyph unicode="&#xdb;" glyph-name="Ucircumflex" horiz-adv-x="683" d="M340 888Q335 888 329 886T318 881L212 839Q186 829 186 801Q186 784 197 773T225 762Q234 762 250 767T283 780T316 794T341 805Q350 801 365 794T397 780T429 768T454 762Q471 762 483
774T496 803Q496 831 471 841L363 881Q358 883 352 885T340 888ZM64 255Q64 194 85 145T143 62T231 9T342 -10Q401 -10 452 8T540 61T598 145T619 255V683Q619 701 606 714T576 727Q557 727 545 714T533 683V254Q533 211 519 176T480 117T420 79T342 65Q299 65
264 78T203 116T164 176T150 254V723H64V255Z" />
<glyph unicode="&#xdc;" glyph-name="Udieresis" horiz-adv-x="683" d="M211 736Q211 714 224 699T261 684Q282 684 297 699T312 736Q312 756 298 771T262 787Q241 787 226 772T211 736ZM371 735Q371 715 386 700T421 684Q442 684 457 699T472 735Q472 756 457
771T421 786Q399 786 385 771T371 735ZM64 255Q64 194 85 145T143 62T231 9T342 -10Q401 -10 452 8T540 61T598 145T619 255V683Q619 701 606 714T576 727Q557 727 545 714T533 683V254Q533 211 519 176T480 117T420 79T342 65Q299 65 264 78T203 116T164 176T150
254V723H64V255Z" />
<glyph unicode="&#xdf;" glyph-name="germandbls" horiz-adv-x="559" d="M64 553V-212H148V565Q148 593 155 617T176 660T212 689T265 700Q292 700 312 689T345 659T366 617T373 569Q373 518 352 490T280 449Q269 439 263 435T257 413Q257 396 269 389T300 378T341
367T381 345T412 301T425 224Q425 171 413 143T383 100T343 82T304 74T273 63T261 35Q261 23 267 14T283 0T304 -7T326 -10Q372 -10 407 11T466 66T502 141T515 224Q515 257 507 288T482 347T440 394T382 425Q420 449 439 490T458 576Q458 618 445 654T406 718T346
761T267 777Q216 777 178 761T114 714T77 643T64 553Z" />
<glyph unicode="&#xe0;" glyph-name="agrave" horiz-adv-x="567" d="M394 614Q394 627 387 637T367 653Q356 657 334 666T287 686T240 703T209 711Q192 711 181 701T170 673Q170 659 177 649T197 634Q207 630 229 621T277 601T323 584T354 576Q371 576 382 586T394
614ZM419 471Q391 506 352 524T268 542Q212 542 169 518T97 456T52 368T36 268Q36 216 51 167T95 78T167 15T268 -9Q315 -9 354 11T418 73V-4H503V500Q503 516 492 529T463 542Q445 542 436 536T424 519T420 497T419 471ZM126 269Q126 304 134 339T161 404T208
451T278 469Q320 469 347 452T391 407T414 344T421 275Q421 237 415 200T393 132T347 83T273 64Q232 64 204 83T158 131T134 197T126 269Z" />
<glyph unicode="&#xe1;" glyph-name="aacute" horiz-adv-x="567" d="M356 711Q347 711 326 704T279 686T232 667T199 653Q187 648 180 638T172 614Q172 597 184 586T213 575Q222 575 243 582T289 600T336 619T369 633Q381 638 388 648T396 672Q396 689 385 700T356
711ZM419 471Q391 506 352 524T268 542Q212 542 169 518T97 456T52 368T36 268Q36 216 51 167T95 78T167 15T268 -9Q315 -9 354 11T418 73V-4H503V500Q503 516 492 529T463 542Q445 542 436 536T424 519T420 497T419 471ZM126 269Q126 304 134 339T161 404T208
451T278 469Q320 469 347 452T391 407T414 344T421 275Q421 237 415 200T393 132T347 83T273 64Q232 64 204 83T158 131T134 197T126 269Z" />
<glyph unicode="&#xe2;" glyph-name="acircumflex" horiz-adv-x="567" d="M282 702Q277 702 271 700T260 695L154 653Q128 643 128 615Q128 598 139 587T167 576Q176 576 192 581T225 594T258 608T283 619Q292 615 307 608T339 594T371 582T396 576Q413 576 425
588T438 617Q438 645 413 655L305 695Q300 697 294 699T282 702ZM419 471Q391 506 352 524T268 542Q212 542 169 518T97 456T52 368T36 268Q36 216 51 167T95 78T167 15T268 -9Q315 -9 354 11T418 73V-4H503V500Q503 516 492 529T463 542Q445 542 436 536T424 519T420
497T419 471ZM126 269Q126 304 134 339T161 404T208 451T278 469Q320 469 347 452T391 407T414 344T421 275Q421 237 415 200T393 132T347 83T273 64Q232 64 204 83T158 131T134 197T126 269Z" />
<glyph unicode="&#xe3;" glyph-name="atilde" horiz-adv-x="567" d="M177 666Q160 666 149 655T137 626Q137 609 149 598T178 587L388 586Q405 586 417 597T430 626Q430 643 418 654T389 666H177ZM419 471Q391 506 352 524T268 542Q212 542 169 518T97 456T52
368T36 268Q36 216 51 167T95 78T167 15T268 -9Q315 -9 354 11T418 73V-4H503V500Q503 516 492 529T463 542Q445 542 436 536T424 519T420 497T419 471ZM126 269Q126 304 134 339T161 404T208 451T278 469Q320 469 347 452T391 407T414 344T421 275Q421 237 415
200T393 132T347 83T273 64Q232 64 204 83T158 131T134 197T126 269Z" />
<glyph unicode="&#xe4;" glyph-name="adieresis" horiz-adv-x="567" d="M141 654Q141 631 156 615T194 599Q217 599 232 614T247 652Q247 674 232 690T194 706Q173 706 157 691T141 654ZM331 653Q331 630 346 615T384 599Q407 599 422 614T437 652Q437 675 422
690T384 706Q362 706 347 691T331 653ZM419 471Q391 506 352 524T268 542Q212 542 169 518T97 456T52 368T36 268Q36 216 51 167T95 78T167 15T268 -9Q315 -9 354 11T418 73V-4H503V500Q503 516 492 529T463 542Q445 542 436 536T424 519T420 497T419 471ZM126
269Q126 304 134 339T161 404T208 451T278 469Q320 469 347 452T391 407T414 344T421 275Q421 237 415 200T393 132T347 83T273 64Q232 64 204 83T158 131T134 197T126 269Z" />
<glyph unicode="&#xe5;" glyph-name="aring" horiz-adv-x="567" d="M196 661Q196 645 202 631T220 607T245 590T276 584Q292 584 307 589T333 605T352 630T359 662Q359 678 353 692T335 717T309 734T278 740Q244 740 220 718T196 661ZM241 662Q241 678 251 687T277
697Q292 697 303 687T314 661Q314 647 303 636T277 625Q262 625 252 636T241 662ZM419 471Q391 506 352 524T268 542Q212 542 169 518T97 456T52 368T36 268Q36 216 51 167T95 78T167 15T268 -9Q315 -9 354 11T418 73V-4H503V500Q503 516 492 529T463 542Q445 542
436 536T424 519T420 497T419 471ZM126 269Q126 304 134 339T161 404T208 451T278 469Q320 469 347 452T391 407T414 344T421 275Q421 237 415 200T393 132T347 83T273 64Q232 64 204 83T158 131T134 197T126 269Z" />
<glyph unicode="&#xe6;" glyph-name="ae" horiz-adv-x="905" d="M418 466Q392 503 351 521T266 540Q209 540 166 516T95 452T52 362T37 261Q37 210 52 162T96 76T168 15T266 -8Q312 -8 354 13T419 76V-1H497V65Q527 26 569 9T660 -8Q682 -8 697 -6T725 1T751 10T785
22L759 93Q737 82 713 75T664 68Q629 68 599 81T547 117T513 170T500 236H825Q832 236 838 236T852 235Q869 241 872 253T876 281Q876 327 860 373T815 457T745 517T654 541Q609 541 567 521T496 466Q496 478 496 491T494 516T483 535T458 543Q441 543 433 536T421
517T418 491Q418 478 418 466ZM277 72Q236 72 207 89T160 133T134 194T125 265Q125 298 133 333T158 396T203 443T269 462Q310 462 338 446T385 403T411 342T419 272Q419 238 412 203T389 138T345 91T277 72ZM500 299V319Q500 349 512 375T544 422T590 454T647
466Q683 466 708 451T749 413T775 359T790 299H500Z" />
<glyph unicode="&#xe7;" glyph-name="ccedilla" horiz-adv-x="449" d="M37 265Q37 218 49 174T85 92T147 30T233 -4Q229 -10 219 -24T199 -53T181 -82T173 -103Q173 -116 182 -125T204 -134Q213 -134 223 -130T238 -117L308 -6Q322 -5 341 -1T378 11T408 31T421
63Q421 78 410 89T382 101Q373 101 361 96T335 86T306 75T276 70Q238 70 211 89T165 137T137 201T128 269Q128 304 137 339T164 401T212 446T282 464Q313 464 341 451T396 424L437 494Q417 505 399 514T363 529T326 538T282 542Q223 542 178 520T101 459T53 370T37
265Z" />
<glyph unicode="&#xe8;" glyph-name="egrave" horiz-adv-x="538" d="M380 614Q380 627 373 637T353 653Q342 657 320 666T273 686T226 703T195 711Q178 711 167 701T156 673Q156 659 163 649T183 634Q193 630 215 621T263 601T309 584T340 576Q357 576 368 586T380
614ZM131 233H455Q482 233 495 242T508 280Q508 329 492 376T447 459T375 518T279 541Q223 541 179 518T103 457T54 370T37 268Q37 212 53 162T102 73T180 13T286 -10Q323 -10 353 -2T418 21L399 88Q373 80 345 74T289 67Q255 67 226 80T176 116T143 169T131 233ZM129
299Q133 330 143 361T170 416T213 455T277 470Q310 470 336 455T380 415T408 360T419 299H129Z" />
<glyph unicode="&#xe9;" glyph-name="eacute" horiz-adv-x="538" d="M342 711Q333 711 312 704T265 686T218 667T185 653Q173 648 166 638T158 614Q158 597 170 586T199 575Q208 575 229 582T275 600T322 619T355 633Q367 638 374 648T382 672Q382 689 371 700T342
711ZM131 233H455Q482 233 495 242T508 280Q508 329 492 376T447 459T375 518T279 541Q223 541 179 518T103 457T54 370T37 268Q37 212 53 162T102 73T180 13T286 -10Q323 -10 353 -2T418 21L399 88Q373 80 345 74T289 67Q255 67 226 80T176 116T143 169T131 233ZM129
299Q133 330 143 361T170 416T213 455T277 470Q310 470 336 455T380 415T408 360T419 299H129Z" />
<glyph unicode="&#xea;" glyph-name="ecircumflex" horiz-adv-x="538" d="M268 702Q263 702 257 700T246 695L140 653Q114 643 114 615Q114 598 125 587T153 576Q162 576 178 581T211 594T244 608T269 619Q278 615 293 608T325 594T357 582T382 576Q399 576 411
588T424 617Q424 645 399 655L291 695Q286 697 280 699T268 702ZM131 233H455Q482 233 495 242T508 280Q508 329 492 376T447 459T375 518T279 541Q223 541 179 518T103 457T54 370T37 268Q37 212 53 162T102 73T180 13T286 -10Q323 -10 353 -2T418 21L399 88Q373
80 345 74T289 67Q255 67 226 80T176 116T143 169T131 233ZM129 299Q133 330 143 361T170 416T213 455T277 470Q310 470 336 455T380 415T408 360T419 299H129Z" />
<glyph unicode="&#xeb;" glyph-name="edieresis" horiz-adv-x="538" d="M121 631Q121 608 137 594T175 579Q197 579 212 595T227 632Q227 653 212 668T175 684Q152 684 137 669T121 631ZM313 631Q313 611 328 595T364 579Q387 579 402 593T418 631Q418 654 403
669T364 684Q342 684 328 668T313 631ZM131 233H455Q482 233 495 242T508 280Q508 329 492 376T447 459T375 518T279 541Q223 541 179 518T103 457T54 370T37 268Q37 212 53 162T102 73T180 13T286 -10Q323 -10 353 -2T418 21L399 88Q373 80 345 74T289 67Q255
67 226 80T176 116T143 169T131 233ZM129 299Q133 330 143 361T170 416T213 455T277 470Q310 470 336 455T380 415T408 360T419 299H129Z" />
<glyph unicode="&#xec;" glyph-name="igrave" horiz-adv-x="190" d="M206 614Q206 627 199 637T179 653Q168 657 146 666T99 686T52 703T21 711Q4 711 -7 701T-18 673Q-18 659 -11 649T9 634Q19 630 41 621T89 601T135 584T166 576Q183 576 194 586T206 614ZM65
-1H149V500Q149 516 138 529T109 542Q91 542 78 531T65 500V-1Z" />
<glyph unicode="&#xed;" glyph-name="iacute" horiz-adv-x="190" d="M168 711Q159 711 138 704T91 686T44 667T11 653Q-1 648 -8 638T-16 614Q-16 597 -4 586T25 575Q34 575 55 582T101 600T148 619T181 633Q193 638 200 648T208 672Q208 689 197 700T168 711ZM65
-1H149V500Q149 516 138 529T109 542Q91 542 78 531T65 500V-1Z" />
<glyph unicode="&#xee;" glyph-name="icircumflex" horiz-adv-x="190" d="M94 702Q89 702 83 700T72 695L-34 653Q-60 643 -60 615Q-60 598 -49 587T-21 576Q-12 576 4 581T37 594T70 608T95 619Q104 615 119 608T151 594T183 582T208 576Q225 576 237 588T250
617Q250 645 225 655L117 695Q112 697 106 699T94 702ZM65 -1H149V500Q149 516 138 529T109 542Q91 542 78 531T65 500V-1Z" />
<glyph unicode="&#xef;" glyph-name="idieresis" horiz-adv-x="190" d="M-53 631Q-53 608 -37 594T1 579Q23 579 38 595T53 632Q53 653 38 668T1 684Q-22 684 -37 669T-53 631ZM139 631Q139 611 154 595T190 579Q213 579 228 593T244 631Q244 654 229 669T190
684Q168 684 154 668T139 631ZM65 -1H149V500Q149 516 138 529T109 542Q91 542 78 531T65 500V-1Z" />
<glyph unicode="&#xf1;" glyph-name="ntilde" horiz-adv-x="548" d="M168 666Q151 666 140 655T128 626Q128 609 140 598T169 587L379 586Q396 586 408 597T421 626Q421 643 409 654T380 666H168ZM64 -1H148V340Q148 366 157 389T184 429T224 457T273 467Q299
467 322 457T362 429T390 388T400 338V31Q400 14 412 2T441 -11Q459 -11 471 1T484 32V339Q484 383 471 420T432 484T370 526T289 541Q248 541 210 523T148 471Q148 482 148 495Q148 508 145 518T133 536T108 543Q90 543 77 531T64 500V-1Z" />
<glyph unicode="&#xf2;" glyph-name="ograve" horiz-adv-x="547" d="M37 268Q37 216 52 166T98 77T173 13T274 -11Q330 -11 374 13T448 76T493 166T509 267Q509 319 493 368T447 456T373 518T273 542Q217 542 173 519T99 457T53 369T37 268ZM384 614Q384 627 377
637T357 653Q346 657 324 666T277 686T230 703T199 711Q182 711 171 701T160 673Q160 659 167 649T187 634Q197 630 219 621T267 601T313 584T344 576Q361 576 372 586T384 614ZM127 267Q127 300 135 335T160 399T205 448T272 467Q312 467 340 449T386 402T412
338T420 268Q420 233 412 197T387 132T341 84T271 65Q232 65 205 84T160 133T135 198T127 267Z" />
<glyph unicode="&#xf3;" glyph-name="oacute" horiz-adv-x="547" d="M37 268Q37 216 52 166T98 77T173 13T274 -11Q330 -11 374 13T448 76T493 166T509 267Q509 319 493 368T447 456T373 518T273 542Q217 542 173 519T99 457T53 369T37 268ZM346 711Q337 711 316
704T269 686T222 667T189 653Q177 648 170 638T162 614Q162 597 174 586T203 575Q212 575 233 582T279 600T326 619T359 633Q371 638 378 648T386 672Q386 689 375 700T346 711ZM127 267Q127 300 135 335T160 399T205 448T272 467Q312 467 340 449T386 402T412
338T420 268Q420 233 412 197T387 132T341 84T271 65Q232 65 205 84T160 133T135 198T127 267Z" />
<glyph unicode="&#xf4;" glyph-name="ocircumflex" horiz-adv-x="547" d="M37 268Q37 216 52 166T98 77T173 13T274 -11Q330 -11 374 13T448 76T493 166T509 267Q509 319 493 368T447 456T373 518T273 542Q217 542 173 519T99 457T53 369T37 268ZM272 702Q267
702 261 700T250 695L144 653Q118 643 118 615Q118 598 129 587T157 576Q166 576 182 581T215 594T248 608T273 619Q282 615 297 608T329 594T361 582T386 576Q403 576 415 588T428 617Q428 645 403 655L295 695Q290 697 284 699T272 702ZM127 267Q127 300 135
335T160 399T205 448T272 467Q312 467 340 449T386 402T412 338T420 268Q420 233 412 197T387 132T341 84T271 65Q232 65 205 84T160 133T135 198T127 267Z" />
<glyph unicode="&#xf5;" glyph-name="otilde" horiz-adv-x="547" d="M37 268Q37 216 52 166T98 77T173 13T274 -11Q330 -11 374 13T448 76T493 166T509 267Q509 319 493 368T447 456T373 518T273 542Q217 542 173 519T99 457T53 369T37 268ZM167 666Q150 666 139
655T127 626Q127 609 139 598T168 587L378 586Q395 586 407 597T420 626Q420 643 408 654T379 666H167ZM127 267Q127 300 135 335T160 399T205 448T272 467Q312 467 340 449T386 402T412 338T420 268Q420 233 412 197T387 132T341 84T271 65Q232 65 205 84T160
133T135 198T127 267Z" />
<glyph unicode="&#xf6;" glyph-name="odieresis" horiz-adv-x="547" d="M37 268Q37 216 52 166T98 77T173 13T274 -11Q330 -11 374 13T448 76T493 166T509 267Q509 319 493 368T447 456T373 518T273 542Q217 542 173 519T99 457T53 369T37 268ZM126 657Q126 635
141 620T178 605Q200 605 215 620T231 657Q231 679 215 694T177 710Q154 710 140 695T126 657ZM317 657Q317 635 331 620T368 605Q390 605 405 620T421 658Q421 680 406 695T370 710Q348 710 333 695T317 657ZM127 266Q127 299 135 334T160 399T205 448T272 467Q312
467 340 449T386 401T412 336T420 266Q420 231 412 196T386 131T340 84T271 65Q232 65 205 84T160 132T135 197T127 266Z" />
<glyph unicode="&#xf7;" glyph-name="divide" horiz-adv-x="618" d="M275 158Q251 158 235 142T218 101Q218 77 234 61T275 44Q298 44 314 61T331 101Q331 126 316 142T275 158ZM506 270H43V202H506V270ZM275 427Q251 427 235 411T218 370Q218 346 234 330T275
313Q298 313 314 330T331 370Q331 393 315 410T275 427Z" />
<glyph unicode="&#xf8;" glyph-name="oslash" horiz-adv-x="546" d="M21 -8L60 -41L129 47Q158 18 195 4T271 -10Q327 -10 371 13T446 74T493 162T509 263Q509 312 496 357T456 444Q461 450 471 462T492 487T511 513T519 534Q519 547 511 554T490 562Q482 562
472 553T451 533T433 509T419 491Q387 515 350 528T272 542Q216 542 173 519T99 456T53 368T37 268Q37 171 88 88L21 -8ZM365 427L148 159Q127 208 127 263Q127 297 134 333T159 399T205 448T274 467Q300 467 324 457T365 427ZM179 105L398 375Q410 348 414 320T419
263Q419 229 411 194T384 131T338 85T271 67Q245 67 221 76T179 105Z" />
<glyph unicode="&#xf9;" glyph-name="ugrave" horiz-adv-x="550" d="M386 614Q386 627 379 637T359 653Q348 657 326 666T279 686T232 703T201 711Q184 711 173 701T162 673Q162 659 169 649T189 634Q199 630 221 621T269 601T315 584T346 576Q363 576 374 586T386
614ZM64 198Q64 96 119 44T275 -9Q376 -9 431 43T486 198V498Q486 516 474 529T444 542Q427 542 415 529T402 499V200Q402 137 372 102T275 66Q209 66 179 101T149 200V523L64 522V198Z" />
<glyph unicode="&#xfa;" glyph-name="uacute" horiz-adv-x="550" d="M348 711Q339 711 318 704T271 686T224 667T191 653Q179 648 172 638T164 614Q164 597 176 586T205 575Q214 575 235 582T281 600T328 619T361 633Q373 638 380 648T388 672Q388 689 377 700T348
711ZM64 198Q64 96 119 44T275 -9Q376 -9 431 43T486 198V498Q486 516 474 529T444 542Q427 542 415 529T402 499V200Q402 137 372 102T275 66Q209 66 179 101T149 200V523L64 522V198Z" />
<glyph unicode="&#xfb;" glyph-name="ucircumflex" horiz-adv-x="550" d="M274 702Q269 702 263 700T252 695L146 653Q120 643 120 615Q120 598 131 587T159 576Q168 576 184 581T217 594T250 608T275 619Q284 615 299 608T331 594T363 582T388 576Q405 576 417
588T430 617Q430 645 405 655L297 695Q292 697 286 699T274 702ZM64 198Q64 96 119 44T275 -9Q376 -9 431 43T486 198V498Q486 516 474 529T444 542Q427 542 415 529T402 499V200Q402 137 372 102T275 66Q209 66 179 101T149 200V523L64 522V198Z" />
<glyph unicode="&#xfc;" glyph-name="udieresis" horiz-adv-x="550" d="M128 657Q128 635 143 621T180 606Q202 606 217 621T233 658Q233 681 218 696T180 711Q157 711 143 696T128 657ZM318 658Q318 636 333 621T370 606Q393 606 408 621T423 658Q423 681 408
696T371 711Q349 711 334 696T318 658ZM64 198Q64 96 119 44T275 -9Q376 -9 431 43T486 198V498Q486 516 474 529T444 542Q427 542 415 529T402 499V200Q402 137 372 102T275 66Q209 66 179 101T149 200V523L64 522V198Z" />
<glyph unicode="&#xff;" glyph-name="ydieresis" horiz-adv-x="433" d="M68 631Q68 608 84 594T122 579Q144 579 159 595T174 632Q174 653 159 668T122 684Q99 684 84 669T68 631ZM260 631Q260 611 275 595T311 579Q334 579 349 593T365 631Q365 654 350 669T311
684Q289 684 275 668T260 631ZM2 508L174 17Q169 5 158 -24T134 -84T113 -144T103 -181Q103 -199 116 -210T146 -221Q163 -221 172 -210T187 -184Q191 -172 203 -137T233 -53T272 55T314 173T355 290T390 392T415 466T424 501Q424 518 411 530T381 542Q365 542
355 532T340 507L218 133L84 534L2 508Z" />
<glyph unicode="&#x152;" glyph-name="OE" horiz-adv-x="945" d="M569 614Q552 643 528 665T476 701T415 723T350 731Q269 731 210 699T113 613T56 490T37 349Q37 280 57 216T118 101T216 21T348 -9Q415 -9 474 21T568 111V35Q568 18 580 9T608 0H867Q884 0 896
11T908 39Q908 56 897 67T868 78H649V320H847Q864 320 876 331T889 360Q889 377 877 388T848 399H650V641H859Q876 641 887 652T899 680Q899 697 887 708T858 720H611Q589 720 580 709T569 682T567 647T569 614ZM129 359Q129 411 141 462T180 555T249 623T351 649Q409
649 450 623T517 555T555 462T567 360Q567 307 556 256T518 164T450 98T346 73Q287 73 246 98T179 165T141 257T129 359Z" />
<glyph unicode="&#x153;" glyph-name="oe" horiz-adv-x="914" d="M463 428Q450 454 430 475T384 511T330 534T272 542Q216 542 172 519T98 457T53 370T37 269Q37 218 52 169T96 80T168 17T268 -7Q296 -7 325 1T380 23T428 58T463 105Q477 78 498 57T546 21T603
-1T663 -9Q694 -9 724 -2T783 17Q780 22 775 32T765 54T755 75T751 90Q710 71 668 71Q632 71 604 84T555 120T523 173T510 238H831Q860 238 872 246T885 285Q885 335 869 381T823 464T750 521T654 543Q594 543 543 512T463 428ZM127 261Q127 294 134 330T157 398T201
450T268 471Q310 471 338 454T385 409T410 346T418 274Q418 239 412 202T389 135T345 86T274 66Q234 66 206 84T161 130T135 192T127 261ZM509 301Q514 331 523 360T548 414T589 453T650 468Q684 468 711 454T757 417T786 364T796 301H509Z" />
<glyph unicode="&#x178;" glyph-name="Ydieresis" horiz-adv-x="506" d="M105 817Q105 794 121 780T159 765Q181 765 196 781T211 818Q211 839 196 854T159 870Q136 870 121 855T105 817ZM297 817Q297 797 312 781T348 765Q371 765 386 779T402 817Q402 840 387
855T348 870Q326 870 312 854T297 817ZM71 733L-1 687Q1 684 1 681T4 674L209 338V36Q209 17 221 4T253 -9Q272 -9 284 4T297 36V338L495 663Q499 669 501 674T503 688Q503 705 491 716T461 727Q435 727 422 705L253 425L71 733Z" />
<glyph unicode="&#x192;" glyph-name="florin" horiz-adv-x="354" d="M148 455L94 -76Q93 -88 92 -100T88 -121T75 -136T50 -142Q39 -142 30 -142T9 -141V-218H60Q112 -218 142 -187T177 -106L233 454Q246 454 264 453T299 454T327 466T339 497Q339 514 327 521T299
531T267 532T241 531Q244 565 248 599T255 667Q256 682 265 688T287 696T314 698T341 700T362 710T370 736Q370 752 361 760T339 771T311 774T286 773Q236 773 205 742T169 663L154 531Q141 531 126 531T99 529T78 517T69 489Q69 473 77 466T98 456T124 454T148
455Z" />
<glyph unicode="&#x2c6;" glyph-name="circumflex" horiz-adv-x="306" d="M152 702Q147 702 141 700T130 695L24 653Q-2 643 -2 615Q-2 598 9 587T37 576Q46 576 62 581T95 594T128 608T153 619Q162 615 177 608T209 594T241 582T266 576Q283 576 295 588T308
617Q308 645 283 655L175 695Q170 697 164 699T152 702Z" />
<glyph unicode="&#x2dc;" glyph-name="tilde" horiz-adv-x="289" d="M38 666Q21 666 10 655T-2 626Q-2 609 10 598T39 587L249 586Q266 586 278 597T291 626Q291 643 279 654T250 666H38Z" />
<glyph unicode="&#x2013;" glyph-name="endash" horiz-adv-x="544" d="M62 371Q49 371 40 362T30 339Q30 326 38 316T61 306H483Q497 306 505 316T513 339Q513 351 505 361T483 371H62Z" />
<glyph unicode="&#x2014;" glyph-name="emdash" horiz-adv-x="536" d="M47 195H487V280H47V195Z" />
<glyph unicode="&#x2018;" glyph-name="quoteleft" horiz-adv-x="193" d="M117 738Q105 738 94 732T78 714Q73 704 62 682T39 635T18 589T9 558Q9 540 22 527T52 514Q64 514 74 520T89 538Q94 548 105 570T129 617T150 663T160 694Q160 712 147 725T117 738ZM92
747L6 567Q2 559 2 548Q2 531 14 518T44 505Q56 505 66 511T82 529L170 709L92 747Z" />
<glyph unicode="&#x2019;" glyph-name="quoteright" horiz-adv-x="193" d="M84 509L170 689Q175 699 175 708Q175 725 163 738T132 751Q120 751 110 745T94 727L6 547L84 509Z" />
<glyph unicode="&#x201a;" glyph-name="quotesinglbase" horiz-adv-x="186" d="M109 88Q97 88 87 82T71 65Q66 55 55 33T32 -14T11 -61T2 -92Q2 -109 14 -122T44 -135Q56 -135 66 -129T82 -111Q87 -101 98 -79T122 -33T143 14T153 45Q153 63 140 75T109 88Z" />
<glyph unicode="&#x201c;" glyph-name="quotedblleft" horiz-adv-x="340" d="M92 747L6 567Q2 559 2 548Q2 531 14 518T44 505Q56 505 66 511T82 529L170 709L92 747ZM242 747L156 567Q152 559 152 548Q152 531 164 518T194 505Q206 505 216 511T232 529L320 709L242
747Z" />
<glyph unicode="&#x201d;" glyph-name="quotedblright" horiz-adv-x="340" d="M234 509L320 689Q325 699 325 708Q325 725 313 738T282 751Q270 751 260 745T244 727L156 547L234 509ZM84 509L170 689Q175 699 175 708Q175 725 163 738T132 751Q120 751 110 745T94
727L6 547L84 509Z" />
<glyph unicode="&#x201e;" glyph-name="quotedblbase" horiz-adv-x="328" d="M92 107L6 -73Q2 -81 2 -92Q2 -109 14 -122T44 -135Q56 -135 66 -129T82 -111L170 69L92 107ZM232 107L146 -73Q142 -81 142 -92Q142 -109 154 -122T184 -135Q196 -135 206 -129T222
-111L310 69L232 107Z" />
<glyph unicode="&#x2020;" glyph-name="dagger" horiz-adv-x="627" d="M52 476V392H271V-212H355V392H555Q572 392 585 404T598 434Q598 452 585 464T555 476H354V690Q354 707 343 721T313 735Q295 735 284 721T273 690V476H52Z" />
<glyph unicode="&#x2021;" glyph-name="daggerdbl" horiz-adv-x="649" d="M282 114L81 113Q64 113 52 101T39 72Q39 55 51 43T81 31H282L283 -182Q283 -199 294 -212T324 -225Q343 -225 353 -213T364 -182V31H566Q583 31 596 42T609 72Q609 89 596 101T566 114L366
113V388H566Q583 388 597 400T611 430Q611 447 598 458T567 470H365V683Q365 700 354 713T324 727Q306 727 295 714T284 684L282 471H82Q66 471 54 460T41 431Q41 414 53 401T83 388H281L282 114Z" />
<glyph unicode="&#x2022;" glyph-name="bullet" horiz-adv-x="248" d="M9 360Q9 342 16 326T35 298T63 279T97 272Q134 272 159 297T185 360Q185 397 160 422T97 448Q79 448 63 441T35 422T16 394T9 360Z" />
<glyph unicode="&#x2026;" glyph-name="ellipsis" horiz-adv-x="572" d="M41 45Q41 22 56 7T95 -9Q118 -9 133 6T149 45Q149 68 134 83T95 99Q72 99 57 84T41 45ZM232 45Q232 22 247 7T286 -9Q309 -9 324 6T340 45Q340 68 325 83T286 99Q263 99 248 84T232 45ZM423
45Q423 22 438 7T477 -9Q499 -9 515 7T531 45Q531 67 515 83T477 99Q454 99 439 84T423 45Z" />
<glyph unicode="&#x2030;" glyph-name="perthousand" horiz-adv-x="962" d="M39 562Q39 532 47 502T73 447T116 407T176 391Q211 391 236 407T279 449T304 506T313 568Q313 599 305 629T280 682T238 720T178 735Q142 735 116 720T73 680T48 624T39 562ZM456 736Q434
736 427 716L177 32Q174 24 174 16Q174 3 181 -7T203 -17Q212 -17 221 -11T233 5L484 688Q486 692 486 702Q486 716 478 726T456 736ZM348 153Q348 122 356 92T382 37T425 -2T486 -17Q522 -17 548 -2T591 39T616 95T624 158Q624 189 616 218T591 271T549 309T489
323Q454 323 428 308T384 269T357 215T348 153ZM647 153Q647 122 655 92T681 37T724 -2T785 -17Q821 -17 847 -2T890 38T915 94T923 158Q923 189 915 218T891 271T849 309T788 323Q753 323 727 308T683 269T656 215T647 153ZM408 153Q408 172 411 192T424 229T448
257T486 268Q508 268 523 258T547 233T560 198T564 161Q564 142 561 121T549 81T525 50T486 37Q463 37 448 48T424 77T412 114T408 153ZM99 563Q99 581 102 601T115 639T139 668T177 680Q198 680 212 669T236 642T249 606T253 568Q253 551 249 530T236 490T213
459T176 446Q155 446 140 458T116 487T103 525T99 563ZM708 153Q708 171 711 191T723 229T747 257T785 268Q807 268 822 258T846 233T859 198T863 161Q863 142 860 120T848 80T824 49T785 37Q762 37 748 48T724 77T712 115T708 153Z" />
<glyph unicode="&#x2039;" glyph-name="guilsinglleft" horiz-adv-x="252" d="M179 472Q167 472 157 465T140 448L51 296Q47 290 43 283T39 268Q39 260 45 250T55 233L140 86Q146 75 155 68T178 60Q191 60 202 70T213 95Q213 103 210 109T203 123L116 266L204
409Q212 422 212 436Q212 450 203 461T179 472Z" />
<glyph unicode="&#x203a;" glyph-name="guilsinglright" horiz-adv-x="252" d="M213 262Q213 270 207 280T197 298L112 445Q106 455 97 462T75 470Q61 470 51 460T40 436Q40 428 42 421T49 407L136 265L48 122Q40 109 40 95Q40 80 49 70T73 59Q85 59 95 66T112
83L201 234Q205 240 209 247T213 262Z" />
<glyph unicode="&#x2122;" glyph-name="trademark" horiz-adv-x="770" d="M73 720Q63 720 56 713T49 696Q49 686 56 679T73 671H145V352H198V671H271Q281 671 288 678T296 695Q296 705 289 712T272 720H73ZM287 347Q287 350 287 353T287 359L343 692Q345 706 355
715T380 725Q412 725 421 694L502 417L583 694Q592 725 623 725Q637 725 647 716T660 692L716 359Q717 355 717 347L663 348L619 651L529 346H475L385 651L340 348L287 347Z" />
</font>
</defs>
</svg>
