<?xml version="1.0" standalone="no"?> <!DOCTYPE svg PUBLIC "-//W3C//DTD SVG 1.0//EN" "http://www.w3.org/TR/2001/REC-SVG-20010904/DTD/svg10.dtd" > <svg xmlns="http://www.w3.org/2000/svg" width="100%" height="100%">
<defs >
<font id="Folks-Heavy" horiz-adv-x="476" ><font-face
    font-family="Folks-Heavy"
    units-per-em="1000"
    panose-1="2 0 9 3 3 0 0 2 0 4"
    ascent="978"
    descent="-261"
    alphabetic="0" />
<missing-glyph horiz-adv-x="364" d="M33 0V666H298V0H33ZM66 33H265V633H66V33Z" />
<glyph unicode=" " glyph-name="space" horiz-adv-x="290" />
<glyph unicode="!" glyph-name="exclam" horiz-adv-x="285" d="M38 102Q38 77 47 55T73 17T112 -9T160 -19Q185 -19 207 -10T246 16T272 55T282 103Q282 128 273 150T246 189T207 214T159 224Q134 224 112 215T74 189T48 150T38 102ZM48 357Q48 334 57 314T81
278T116 254T160 245Q183 245 203 254T238 278T261 313T270 356V720L48 721V357Z" />
<glyph unicode="&quot;" glyph-name="quotedbl" horiz-adv-x="396" d="M29 468H153L195 720H51L29 468ZM231 468H355L397 720H253L231 468Z" />
<glyph unicode="#" glyph-name="numbersign" horiz-adv-x="611" d="M171 274H73Q56 274 42 262T28 233Q28 220 37 211T58 202H155Q153 190 147 162T134 104T122 48T117 12Q117 -1 126 -8T148 -16Q163 -16 173 -6T187 19L227 202H314Q312 193 305 165T291 104T277
45T271 13Q271 2 280 -6T300 -15Q316 -15 328 -7T344 18L386 202H484Q503 202 515 214T527 246Q527 257 518 266T498 275L401 274L438 446H533Q551 446 566 457T582 488Q582 502 573 511T550 520L453 518L497 718H423L381 518H295L337 718H265L223 518L127 520Q110
520 96 509T81 478Q81 465 90 456T112 446H207L171 274ZM243 274L279 446H366L329 274H243Z" />
<glyph unicode="$" glyph-name="dollar" horiz-adv-x="578" d="M295 196Q266 196 239 202T184 217T129 237T76 257L19 60Q85 32 154 12T295 -9V-97H331V-7Q382 -7 431 12T521 66T585 146T610 246Q610 301 586 337T525 398T442 438T354 466Q341 470 332 471L333
524Q350 521 366 516T398 505T430 495T464 491Q505 491 532 519T560 588Q560 629 537 655T479 698T405 720T333 728V818Q333 826 329 832T315 839Q307 839 302 833T297 819V727Q247 722 197 704T106 655T40 580T14 480Q14 423 41 386T110 324T201 285T296 262L295
196ZM297 531L296 480Q291 481 282 484T264 491T249 500T242 513Q242 519 246 522T257 528T270 532T281 533Q287 533 297 531ZM331 197L332 254Q336 252 343 251T356 247T366 242T371 232Q371 214 358 208T331 197Z" />
<glyph unicode="%" glyph-name="percent" horiz-adv-x="803" d="M33 554Q33 515 47 482T87 425T147 386T219 372Q256 372 289 386T348 426T388 484T403 555Q403 593 389 626T349 684T291 723T219 738Q182 738 148 724T89 684T48 625T33 554ZM186 554Q186 567 196
575T218 583Q230 583 240 576T250 555Q250 541 240 534T217 526Q205 526 196 533T186 554ZM592 758L155 130Q138 105 138 75Q138 38 163 11T227 -16Q251 -16 272 -5T308 27L747 656L592 758ZM453 165Q453 128 468 95T508 37T566 -2T637 -17Q674 -17 707 -3T765
36T804 93T819 164Q819 201 805 234T766 292T708 331T638 345Q600 345 567 331T508 293T468 236T453 165ZM606 164Q606 178 615 186T639 194Q652 194 661 186T670 165Q670 151 660 144T636 136Q623 136 615 143T606 164Z" />
<glyph unicode="&amp;" glyph-name="ampersand" horiz-adv-x="724" d="M140 428Q89 396 56 346T23 233Q23 170 49 124T117 48T213 3T323 -12Q377 -12 418 3T508 40Q517 31 530 19T558 -6T587 -26T615 -35Q636 -35 654 -27T685 -4T706 28T714 67Q714 98 701 115T666
152L782 247L643 402L522 307L474 355Q502 365 528 381T573 420T604 470T616 529Q616 585 594 624T536 687T454 722T358 733Q314 733 268 722T183 687T121 626T96 538Q96 504 108 479T140 428ZM381 495Q369 500 355 511T341 537Q341 549 350 558T371 567Q385 567
396 558T408 535Q408 526 399 513T381 495ZM276 284L371 187Q358 184 346 181T321 178Q309 178 297 183T274 197T257 217T250 240Q250 254 257 265T276 284Z" />
<glyph unicode="&apos;" glyph-name="quotesingle" horiz-adv-x="216" d="M29 468H153L195 720H51L29 468Z" />
<glyph unicode="(" glyph-name="parenleft" horiz-adv-x="280" d="M18 359Q18 314 23 270T37 181Q41 163 46 137T58 81T75 22T99 -32T131 -74T173 -95Q178 -96 188 -96Q206 -96 222 -89T252 -70T274 -42T282 -8Q282 3 280 13T274 33Q248 115 228 193T207 360Q207
381 208 405T212 453T219 501T230 544Q236 561 241 586T253 639T265 691T280 732Q281 732 265 736T227 747T180 759T141 770T125 775Q113 754 100 724T75 662T53 597T37 536Q28 492 23 448T18 359Z" />
<glyph unicode=")" glyph-name="parenright" horiz-adv-x="280" d="M282 319Q282 364 277 408T263 497Q257 525 249 569T225 656T187 733T127 773Q117 775 111 775Q93 775 77 768T47 749T26 721T18 687Q18 667 26 645Q39 604 51 565T72 485T87 404T93 319Q93 298
92 274T88 226T81 177T70 134Q65 117 59 92T47 39T34 -13T20 -54Q19 -54 43 -60T96 -75T150 -89T175 -96Q187 -75 200 -46T226 16T248 81T263 142Q272 187 277 230T282 319Z" />
<glyph unicode="*" glyph-name="asterisk" horiz-adv-x="400" d="M13 442L116 430L162 475Q155 460 147 442T138 406Q138 380 157 362T203 344Q229 344 249 362T269 407Q269 424 261 441T245 475L291 430L394 442L333 515L282 543L336 566L392 639L293 655L242
614Q249 628 260 645T271 679Q271 691 265 701T248 718T226 729T203 733Q192 733 180 729T159 718T143 701T136 679Q136 662 147 645T165 614L114 655L15 639L71 566L125 543L74 515L13 442Z" />
<glyph unicode="+" glyph-name="plus" horiz-adv-x="628" d="M99 441V262H251V170Q251 152 258 136T277 107Q302 80 340 80Q357 80 373 86T402 106Q429 133 429 170V261Q448 261 468 260T509 259T548 266T582 287Q608 313 608 349Q608 384 581 411Q566 426 548
432T509 439T468 440T429 438V530Q429 548 422 564T403 593T375 612T340 620Q303 620 277 594T250 531V441H99Z" />
<glyph unicode="," glyph-name="comma" horiz-adv-x="259" d="M78 204L-21 -34Q-30 -55 -30 -79Q-30 -122 -2 -152T71 -183Q101 -183 128 -166T168 -121L274 114L78 204Z" />
<glyph unicode="-" glyph-name="hyphen" horiz-adv-x="456" d="M115 386Q96 386 80 379T51 360T31 332T24 296Q24 258 50 233T115 207H455L456 386H115Z" />
<glyph unicode="." glyph-name="period" horiz-adv-x="294" d="M8 103Q8 77 18 55T44 17T83 -9T131 -19Q156 -19 178 -10T216 16T242 55T252 103Q252 128 243 150T217 188T178 214T131 224Q106 224 84 215T45 189T18 151T8 103Z" />
<glyph unicode="/" glyph-name="slash" horiz-adv-x="434" d="M284 768L14 109Q11 101 9 93T7 75Q7 56 14 39T35 10T65 -10T101 -17Q129 -17 152 -2T186 39L456 698L284 768Z" />
<glyph unicode="0" glyph-name="zero" horiz-adv-x="629" d="M20 360Q20 313 29 266T59 177T109 99T182 38Q217 17 257 4T339 -9Q381 -9 420 3T495 38Q537 63 567 99T617 177T646 266T656 360Q656 407 647 454T617 543T567 622T495 684Q460 705 421 718T339 731Q297
731 257 718T182 684Q140 659 109 623T59 545T30 455T20 360ZM234 360Q234 383 239 413T257 470T289 516T338 535Q368 535 388 517T420 472T437 415T443 362Q443 338 439 308T423 249T391 202T341 183Q308 183 288 201T255 246T239 304T234 360Z" />
<glyph unicode="1" glyph-name="one" horiz-adv-x="628" d="M169 720Q127 720 98 692T69 621Q69 600 77 582T99 550T131 528T170 520H233V2L464 1V611Q464 661 435 690T356 720H169Z" />
<glyph unicode="2" glyph-name="two" horiz-adv-x="628" d="M420 200Q451 226 485 261T549 338T598 422T617 509Q617 565 593 606T529 674T440 714T342 728Q285 728 237 714T142 666Q124 653 108 637T80 602T60 562T52 518Q52 496 59 477T81 444T113 421T155 413Q181
413 199 422T232 444T257 473T281 502T308 524T344 533Q357 533 371 526T385 503Q385 494 373 476T343 436T304 391T263 347T229 312T211 293Q181 262 151 232T90 172Q74 156 64 137T54 94Q54 70 63 53T87 24T123 6T164 0H630V200H420Z" />
<glyph unicode="3" glyph-name="three" horiz-adv-x="626" d="M518 398Q547 423 565 461T583 538Q583 587 562 622T506 681T430 715T344 727Q303 727 268 720T201 700T136 671T68 635L146 459Q156 463 183 474T242 498T299 519T332 528Q344 528 357 523T370 502Q370
494 364 487T350 479Q325 479 301 475T259 459T229 428T217 379V374Q217 337 230 318T263 291T306 280T349 275T382 264T395 234Q395 212 377 201T339 190Q312 190 291 203T249 233T207 264T155 278Q112 278 83 249T53 177Q53 132 82 97T153 38T244 2T331 -10Q382
-10 434 7T528 55T598 132T625 234Q625 293 596 331T518 398Z" />
<glyph unicode="4" glyph-name="four" horiz-adv-x="628" d="M408 729Q383 729 364 723T329 705T299 678T271 642L29 300Q19 286 13 270T7 236Q7 211 17 193T43 162T80 143T124 136H326V0L557 1V134Q579 134 599 140T634 159T658 190T667 233Q667 257 659 275T635
306T601 325T559 332V546Q559 586 552 619T528 677T482 715T408 729ZM225 333L327 491V333H225Z" />
<glyph unicode="5" glyph-name="five" horiz-adv-x="627" d="M248 720Q213 720 184 697T148 638L101 372Q100 368 100 364Q100 360 100 355Q100 318 126 291T190 264Q206 264 221 269T251 280T281 292T313 297Q337 297 358 285T379 244Q379 231 373 221T357 205T336
195T312 192Q291 192 271 198T230 211T190 224T149 230Q128 230 109 223T76 203T54 172T45 133Q45 89 75 61T147 17T235 -5T315 -12Q405 -12 475 25T585 146Q596 171 603 198T610 253Q610 298 594 337T548 404T480 448T396 464Q377 464 357 462T318 455L331 516H553L593
720H248Z" />
<glyph unicode="6" glyph-name="six" horiz-adv-x="628" d="M388 471Q386 471 401 490T437 536T480 592T514 640L317 746Q281 696 245 647T174 548Q156 522 135 495T100 438Q77 393 63 344T49 244Q49 180 73 133T138 54T232 7T345 -9Q402 -9 453 9T543 62T603
145T626 254Q626 293 614 327T580 389T527 435T457 462Q440 466 423 467T388 471ZM334 194Q324 194 314 198T295 209T281 225T275 246Q275 269 294 283T335 298Q357 298 376 284T395 247Q395 224 376 209T334 194Z" />
<glyph unicode="7" glyph-name="seven" horiz-adv-x="628" d="M45 720V521H370L134 162Q117 136 117 105Q117 82 126 62T150 27T187 4T231 -5Q263 -5 292 11T337 57L632 576Q644 597 644 621Q644 643 635 661T611 693T576 713T535 720H45Z" />
<glyph unicode="8" glyph-name="eight" horiz-adv-x="628" d="M137 390Q113 381 95 365T65 327T46 281T40 231Q40 169 66 125T134 51T230 8T338 -6Q392 -6 445 8T541 51T610 125T636 232Q636 256 630 280T612 326T581 364T539 390Q566 416 581 449T596 520Q596
556 583 589T546 650Q528 672 504 687T454 711T399 725T343 729Q314 729 284 726T227 713T174 689T130 650Q107 622 93 589T79 520Q79 482 94 449T137 390ZM339 463Q321 463 305 475T289 506Q289 526 304 538T338 550Q356 550 371 538T387 506Q387 487 372 475T339
463ZM266 258Q266 271 272 283T289 303T312 316T337 321Q350 321 363 316T386 303T403 283T410 257Q410 243 404 232T387 212T364 199T338 194Q325 194 312 199T289 212T273 232T266 258Z" />
<glyph unicode="9" glyph-name="nine" horiz-adv-x="629" d="M288 246Q250 206 216 163T150 74L310 -35Q311 -34 327 -19T370 21T424 74T476 128T512 172Q534 204 555 240T591 314T616 393T626 473Q626 537 602 585T538 664T444 711T331 727Q271 727 220 708T130
655T71 571T49 460Q49 406 68 367T119 303T195 264T288 246ZM280 470Q280 493 298 508T340 524Q362 524 381 509T400 471Q400 448 381 434T340 419Q319 419 300 433T280 470Z" />
<glyph unicode=":" glyph-name="colon" horiz-adv-x="286" d="M39 103Q39 77 49 55T75 17T114 -9T162 -19Q187 -19 209 -10T247 16T273 55T283 103Q283 128 274 150T248 188T209 214T162 224Q137 224 115 215T76 189T49 151T39 103ZM38 437Q38 412 47 390T73 351T112
325T159 315Q184 315 206 324T245 350T271 389T281 437Q281 462 272 484T246 522T207 548T160 558Q135 558 113 549T74 523T48 484T38 437Z" />
<glyph unicode=";" glyph-name="semicolon" horiz-adv-x="300" d="M55 435Q55 409 65 387T91 348T130 322T179 312Q204 312 226 321T265 347T291 386T301 434Q301 459 291 481T265 521T226 548T178 558Q152 558 130 549T91 522T65 483T55 435ZM114 233L-6 -34Q-15
-55 -15 -78Q-15 -122 13 -152T86 -183Q116 -183 143 -166T183 -121L310 143L114 233Z" />
<glyph unicode="&lt;" glyph-name="less" horiz-adv-x="489" d="M29 360L450 127V290L305 360L450 430V593L29 360Z" />
<glyph unicode="=" glyph-name="equal" horiz-adv-x="628" d="M57 327L56 149H521Q539 149 555 156T583 175T603 203T610 237Q610 275 585 301T521 327H57ZM57 548V369H521Q559 369 584 395T610 459Q610 497 584 522T520 548H57Z" />
<glyph unicode="&gt;" glyph-name="greater" horiz-adv-x="489" d="M29 127L450 360L29 593V430L174 360L29 290V127Z" />
<glyph unicode="?" glyph-name="question" horiz-adv-x="522" d="M144 104Q144 79 153 57T179 18T218 -8T266 -18Q291 -18 313 -9T353 17T379 56T389 104Q389 129 379 151T353 190T314 216T266 226Q241 226 219 217T180 191T154 152T144 104ZM378 348Q409 355
437 370T485 408T518 460T530 523Q530 579 507 619T445 686T358 726T259 739Q224 739 181 729T99 697T34 644T7 570Q7 552 13 536T30 508T56 489T90 481Q114 481 134 491T173 513T214 536T260 546Q276 546 291 540T307 513Q307 502 296 497T269 487T233 477T197
460T169 430T158 379Q158 363 158 340Q158 318 158 298T157 262Q157 248 157 248L380 250L378 348Z" />
<glyph unicode="@" glyph-name="at" horiz-adv-x="782" d="M456 72Q456 54 462 40T480 16T507 1T539 -5Q587 -5 625 23T689 94T728 186T742 276Q742 343 717 399T649 495T549 558T425 581Q344 581 276 553T157 474T78 355T49 204Q49 124 75 56T148 -62T261 -141T409
-170Q409 -168 410 -156T411 -131T412 -117Q364 -117 326 -105T257 -71T202 -15T157 61Q141 93 134 128T127 200Q127 265 149 322T211 422T306 490T429 515Q483 515 528 497T606 446T657 368T676 269Q676 221 661 173T611 89Q599 76 584 63T548 49Q529 49 520 62T510
92Q510 123 515 153T525 214L561 418H507L500 373Q490 402 465 415T410 429Q363 429 328 404T269 340T233 256T221 171Q221 141 228 111T251 55T291 13T351 -3Q389 -3 414 18T456 72ZM360 46Q337 46 324 56T302 81T292 115T289 152Q289 179 296 218T318 294T357
356T416 382Q448 382 462 361T477 311Q477 290 472 255T456 182T433 113T404 64Q386 46 360 46Z" />
<glyph unicode="A" glyph-name="A" horiz-adv-x="663" d="M343 726Q280 726 236 692T169 600L-3 160Q-16 129 -16 99Q-16 75 -7 55T19 20T57 -3T102 -11Q129 -11 148 -2T181 24T204 60T222 104H465L499 -23L725 33L517 600Q496 658 451 692T343 726ZM289 303L343
495L397 303H289Z" />
<glyph unicode="B" glyph-name="B" horiz-adv-x="611" d="M29 -1Q121 1 211 1T394 0Q441 0 484 15T560 58T612 126T632 216Q632 258 616 294T568 358Q565 360 560 364T548 371T538 378T532 383Q552 409 561 441T570 505Q570 557 548 597T489 664T407 706T313 720H147Q122
720 101 711T63 685T38 647T29 601V-1ZM261 458V522H312Q326 522 338 513T351 490Q351 476 340 467T314 458H261ZM260 199V266H369Q383 266 392 256T401 231Q401 218 392 209T369 199H260Z" />
<glyph unicode="C" glyph-name="C" horiz-adv-x="644" d="M20 364Q20 303 42 244T102 137Q159 63 240 28T414 -7Q446 -7 487 0T566 25T628 71T654 141Q654 162 646 179T623 208T591 227T553 234Q533 234 514 230T475 219T435 209T391 204Q356 204 329 216T284
250T256 301T246 364Q246 401 258 428T292 474T341 506T403 524Q416 527 429 527Q464 527 505 514T578 485L640 664Q613 673 578 683T506 702T434 717T371 723Q366 723 360 723Q354 723 349 722Q283 713 223 682T118 603T47 494T20 364Z" />
<glyph unicode="D" glyph-name="D" horiz-adv-x="705" d="M29 721V117Q29 93 38 72T62 35T99 10T144 0H338Q417 0 486 26T607 99T688 213T718 361Q718 406 708 446Q690 521 652 573T560 657T441 705T303 720Q234 720 166 720T29 721ZM260 199V520H306Q344 520
377 510T435 478T474 427T488 356Q488 319 474 290T437 241T382 210T315 199H260Z" />
<glyph unicode="E" glyph-name="E" horiz-adv-x="504" d="M29 118Q29 95 38 74T63 37T100 10T144 0H513L512 200H260V262H391Q411 262 430 269T464 289T488 320T497 359Q497 399 467 427Q434 458 390 458H260V519H418Q439 519 457 527T488 549T509 581T517 620Q517
640 510 658T489 690T458 712T420 720H363L29 719V118Z" />
<glyph unicode="F" glyph-name="F" horiz-adv-x="474" d="M29 0V603Q29 628 38 649T62 686T99 711T146 720H499L500 518H261V447H394Q415 447 433 439T464 417T485 385T493 346Q493 326 485 308T463 277T431 256T393 248H261V0H29Z" />
<glyph unicode="G" glyph-name="G" horiz-adv-x="759" d="M541 237Q532 223 517 215T485 201T449 193T416 191Q380 191 349 203T296 238T260 291T247 358Q247 395 259 426T294 480T347 516T415 529Q457 529 499 512T578 476L655 665Q602 698 541 713T418 728Q340
728 269 701T142 624T53 506T20 356Q20 270 53 203T142 88T272 16T427 -9Q500 -9 564 14T677 80T753 184T781 321Q781 376 757 407T674 439H480Q460 439 442 431T409 410T387 378T379 339Q379 296 408 267T481 237H541Z" />
<glyph unicode="H" glyph-name="H" horiz-adv-x="729" d="M29 0V612Q29 636 38 657T62 694T99 719T144 728Q192 728 227 693Q261 659 261 611V466H488V718L720 719V106Q720 82 711 61T686 25T650 0T605 -10Q581 -10 560 -1T523 24T498 61T489 106V266H260V0H29Z" />
<glyph unicode="I" glyph-name="I" horiz-adv-x="265" d="M29 -1H260V611Q260 635 251 656T227 692T190 717T145 727Q121 727 100 718T63 694T38 657T29 612V-1ZM60 837Q60 805 82 782T137 759Q169 759 191 781T214 836Q214 868 192 891T137 915Q121 915 107 909T83
892T66 867T60 837Z" />
<glyph unicode="J" glyph-name="J" horiz-adv-x="453" d="M345 728Q321 728 301 719T265 694T240 657T231 612V252Q231 243 230 232T226 211T216 195T197 188Q188 188 169 193T127 206T83 220T50 231L7 48Q31 39 57 29T109 11T162 -4T215 -10Q275 -10 320 9T396
63T443 146T459 252V610Q459 634 451 655T427 692T390 718T345 728Z" />
<glyph unicode="K" glyph-name="K" horiz-adv-x="648" d="M29 0H259V301L482 31Q498 12 521 3T567 -7Q591 -7 612 2T650 26T675 63T685 108Q685 151 656 183L475 384L674 580L504 735L260 469V612Q260 636 251 657T227 693T191 718T146 728Q122 728 101 720T64
696T39 659T29 614V0Z" />
<glyph unicode="L" glyph-name="L" horiz-adv-x="475" d="M29 0H500V199H261V611Q261 635 252 656T227 693T190 718T145 728Q121 728 100 719T63 694T38 657T29 612V0Z" />
<glyph unicode="M" glyph-name="M" horiz-adv-x="903" d="M246 730Q186 730 145 695T94 602L12 127Q11 122 11 116T10 105Q10 81 19 61T43 25T79 1T124 -8Q145 -8 164 -1T199 20T225 51T238 90L272 377L365 76H564L656 377L705 -11L930 26L835 602Q825 661 784
695T683 730Q632 730 592 700T538 621L464 370L390 621Q376 670 337 700T246 730Z" />
<glyph unicode="N" glyph-name="N" horiz-adv-x="731" d="M29 0L260 -1V352L522 34Q539 14 562 3T611 -8Q635 -8 656 1T693 25T718 62T727 107V611Q727 635 718 656T693 692T657 717T612 727Q588 727 567 718T531 693T506 656T496 611V376L242 674Q223 696 198
712T143 729Q119 729 98 720T62 694T38 656T29 611V0Z" />
<glyph unicode="O" glyph-name="O" horiz-adv-x="774" d="M20 360Q20 282 51 215T135 97T257 19T403 -10Q479 -10 548 18T670 97T754 214T786 360Q786 438 755 505T671 623T549 701T403 730Q327 730 258 702T136 623T52 506T20 360ZM249 360Q249 393 260 424T291
478T339 515T403 529Q438 529 466 515T515 478T547 423T558 358Q558 325 547 295T515 242T465 205T402 191Q367 191 339 205T291 242T260 296T249 360Z" />
<glyph unicode="P" glyph-name="P" horiz-adv-x="605" d="M29 111Q29 87 38 66T62 28T99 2T145 -8Q192 -8 225 25Q243 43 251 65T261 112T262 160T260 208Q293 208 327 207T394 211Q446 218 490 238T567 291T617 368T635 467Q635 525 613 572T553 652T465 703T359
721H29V111ZM260 408V516H352Q375 516 391 501T408 463Q408 440 392 424T352 408H260Z" />
<glyph unicode="Q" glyph-name="Q" horiz-adv-x="776" d="M722 161Q754 204 770 254T786 358Q786 436 755 504T672 622T550 701T403 730Q327 730 258 702T136 623T52 506T20 360Q20 283 51 216T136 98T258 19T403 -11Q448 -11 489 -1T572 26L712 -112L853 32L722
161ZM249 360Q249 393 260 424T291 478T339 515T403 529Q438 529 466 515T515 478T546 424T557 360Q557 327 546 297T515 243T467 205T404 191Q369 191 340 204T291 241T260 295T249 360Z" />
<glyph unicode="R" glyph-name="R" horiz-adv-x="608" d="M29 108Q29 84 38 63T63 26T99 1T144 -9Q168 -9 188 0T225 24T250 60T259 105V274L469 -35L665 87L519 288Q570 327 598 371T627 482Q627 540 607 584T551 659T468 705T365 721H29V108ZM260 434V520H360Q377
520 387 506T397 476Q397 459 385 447T356 434H260Z" />
<glyph unicode="S" glyph-name="S" horiz-adv-x="578" d="M56 261L55 260Q54 258 52 252Q48 242 46 233T40 213Q35 197 29 178T17 139T6 100T-1 64Q25 49 63 36T144 13T226 -2T296 -8Q371 -8 436 14T552 94Q578 124 593 161T608 239Q608 286 592 320T550 378T488
419T415 448T338 469T265 487Q258 489 251 493T243 505Q243 519 256 524T280 530Q304 530 328 524T375 512T421 499T469 493Q508 493 534 521T560 588Q560 629 536 656T476 698T400 720T326 727Q272 727 217 712T118 667T45 592T17 485Q17 429 39 392T98 331T179
293T270 268Q276 266 293 263T327 255T359 243T373 227Q373 217 367 211T350 200T330 195T312 193Q284 193 250 201T180 219T113 241T56 261Z" />
<glyph unicode="T" glyph-name="T" horiz-adv-x="529" d="M11 720L12 522H169V107Q169 83 178 62T202 26T239 1T284 -8Q307 -8 328 1T364 25T389 61T398 105V520H482Q502 520 520 528T551 549T573 580T581 618Q581 639 574 657T553 690T522 712T482 720H11Z" />
<glyph unicode="U" glyph-name="U" horiz-adv-x="738" d="M29 323Q29 244 56 183T130 79T242 14T384 -8Q460 -8 525 14T638 78T713 182T740 323V611Q740 635 731 656T706 694T669 719T624 729Q600 729 580 720T543 695T518 658T509 613V316Q509 259 476 224T385
189Q327 189 294 224T260 316V721H29V323Z" />
<glyph unicode="V" glyph-name="V" horiz-adv-x="632" d="M174 730L-42 648L220 68Q235 34 261 12T326 -11Q371 -11 396 9T438 68L662 571Q671 592 671 615Q671 639 662 659T636 695T598 719T553 728Q517 728 488 708T447 653L329 329L174 730Z" />
<glyph unicode="W" glyph-name="W" horiz-adv-x="961" d="M-18 689L135 119Q150 62 187 27T287 -9Q339 -9 378 22T432 101L505 331L578 102Q593 54 632 23T723 -8Q786 -8 822 27T875 120L1005 592Q1008 602 1008 612Q1008 635 999 656T973 693T935 718T891 728Q846
728 818 700T777 630L692 339L607 639H403L318 339L210 727L-18 689Z" />
<glyph unicode="X" glyph-name="X" horiz-adv-x="625" d="M186 387L21 176Q-3 146 -3 108Q-3 85 6 64T31 26T68 1T112 -9Q145 -9 171 10T216 55L320 209L424 55Q442 29 468 10T528 -9Q551 -9 571 0T608 26T633 63T642 107Q642 144 618 176L453 387L585 538Q599
554 606 573T614 613Q614 635 605 656T580 693T544 718T501 728Q469 728 442 709T396 665L320 566L185 737L16 586L186 387Z" />
<glyph unicode="Y" glyph-name="Y" horiz-adv-x="598" d="M160 730L-16 586L205 338V108Q205 84 214 63T238 25T275 0T321 -10Q345 -10 366 -1T402 25T427 63T436 108V338L627 545Q639 558 644 574T650 608Q650 631 641 653T617 691T580 718T535 728Q504 728 479
711T434 671L320 533L160 730Z" />
<glyph unicode="Z" glyph-name="Z" horiz-adv-x="649" d="M317 521L34 163Q23 150 18 133T13 99Q13 76 22 58T46 27T80 7T122 0H585Q627 0 656 28T685 99Q685 120 678 138T657 169T625 191T586 199H341L621 550Q633 565 641 581T649 618Q649 639 640 658T616 690T582
712T541 720H26V521H317Z" />
<glyph unicode="[" glyph-name="bracketleft" horiz-adv-x="341" d="M38 -33Q38 -65 58 -89T113 -113H381L378 85H268V635H291Q311 635 329 643T360 664T380 696T388 734Q388 776 360 804T289 833H113Q79 833 59 809T38 753V-33Z" />
<glyph unicode="\" glyph-name="backslash" horiz-adv-x="320" d="M29 720L155 0H299L173 720H29Z" />
<glyph unicode="]" glyph-name="bracketright" horiz-adv-x="341" d="M26 85L28 -113H285Q319 -113 339 -89T359 -33V753Q359 785 339 809T285 833H108Q66 833 38 805T9 734Q9 714 16 696T37 665T68 643T106 635H129V85H26Z" />
<glyph unicode="^" glyph-name="asciicircum" horiz-adv-x="537" d="M29 149H193L262 295L332 149H496L262 571L29 149Z" />
<glyph unicode="_" glyph-name="underscore" horiz-adv-x="428" d="M29 -237H389V-194H29V-237Z" />
<glyph unicode="`" glyph-name="grave" horiz-adv-x="280" d="M91 794L37 659L219 588Q232 583 245 583Q274 583 295 604T317 655Q317 676 305 694T273 720L91 794Z" />
<glyph unicode="a" glyph-name="a" horiz-adv-x="613" d="M414 485Q393 520 360 535T287 550Q228 550 179 527T94 464T40 372T20 263Q20 206 40 156T96 70T181 12T287 -9Q328 -9 360 6T414 56Q412 43 412 29T414 0H607V439Q607 487 582 518T505 549Q491 549 476
545T447 534T424 514T414 485ZM241 265Q241 281 246 297T261 325T284 346T316 354Q352 354 372 328T393 267Q393 251 388 235T372 207T348 187T316 179Q298 179 285 186T261 206T246 233T241 265Z" />
<glyph unicode="b" glyph-name="b" horiz-adv-x="610" d="M29 106Q29 54 57 22T139 -10Q168 -10 190 5T219 50Q245 20 280 7T354 -7Q412 -7 460 16T543 79T597 169T616 276Q616 332 597 381T543 468T460 528T354 550Q302 550 251 530V763L29 764V106ZM319 181Q300
181 286 188T262 208T248 237T243 271Q243 304 264 329T320 355Q356 355 375 329T394 269Q394 234 375 208T319 181Z" />
<glyph unicode="c" glyph-name="c" horiz-adv-x="513" d="M20 271Q20 207 44 156T111 68T208 12T324 -8H332Q361 -8 397 -4T464 13T517 50T538 113Q538 132 530 149T509 179T478 199T442 207Q420 207 387 199T323 190Q288 190 264 211T240 269Q240 306 265 325T326
344Q344 344 362 340T399 331T436 321T473 313Q481 363 490 408T504 504Q469 518 433 528T359 538Q323 538 285 534T212 520T145 491T88 444Q58 409 39 364T20 271Z" />
<glyph unicode="d" glyph-name="d" horiz-adv-x="613" d="M385 530Q359 539 334 544T282 550Q225 550 177 528T94 469T40 382T20 276Q20 220 39 169T92 79T175 17T281 -7Q320 -7 355 6T417 50Q423 21 445 6T497 -10Q551 -10 579 22T607 106V764H385V530ZM317 181Q279
181 260 207T241 269Q241 303 260 329T316 355Q354 355 374 328T394 266Q394 233 373 207T317 181Z" />
<glyph unicode="e" glyph-name="e" horiz-adv-x="589" d="M253 217H513Q556 217 580 233T604 296Q604 350 579 396T512 475T420 528T318 547Q258 547 204 527T109 471T44 384T20 270Q20 201 47 149T120 62T225 10T347 -8Q385 -8 423 -3T498 14L474 184Q448 179
421 175T366 170Q334 170 304 180T253 217ZM255 325Q260 349 276 366T318 383Q343 383 357 366T374 325H255Z" />
<glyph unicode="f" glyph-name="f" horiz-adv-x="329" d="M72 541Q51 541 33 535T0 516T-23 487T-32 447Q-32 429 -24 412T-3 380T28 356T64 347H70V-236H291V346Q312 346 330 353T363 372T385 403T393 442Q393 487 365 514T292 541Q292 546 292 550T291 559Q291
568 297 574T312 582Q331 580 348 587T379 607T399 637T407 674Q407 701 395 721T362 754T318 773T269 780H222Q171 780 142 758T97 700T77 623T72 541Z" />
<glyph unicode="g" glyph-name="g" horiz-adv-x="611" d="M415 488Q392 520 359 534T286 549Q227 549 178 526T94 463T40 371T20 262Q20 205 39 155T94 69T177 11T284 -11Q310 -11 335 -5T384 16Q384 14 384 12T385 7Q385 -27 362 -47T305 -68Q266 -68 227 -59T150
-41L126 -227Q168 -241 212 -249T302 -258Q383 -258 440 -232T534 -161T588 -52T606 87V436Q606 490 581 521T499 552Q468 552 444 536T415 488ZM317 186Q280 186 261 212T241 272Q241 306 263 330T320 355Q337 355 351 348T375 328T390 300T396 268Q396 234 374
210T317 186Z" />
<glyph unicode="h" glyph-name="h" horiz-adv-x="593" d="M29 1H252V311Q252 335 269 350T309 366Q332 366 347 350T363 310V101Q363 78 371 58T395 22T430 -3T473 -12Q497 -12 517 -4T553 20T578 55T587 100V360Q587 403 572 438T530 497T467 535T389 549Q354
549 318 541T252 515V675Q252 698 243 718T219 754T184 777T140 786Q117 786 97 778T62 754T38 719T29 676V1Z" />
<glyph unicode="i" glyph-name="i" horiz-adv-x="260" d="M32 2L255 1V435Q255 457 246 477T222 513T187 538T144 547Q121 547 101 539T65 515T41 480T32 436V2ZM60 687Q60 655 82 632T137 609Q169 609 191 631T214 686Q214 718 192 741T137 765Q121 765 107 759T83
742T66 717T60 687Z" />
<glyph unicode="j" glyph-name="j" horiz-adv-x="259" d="M33 -150Q33 -172 41 -192T65 -227T99 -252T142 -261Q165 -261 185 -253T221 -229T246 -194T255 -150V518L33 519V-150ZM60 687Q60 655 82 632T137 609Q169 609 191 631T214 686Q214 718 192 741T137 765Q121
765 107 759T83 742T66 717T60 687Z" />
<glyph unicode="k" glyph-name="k" horiz-adv-x="532" d="M29 1L250 0V207L412 -24L592 103L433 296Q448 311 464 327T495 360T519 398T529 441Q529 464 521 483T497 516T462 538T420 546Q393 546 370 534T329 501L250 399V675Q250 698 241 718T217 753T182 776T139
785Q116 785 96 776T61 752T38 717T29 675V1Z" />
<glyph unicode="l" glyph-name="l" horiz-adv-x="258" d="M29 0L251 1V673Q251 695 243 715T219 750T184 775T142 784Q119 784 99 776T63 754T38 719T29 675V0Z" />
<glyph unicode="m" glyph-name="m" horiz-adv-x="895" d="M29 0H249V310Q249 332 265 345T301 358Q321 358 334 343T348 309V0L568 -1V307Q568 327 582 341T617 355Q637 355 651 341T666 306V102Q666 78 675 58T699 23T735 0T779 -9Q802 -9 822 0T857 24T880 59T889
102V361Q889 403 873 437T828 496T763 534T686 548Q640 548 597 533T517 490Q485 520 444 536T359 552Q319 552 282 536T221 486Q216 517 193 532T140 548Q86 548 58 519T29 436V0Z" />
<glyph unicode="n" glyph-name="n" horiz-adv-x="592" d="M29 1H251V310Q251 333 267 349T307 366Q330 366 346 350T363 310V102Q363 78 372 58T396 23T431 0T476 -9Q499 -9 519 0T554 24T578 60T587 103V359Q587 404 569 439T519 499T449 536T367 549Q324 549
287 533T224 481Q217 512 193 531T137 550Q114 550 94 541T60 516T37 479T29 436V1Z" />
<glyph unicode="o" glyph-name="o" horiz-adv-x="601" d="M20 267Q20 206 44 155T109 67T203 10T316 -11Q376 -11 429 10T523 68T588 157T612 270Q612 331 588 382T524 471T430 529T316 550Q256 550 202 529T108 470T44 380T20 267ZM238 268Q238 285 243 301T259
329T283 349T316 357Q334 357 348 350T373 330T388 301T394 268Q394 232 375 204T316 175Q297 175 283 183T258 204T243 234T238 268Z" />
<glyph unicode="p" glyph-name="p" horiz-adv-x="611" d="M29 -237H251V13Q302 -7 354 -7Q411 -7 459 14T542 73T596 160T616 266Q616 321 597 372T544 463T461 526T355 550Q316 550 281 536T219 492Q213 521 190 536T138 552Q83 552 56 520T29 436V-237ZM243
273Q243 290 248 306T262 334T286 354T319 362Q356 362 375 335T394 273Q394 239 375 213T319 187Q284 187 264 213T243 273Z" />
<glyph unicode="q" glyph-name="q" horiz-adv-x="610" d="M417 492Q391 522 356 536T280 550Q223 550 175 527T93 464T39 373T20 266Q20 210 39 161T93 74T176 14T281 -8Q291 -8 305 -7T334 -3T363 4T385 13V-239L607 -240V436Q607 488 579 520T497 552Q468 552
446 537T417 492ZM241 273Q241 308 260 334T317 361Q352 361 373 335T394 276Q394 241 374 214T316 187Q280 187 261 213T241 273Z" />
<glyph unicode="r" glyph-name="r" horiz-adv-x="378" d="M29 -1H250V206Q250 228 251 252T269 293Q289 315 320 325T380 347T429 379T450 443Q450 464 442 482T420 514T387 536T347 544Q312 544 285 524T243 472Q243 491 235 505T214 528T184 542T150 547Q126
547 105 539T66 517T39 482T29 436V-1Z" />
<glyph unicode="s" glyph-name="s" d="M62 206L24 42Q81 22 139 6T258 -10Q298 -10 340 0T417 33T474 90T496 171Q496 215 477 245T430 294T368 326T306 347T258 363T239 381Q239 384 242 387T247 392Q254 395 262 395Q280 395 297 391T333 382T369 373T405 369Q437
369 459 390T482 443Q482 476 458 496T400 528T331 544T271 549Q232 549 189 539T110 507T51 452T27 372Q27 328 46 300T93 253T154 224T215 207T262 193T281 174Q281 161 269 160T248 159Q238 159 213 165T158 179T102 194T62 206Z" />
<glyph unicode="t" glyph-name="t" horiz-adv-x="344" d="M83 541Q62 541 43 536T9 519T-15 490T-24 449Q-24 427 -15 410T8 381T42 363T82 357V0L305 -1V355Q326 355 345 361T380 378T404 407T413 448Q413 495 381 518T306 541V586Q306 609 298 630T274 666T239
691T194 700Q171 700 151 691T115 667T92 632T83 588V541Z" />
<glyph unicode="u" glyph-name="u" horiz-adv-x="590" d="M29 243Q29 175 48 127T103 49T190 4T307 -11Q371 -11 422 3T510 48T565 127T584 243V436Q584 459 575 479T551 515T516 538T472 547Q449 547 429 538T393 514T369 478T360 434V244Q360 219 347 201T306
183Q279 183 266 201T252 244V535L29 536V243Z" />
<glyph unicode="v" glyph-name="v" horiz-adv-x="501" d="M267 296L161 542L-24 451L160 73Q177 37 202 16T270 -6Q308 -6 332 18T373 73L529 383Q535 396 539 409T543 437Q543 459 534 479T510 514T475 538T432 547Q397 547 366 528T324 474L267 296Z" />
<glyph unicode="w" glyph-name="w" horiz-adv-x="811" d="M260 315L169 557L-13 460L153 72Q167 39 193 18T257 -3Q294 -3 321 17T362 71L420 213L478 71Q492 37 519 17T584 -3Q622 -3 647 18T688 72L841 382Q854 407 854 438Q854 461 846 481T822 517T787 540T743
549Q709 549 680 530T639 479L581 315L514 501H327L260 315Z" />
<glyph unicode="x" glyph-name="x" horiz-adv-x="549" d="M150 281L30 184Q13 170 4 150T-6 106Q-6 84 3 64T27 27T62 2T105 -8Q133 -8 157 6T199 41L294 159L388 41Q405 20 429 6T481 -8Q504 -8 524 1T559 26T583 62T592 106Q592 129 583 149T557 184L437 281L529
352Q548 366 557 389T566 436Q566 483 535 515T456 548Q401 548 368 504L294 404L151 557L2 415L150 281Z" />
<glyph unicode="y" glyph-name="y" horiz-adv-x="497" d="M173 539L-22 451L151 54L74 -113Q64 -134 64 -160Q64 -182 73 -200T97 -231T131 -252T172 -260Q212 -260 236 -238T276 -181L522 390Q533 415 533 441Q533 463 524 483T500 517T464 539T421 548Q376 548
353 522T316 457L265 305L173 539Z" />
<glyph unicode="z" glyph-name="z" horiz-adv-x="530" d="M40 541V346H214L31 130Q11 107 11 75Q11 53 19 39T41 16T72 4T109 0H472Q492 0 509 8T540 29T560 60T568 98Q568 118 560 136T539 167T508 187T470 195H340L524 414Q544 437 544 466Q544 506 517 523T454
541H40Z" />
<glyph unicode="{" glyph-name="braceleft" horiz-adv-x="391" d="M29 360Q59 359 77 338T96 288V-22Q96 -69 122 -95T195 -122H373L374 -37Q374 -37 358 -38T322 -35T286 -15T269 32V266Q269 304 243 330T180 360Q217 364 243 390T269 454V708Q269 729 277 738T298
752T325 756Q340 756 352 759T372 770T381 798Q381 816 369 829T338 842H195Q147 842 122 816T96 742V432Q96 403 78 382T29 360Z" />
<glyph unicode="|" glyph-name="bar" horiz-adv-x="194" d="M29 0H173V720H29V0Z" />
<glyph unicode="}" glyph-name="braceright" horiz-adv-x="391" d="M381 360Q351 361 333 382T314 432V742Q314 789 288 815T215 842H37L36 757Q36 757 52 758T88 755T124 735T141 688V454Q141 416 167 390T230 360Q193 356 167 330T141 266V12Q141 -9 133 -18T112
-32T85 -36Q70 -36 58 -39T38 -50T29 -78Q29 -96 41 -109T72 -122H215Q263 -122 288 -96T314 -22V288Q314 317 332 338T381 360Z" />
<glyph unicode="~" glyph-name="asciitilde" horiz-adv-x="506" d="M29 265H134Q134 272 136 282T142 301T153 316T168 323Q181 323 202 314T249 295T302 276T354 267Q393 267 419 286T460 334T483 397T490 464H385Q385 457 383 448T377 429T367 414T352 407Q337
407 315 415T268 434T216 454T165 463Q126 463 100 444T59 396T36 332T29 265Z" />
<glyph unicode="&#xa1;" glyph-name="exclamdown" horiz-adv-x="285" d="M282 600Q282 625 273 647T247 685T208 711T160 721Q135 721 113 712T74 686T48 647T38 599Q38 573 47 551T74 513T113 488T161 478Q186 478 208 487T246 513T272 552T282 600ZM272 345Q272
368 263 388T239 424T204 448T160 457Q137 457 117 448T82 424T59 389T50 346V-18L272 -19V345Z" />
<glyph unicode="&#xa2;" glyph-name="cent" horiz-adv-x="513" d="M293 542Q238 537 189 516T102 459T42 375T20 269Q20 215 42 165T103 77T191 17T295 -6V-101Q295 -108 300 -113T312 -118Q320 -118 325 -113T331 -100V-7Q344 -7 371 -3T428 6T487 17T532 26L514
220Q468 212 423 204T330 190V346Q359 341 387 333T445 325Q487 325 511 353T535 421Q535 458 514 481T461 518T393 537T329 542V612Q329 620 324 624T311 629Q304 629 299 625T293 613V542ZM294 342V195Q271 206 255 225T239 272Q239 302 254 316T294 342Z" />
<glyph unicode="&#xa3;" glyph-name="sterling" horiz-adv-x="670" d="M127 457Q104 457 84 451T48 431T23 399T14 356Q14 335 22 317T44 286T76 266T116 258H161Q161 243 154 227T138 196T118 168T99 143V142Q89 122 89 96Q89 80 95 63T113 32T139 9T172 0H171H673L674
198H383Q384 212 387 227T394 257H511V455H367Q358 470 358 488Q358 500 364 508T379 522T399 529T421 531Q449 531 473 520T520 496T567 472T618 461Q636 461 652 470T679 493T697 525T704 560Q704 597 680 626T621 676T547 710T476 727Q458 729 440 730T403 732Q349
732 299 719T209 679T146 608T122 504Q122 493 123 481T127 457Z" />
<glyph unicode="&#xa5;" glyph-name="yen" horiz-adv-x="670" d="M352 533L239 671Q220 694 195 711T137 728Q113 728 93 718T57 691T32 652T23 607Q23 590 28 574T46 545L161 430L75 429Q59 429 47 418T35 390Q35 374 47 363T75 352H225L237 338L239 313H75Q59
313 47 302T34 274Q34 257 46 247T74 236H239L240 3H471L470 237H638Q653 237 662 249T672 276Q672 290 663 301T638 313L471 312V338L482 352L637 353Q653 353 662 365T671 392Q671 407 662 418T637 430H549L659 545Q671 558 676 574T682 608Q682 631 673 652T649
691T612 718T567 728Q536 728 511 711T466 671L352 533Z" />
<glyph unicode="&#xa7;" glyph-name="section" horiz-adv-x="607" d="M98 435Q60 403 39 358T18 263Q18 204 38 169T92 111T170 73T261 40H263Q275 35 286 31T306 22T320 7T326 -17Q326 -40 304 -40Q277 -40 257 -26T216 7T175 39T125 54Q106 54 88 47T55 26T31
-4T22 -41Q22 -74 45 -103T103 -155T174 -193T240 -212Q257 -214 274 -215T308 -217Q351 -217 395 -207T476 -175T535 -118T558 -31Q558 28 519 73Q566 104 593 154T621 261Q621 310 597 343T536 397T457 433T378 461T317 489T292 527Q292 541 300 550T323 559Q331
559 353 549T400 524T447 496T480 476L583 626Q561 653 525 674T447 709T364 730T287 737Q247 737 209 728T139 693Q105 665 81 628T57 546Q57 515 68 487T98 435ZM255 312L346 279Q363 273 375 262T387 232Q387 217 375 208V207L374 205L285 237Q267 244 254 252T241
282Q241 293 244 299T255 312Z" />
<glyph unicode="&#xa8;" glyph-name="dieresis" horiz-adv-x="324" d="M-29 683Q-29 642 -3 614T66 585Q106 585 133 612T161 680Q161 699 154 716T134 747T104 767T66 775Q47 775 30 768T0 749T-21 719T-29 683ZM181 679Q181 659 188 642T209 613T239 593T276
585Q295 585 312 592T343 612T364 642T372 680Q372 699 365 716T344 747T314 767T276 775Q235 775 208 747T181 679Z" />
<glyph unicode="&#xa9;" glyph-name="copyright" horiz-adv-x="850" d="M50 360Q50 283 79 215T159 97T278 17T423 -13Q500 -13 568 16T686 96T766 215T796 360Q796 437 767 505T687 624T568 704T423 734Q346 734 278 705T160 624T80 505T50 360ZM119 360Q119
423 142 479T207 578T303 644T423 669Q487 669 542 645T639 578T703 480T727 361Q727 298 704 242T639 143T543 76T423 51Q360 51 305 75T208 142T143 241T119 360ZM232 358Q232 311 246 270T288 199T354 152T442 134Q457 134 480 137T525 149T562 170T578 204Q578
221 568 234T539 248Q529 248 518 244T496 235T472 226T445 222Q417 222 396 233T359 262T337 303T329 353Q329 380 335 405T355 451T390 484T442 497Q462 497 480 491T518 478L519 477Q526 474 535 474Q552 474 562 487T573 517Q573 538 559 551T525 571T484 581T447
584Q397 584 358 567T290 520T247 448T232 358Z" />
<glyph unicode="&#xaa;" glyph-name="ordfeminine" horiz-adv-x="421" d="M64 319V223H343Q363 223 375 237T387 271Q387 290 375 304T343 319H64ZM282 690Q265 710 241 720T190 731Q153 731 124 715T74 672T42 613T31 545Q31 511 42 478T73 419T123 376T189 360Q216
360 240 371T281 404Q281 382 293 371T328 360Q347 360 361 374T375 407V681Q375 702 359 715T323 729Q305 729 294 719T282 690ZM125 544Q125 562 130 579T144 611T169 633T204 642Q224 642 238 634T262 611T275 580T279 545Q279 528 275 511T261 479T238 456T204
447Q184 447 170 455T145 478T130 509T125 544Z" />
<glyph unicode="&#xab;" glyph-name="guillemotleft" horiz-adv-x="552" d="M212 528Q189 528 169 516T135 486L32 353Q21 339 14 322T6 286Q6 260 27 225T77 154T136 86T187 36L295 147Q269 183 242 219T183 287L267 372Q281 386 289 404T298 442Q298 459 291
474T272 502T245 521T212 528ZM476 528Q453 528 433 516T399 486L296 353Q285 339 278 322T271 287Q271 260 291 225T341 154T400 87T450 36L559 147Q533 183 506 219T447 287L531 372Q545 386 553 404T562 442Q562 477 537 502T476 528Z" />
<glyph unicode="&#xac;" glyph-name="logicalnot" horiz-adv-x="620" d="M29 360H497V216H605V504H29V360Z" />
<glyph unicode="&#xae;" glyph-name="registered" horiz-adv-x="850" d="M50 360Q50 283 79 215T159 97T278 17T423 -13Q500 -13 568 16T686 96T766 215T796 360Q796 437 767 505T687 624T568 704T423 734Q346 734 278 705T160 624T80 505T50 360ZM119 360Q119
423 142 479T207 578T303 644T423 669Q487 669 542 645T639 578T703 480T727 361Q727 298 704 242T639 143T543 76T423 51Q360 51 305 75T208 142T143 241T119 360ZM258 204Q258 176 278 156T327 135Q355 135 375 154T396 203V304L521 119L638 192L551 312Q580
335 597 361T615 428Q615 462 603 488T570 533T521 560T459 570H258V204ZM396 399V450H456Q466 450 472 442T478 424Q478 414 471 407T453 399H396Z" />
<glyph unicode="&#xaf;" glyph-name="overscore" horiz-adv-x="364" d="M62 736Q35 736 17 716T-1 669Q-1 643 15 621T61 599H332Q361 599 381 619T401 668Q401 696 381 716T333 736H62Z" />
<glyph unicode="&#xb0;" glyph-name="degree" horiz-adv-x="351" d="M29 590Q29 560 40 534T71 489T117 458T173 446Q203 446 229 457T274 488T305 534T317 590Q317 620 306 646T275 691T229 722T173 734Q143 734 117 723T72 692T41 646T29 590ZM79 590Q79 609
86 626T106 656T136 676T173 684Q192 684 209 677T239 657T259 627T267 590Q267 571 260 554T239 525T209 505T173 497Q154 497 137 504T107 524T87 554T79 590Z" />
<glyph unicode="&#xb1;" glyph-name="plusminus" horiz-adv-x="618" />
<glyph unicode="&#xb4;" glyph-name="acute" horiz-adv-x="283" d="M252 798Q239 798 226 793L44 721Q24 713 11 695T-2 654Q-2 624 19 603T71 581Q87 581 98 586L280 660Q300 668 312 686T324 726Q324 755 303 776T252 798Z" />
<glyph unicode="&#xb5;" glyph-name="mu" horiz-adv-x="604" />
<glyph unicode="&#xb6;" glyph-name="paragraph" horiz-adv-x="631" d="M449 -223H535V641Q546 641 558 641Q571 641 582 644T600 656T607 681Q607 698 595 709T566 720H247Q202 720 162 703T93 655T46 585T29 500Q29 455 46 415T92 346T161 299T246 281H307V-223H392L394
641H450L449 -223Z" />
<glyph unicode="&#xb7;" glyph-name="middot" horiz-adv-x="273" d="M31 275Q31 300 41 322T67 361T106 386T154 396T201 387T239 361T265 322T275 275T266 228T240 189T201 163T154 153Q128 153 106 162T67 188T41 227T31 275Z" />
<glyph unicode="&#xb8;" glyph-name="cedilla" horiz-adv-x="207" d="M67 31Q59 18 49 3T30 -29T14 -63T7 -97Q7 -109 11 -122T22 -145T41 -163T66 -170Q92 -170 105 -148L205 31H67Z" />
<glyph unicode="&#xba;" glyph-name="ordmasculine" horiz-adv-x="409" d="M84 319Q64 319 47 306T29 271Q29 249 46 236T84 223H360V319H84ZM29 546Q29 508 41 475T76 415T131 374T202 359Q241 359 272 374T326 415T361 475T374 546Q374 583 362 616T327 675T272
716T202 731Q164 731 132 716T77 676T42 617T29 546ZM201 444Q180 444 166 453T142 478T129 512T125 549Q125 566 130 583T145 613T169 635T203 644Q222 644 236 635T259 612T273 581T278 546Q278 528 274 510T260 478T237 454T201 444Z" />
<glyph unicode="&#xbb;" glyph-name="guillemotright" horiz-adv-x="552" d="M355 13Q378 13 398 25T432 55L535 188Q546 202 553 219T561 255Q561 281 540 316T490 387T430 455T380 505L272 394Q298 358 325 322T384 254L300 169Q286 155 278 137T269 99Q269
82 276 67T295 39T322 20T355 13ZM91 13Q114 13 134 25T168 55L271 188Q282 202 289 219T296 254Q296 281 276 316T226 387T167 454T117 505L8 394Q34 358 61 322T120 254L36 169Q22 155 14 137T5 99Q5 64 30 39T91 13Z" />
<glyph unicode="&#xbf;" glyph-name="questiondown" horiz-adv-x="522" d="M393 617Q393 642 384 664T358 703T319 729T271 739Q245 739 223 730T184 703T158 664T148 616Q148 591 157 569T184 531T223 505T271 495Q296 495 318 504T357 530T383 569T393 617ZM159
373Q127 365 100 350T52 312T19 261T7 198Q7 142 30 102T92 35T179 -5T278 -18Q312 -18 356 -8T438 24T503 77T530 151Q530 186 507 213T447 240Q423 240 403 230T364 207T323 185T277 174Q261 174 246 181T230 208Q230 219 241 224T268 234T304 244T340 261T368
291T379 342Q379 374 377 407T373 472L155 469L159 373Z" />
<glyph unicode="&#xc0;" glyph-name="Agrave" horiz-adv-x="663" d="M506 834Q506 855 494 873T462 899L280 973Q269 978 253 978Q223 978 202 957T180 905Q180 883 192 865T226 838L408 767Q421 762 434 762Q463 762 484 783T506 834ZM343 726Q280 726 236 692T169
600L-3 160Q-16 129 -16 99Q-16 75 -7 55T19 20T57 -3T102 -11Q129 -11 148 -2T181 24T204 60T222 104H465L499 -23L725 33L517 600Q496 658 451 692T343 726ZM289 303L343 495L397 303H289Z" />
<glyph unicode="&#xc1;" glyph-name="Aacute" horiz-adv-x="663" d="M437 977Q424 977 411 972L229 900Q209 892 196 874T183 833Q183 803 204 782T256 760Q272 760 283 765L465 839Q485 847 497 865T509 905Q509 934 488 955T437 977ZM343 726Q280 726 236 692T169
600L-3 160Q-16 129 -16 99Q-16 75 -7 55T19 20T57 -3T102 -11Q129 -11 148 -2T181 24T204 60T222 104H465L499 -23L725 33L517 600Q496 658 451 692T343 726ZM289 303L343 495L397 303H289Z" />
<glyph unicode="&#xc2;" glyph-name="Acircumflex" horiz-adv-x="663" d="M345 966Q335 966 326 963T307 956L166 899Q146 891 135 873T123 833Q123 803 143 781T195 759Q207 759 227 766T270 782T312 801T344 815Q356 810 376 801T418 783T460 768T493 761Q522
761 543 782T565 832Q565 855 553 873T519 900L382 956Q373 960 364 963T345 966ZM343 726Q280 726 236 692T169 600L-3 160Q-16 129 -16 99Q-16 75 -7 55T19 20T57 -3T102 -11Q129 -11 148 -2T181 24T204 60T222 104H465L499 -23L725 33L517 600Q496 658 451 692T343
726ZM289 303L343 495L397 303H289Z" />
<glyph unicode="&#xc3;" glyph-name="Atilde" horiz-adv-x="663" d="M206 915Q179 915 161 895T143 848Q143 822 159 800T205 778H476Q505 778 525 798T545 847Q545 875 525 895T477 915H206ZM343 726Q280 726 236 692T169 600L-3 160Q-16 129 -16 99Q-16 75 -7
55T19 20T57 -3T102 -11Q129 -11 148 -2T181 24T204 60T222 104H465L499 -23L725 33L517 600Q496 658 451 692T343 726ZM289 303L343 495L397 303H289Z" />
<glyph unicode="&#xc4;" glyph-name="Adieresis" horiz-adv-x="663" d="M88 739Q88 710 108 690T158 669Q188 669 209 690T230 741Q230 770 210 790T160 811Q130 811 109 790T88 739ZM456 739Q456 710 477 690T528 669Q557 669 577 690T598 740Q598 769 577 790T527
811Q496 811 476 790T456 739ZM343 726Q280 726 236 692T169 600L-3 160Q-16 129 -16 99Q-16 75 -7 55T19 20T57 -3T102 -11Q129 -11 148 -2T181 24T204 60T222 104H465L499 -23L725 33L517 600Q496 658 451 692T343 726ZM289 303L343 495L397 303H289Z" />
<glyph unicode="&#xc5;" glyph-name="Aring" horiz-adv-x="661" d="M281 714Q239 700 212 670T169 600L-3 160Q-16 129 -16 99Q-16 75 -7 55T19 20T57 -3T102 -11Q129 -11 148 -2T181 24T204 60T222 104H465L512 -19L725 70L517 600Q502 639 474 669T407 716Q438
727 459 752T480 811Q480 837 468 857T437 892T393 913T346 921Q322 921 298 914T254 892T222 857T210 809Q210 776 230 751T281 714ZM289 303L343 495L397 303H289ZM320 814Q320 824 327 831T344 838Q355 838 363 832T371 814Q371 803 364 796T345 789Q334 789
327 796T320 814Z" />
<glyph unicode="&#xc6;" glyph-name="AE" horiz-adv-x="860" d="M-29 87L179 -16L223 111L380 106L382 104Q390 87 397 71T412 37Q416 29 427 22T450 10T476 3T498 0H869L868 200H609V259H749Q770 259 788 267T819 289T840 321T848 360Q848 381 840 399T818 430T786
451T747 459H608V520H763Q783 520 801 527T833 548T855 580T863 619Q863 640 855 658T834 690T802 712T763 720H289Q247 720 223 703T183 646L-29 87ZM293 303L377 540V303H293Z" />
<glyph unicode="&#xc7;" glyph-name="Ccedilla" horiz-adv-x="644" d="M20 364Q20 298 43 238T107 130T203 49T322 2Q314 -6 302 -18T277 -45T256 -73T247 -99Q247 -122 263 -138T303 -154Q326 -154 342 -136L443 -17L426 -7Q457 -6 496 2T571 28T630 74T654 141Q654
162 646 179T623 208T591 227T553 234Q533 234 514 230T475 219T435 209T391 204Q356 204 329 216T284 250T256 301T246 364Q246 401 258 428T292 474T341 506T403 524Q416 527 429 527Q464 527 505 514T578 485L640 664Q613 673 578 683T506 702T434 717T371 723Q366
723 360 723Q354 723 349 722Q283 713 223 682T118 603T47 494T20 364Z" />
<glyph unicode="&#xc8;" glyph-name="Egrave" horiz-adv-x="504" d="M426 834Q426 855 414 873T382 899L200 973Q189 978 173 978Q143 978 122 957T100 905Q100 883 112 865T146 838L328 767Q341 762 354 762Q383 762 404 783T426 834ZM29 118Q29 95 38 74T63
37T100 10T144 0H513L512 200H260V262H391Q411 262 430 269T464 289T488 320T497 359Q497 399 467 427Q434 458 390 458H260V519H418Q439 519 457 527T488 549T509 581T517 620Q517 640 510 658T489 690T458 712T420 720H363L29 719V118Z" />
<glyph unicode="&#xc9;" glyph-name="Eacute" horiz-adv-x="504" d="M357 977Q344 977 331 972L149 900Q129 892 116 874T103 833Q103 803 124 782T176 760Q192 760 203 765L385 839Q405 847 417 865T429 905Q429 934 408 955T357 977ZM29 118Q29 95 38 74T63
37T100 10T144 0H513L512 200H260V262H391Q411 262 430 269T464 289T488 320T497 359Q497 399 467 427Q434 458 390 458H260V519H418Q439 519 457 527T488 549T509 581T517 620Q517 640 510 658T489 690T458 712T420 720H363L29 719V118Z" />
<glyph unicode="&#xca;" glyph-name="Ecircumflex" horiz-adv-x="504" d="M265 966Q255 966 246 963T227 956L86 899Q66 891 55 873T43 833Q43 803 63 781T115 759Q127 759 147 766T190 782T232 801T264 815Q276 810 296 801T338 783T380 768T413 761Q442 761
463 782T485 832Q485 855 473 873T439 900L302 956Q293 960 284 963T265 966ZM29 118Q29 95 38 74T63 37T100 10T144 0H513L512 200H260V262H391Q411 262 430 269T464 289T488 320T497 359Q497 399 467 427Q434 458 390 458H260V519H418Q439 519 457 527T488 549T509
581T517 620Q517 640 510 658T489 690T458 712T420 720H363L29 719V118Z" />
<glyph unicode="&#xcb;" glyph-name="Edieresis" horiz-adv-x="504" d="M65 862Q65 821 91 793T160 764Q200 764 227 791T255 859Q255 878 248 895T228 926T198 946T160 954Q141 954 124 947T94 928T73 898T65 862ZM275 858Q275 838 282 821T303 792T333 772T370
764Q389 764 406 771T437 791T458 821T466 859Q466 878 459 895T438 926T408 946T370 954Q329 954 302 926T275 858ZM29 118Q29 95 38 74T63 37T100 10T144 0H513L512 200H260V262H391Q411 262 430 269T464 289T488 320T497 359Q497 399 467 427Q434 458 390 458H260V519H418Q439
519 457 527T488 549T509 581T517 620Q517 640 510 658T489 690T458 712T420 720H363L29 719V118Z" />
<glyph unicode="&#xcc;" glyph-name="Igrave" horiz-adv-x="265" d="M305 834Q305 855 293 873T261 899L79 973Q68 978 52 978Q22 978 1 957T-21 905Q-21 883 -9 865T25 838L207 767Q220 762 233 762Q262 762 283 783T305 834ZM29 -1H260V611Q260 635 251 656T227
692T190 717T145 727Q121 727 100 718T63 694T38 657T29 612V-1Z" />
<glyph unicode="&#xcd;" glyph-name="Iacute" horiz-adv-x="265" d="M236 977Q223 977 210 972L28 900Q8 892 -5 874T-18 833Q-18 803 3 782T55 760Q71 760 82 765L264 839Q284 847 296 865T308 905Q308 934 287 955T236 977ZM29 -1H260V611Q260 635 251 656T227
692T190 717T145 727Q121 727 100 718T63 694T38 657T29 612V-1Z" />
<glyph unicode="&#xce;" glyph-name="Icircumflex" horiz-adv-x="265" d="M144 966Q134 966 125 963T106 956L-35 899Q-55 891 -66 873T-78 833Q-78 803 -58 781T-6 759Q6 759 26 766T69 782T111 801T143 815Q155 810 175 801T217 783T259 768T292 761Q321 761
342 782T364 832Q364 855 352 873T318 900L181 956Q172 960 163 963T144 966ZM29 -1H260V611Q260 635 251 656T227 692T190 717T145 727Q121 727 100 718T63 694T38 657T29 612V-1Z" />
<glyph unicode="&#xcf;" glyph-name="Idieresis" horiz-adv-x="265" d="M-56 862Q-56 821 -30 793T39 764Q79 764 106 791T134 859Q134 878 127 895T107 926T77 946T39 954Q20 954 3 947T-27 928T-48 898T-56 862ZM154 858Q154 838 161 821T182 792T212 772T249
764Q268 764 285 771T316 791T337 821T345 859Q345 878 338 895T317 926T287 946T249 954Q208 954 181 926T154 858ZM29 -1H260V611Q260 635 251 656T227 692T190 717T145 727Q121 727 100 718T63 694T38 657T29 612V-1Z" />
<glyph unicode="&#xd1;" glyph-name="Ntilde" horiz-adv-x="731" d="M29 119Q29 94 37 71T61 31T98 3T146 -8Q170 -8 191 1T227 26T251 63T260 108V352L522 34Q539 14 562 3T611 -8Q635 -8 656 1T693 25T718 62T727 107V611Q727 635 718 656T693 692T657 717T612
727Q588 727 567 718T531 693T506 656T496 611V376L242 674Q223 696 198 712T143 729Q119 729 98 720T62 694T38 656T29 611V119ZM239 915Q212 915 194 895T176 848Q176 822 192 800T238 778H509Q538 778 558 798T578 847Q578 875 558 895T510 915H239Z" />
<glyph unicode="&#xd2;" glyph-name="Ograve" horiz-adv-x="774" d="M20 360Q20 282 51 215T135 97T257 19T403 -10Q479 -10 548 18T670 97T754 214T786 360Q786 438 755 505T671 623T549 701T403 730Q327 730 258 702T136 623T52 506T20 360ZM249 360Q249 393
260 424T291 478T339 515T403 529Q438 529 466 515T515 478T547 423T558 358Q558 325 547 295T515 242T465 205T402 191Q367 191 339 205T291 242T260 296T249 360ZM564 834Q564 855 552 873T520 899L338 973Q327 978 311 978Q281 978 260 957T238 905Q238 883
250 865T284 838L466 767Q479 762 492 762Q521 762 542 783T564 834Z" />
<glyph unicode="&#xd3;" glyph-name="Oacute" horiz-adv-x="774" d="M20 360Q20 282 51 215T135 97T257 19T403 -10Q479 -10 548 18T670 97T754 214T786 360Q786 438 755 505T671 623T549 701T403 730Q327 730 258 702T136 623T52 506T20 360ZM249 360Q249 393
260 424T291 478T339 515T403 529Q438 529 466 515T515 478T547 423T558 358Q558 325 547 295T515 242T465 205T402 191Q367 191 339 205T291 242T260 296T249 360ZM495 977Q482 977 469 972L287 900Q267 892 254 874T241 833Q241 803 262 782T314 760Q330 760
341 765L523 839Q543 847 555 865T567 905Q567 934 546 955T495 977Z" />
<glyph unicode="&#xd4;" glyph-name="Ocircumflex" horiz-adv-x="774" d="M20 360Q20 282 51 215T135 97T257 19T403 -10Q479 -10 548 18T670 97T754 214T786 360Q786 438 755 505T671 623T549 701T403 730Q327 730 258 702T136 623T52 506T20 360ZM249 360Q249
393 260 424T291 478T339 515T403 529Q438 529 466 515T515 478T547 423T558 358Q558 325 547 295T515 242T465 205T402 191Q367 191 339 205T291 242T260 296T249 360ZM403 966Q393 966 384 963T365 956L224 899Q204 891 193 873T181 833Q181 803 201 781T253
759Q265 759 285 766T328 782T370 801T402 815Q414 810 434 801T476 783T518 768T551 761Q580 761 601 782T623 832Q623 855 611 873T577 900L440 956Q431 960 422 963T403 966Z" />
<glyph unicode="&#xd5;" glyph-name="Otilde" horiz-adv-x="774" d="M20 360Q20 282 51 215T135 97T257 19T403 -10Q479 -10 548 18T670 97T754 214T786 360Q786 438 755 505T671 623T549 701T403 730Q327 730 258 702T136 623T52 506T20 360ZM249 360Q249 393
260 424T291 478T339 515T403 529Q438 529 466 515T515 478T547 423T558 358Q558 325 547 295T515 242T465 205T402 191Q367 191 339 205T291 242T260 296T249 360ZM264 915Q237 915 219 895T201 848Q201 822 217 800T263 778H534Q563 778 583 798T603 847Q603
875 583 895T535 915H264Z" />
<glyph unicode="&#xd6;" glyph-name="Odieresis" horiz-adv-x="774" d="M20 360Q20 282 51 215T135 97T257 19T403 -10Q479 -10 548 18T670 97T754 214T786 360Q786 438 755 505T671 623T549 701T403 730Q327 730 258 702T136 623T52 506T20 360ZM249 360Q249
393 260 424T291 478T339 515T403 529Q438 529 466 515T515 478T547 423T558 358Q558 325 547 295T515 242T465 205T402 191Q367 191 339 205T291 242T260 296T249 360ZM36 735Q36 706 57 685T108 664Q137 664 158 685T180 735Q180 764 159 785T109 806Q78 806
57 786T36 735ZM627 735Q627 706 648 685T698 664Q727 664 748 685T770 735Q770 766 748 786T696 806Q667 806 647 785T627 735Z" />
<glyph unicode="&#xd8;" glyph-name="Oslash" horiz-adv-x="776" d="M655 640Q601 684 537 707T404 731Q327 731 258 703T135 624T51 505T20 359Q20 291 45 229T119 119L21 23L60 -19L159 78Q210 35 272 12T402 -11Q477 -11 546 17T668 95T753 212T785 356Q785
420 761 485T697 601Q704 608 719 621T751 651T779 681T792 705Q792 716 784 724T764 733Q755 733 740 721T708 693T677 662T655 640ZM506 493L272 269Q260 289 254 312T248 359Q248 393 259 423T290 477T338 515T402 529Q431 529 457 520T506 493ZM311 227L538
444Q557 403 557 360Q557 328 545 298T512 244T463 206T400 191Q375 191 352 200T311 227Z" />
<glyph unicode="&#xd9;" glyph-name="Ugrave" horiz-adv-x="738" d="M545 834Q545 855 533 873T501 899L319 973Q308 978 292 978Q262 978 241 957T219 905Q219 883 231 865T265 838L447 767Q460 762 473 762Q502 762 523 783T545 834ZM29 323Q29 244 56 183T130
79T242 14T384 -8Q460 -8 525 14T638 78T713 182T740 323V611Q740 635 731 656T706 694T669 719T624 729Q600 729 580 720T543 695T518 658T509 613V316Q509 259 476 224T385 189Q327 189 294 224T260 316V721H29V323Z" />
<glyph unicode="&#xda;" glyph-name="Uacute" horiz-adv-x="738" d="M476 977Q463 977 450 972L268 900Q248 892 235 874T222 833Q222 803 243 782T295 760Q311 760 322 765L504 839Q524 847 536 865T548 905Q548 934 527 955T476 977ZM29 323Q29 244 56 183T130
79T242 14T384 -8Q460 -8 525 14T638 78T713 182T740 323V611Q740 635 731 656T706 694T669 719T624 729Q600 729 580 720T543 695T518 658T509 613V316Q509 259 476 224T385 189Q327 189 294 224T260 316V721H29V323Z" />
<glyph unicode="&#xdb;" glyph-name="Ucircumflex" horiz-adv-x="738" d="M384 966Q374 966 365 963T346 956L205 899Q185 891 174 873T162 833Q162 803 182 781T234 759Q246 759 266 766T309 782T351 801T383 815Q395 810 415 801T457 783T499 768T532 761Q561
761 582 782T604 832Q604 855 592 873T558 900L421 956Q412 960 403 963T384 966ZM29 323Q29 244 56 183T130 79T242 14T384 -8Q460 -8 525 14T638 78T713 182T740 323V611Q740 635 731 656T706 694T669 719T624 729Q600 729 580 720T543 695T518 658T509 613V316Q509
259 476 224T385 189Q327 189 294 224T260 316V721H29V323Z" />
<glyph unicode="&#xdc;" glyph-name="Udieresis" horiz-adv-x="738" d="M227 739Q227 732 229 722L29 721V323Q29 244 56 183T130 79T242 14T384 -8Q460 -8 525 14T638 78T713 182T740 323V611Q740 635 731 656T706 694T669 719T624 729Q600 729 579 720T543 695T518
658T509 613V316Q509 259 476 224T385 189Q327 189 294 224T260 316V680Q277 669 298 669Q327 669 347 690T368 740Q368 769 347 789T297 810Q268 810 248 789T227 739ZM401 739Q401 710 421 690T471 669Q500 669 521 690T542 740Q542 769 521 789T471 810Q442
810 422 789T401 739Z" />
<glyph unicode="&#xdf;" glyph-name="germandbls" horiz-adv-x="607" d="M29 495V-238H251V505Q251 519 253 533T261 559T278 578T307 585Q316 585 325 583T343 577T356 565T361 546Q361 528 345 520T310 500T274 470T258 412Q258 381 268 364T295 337T330 322T365
311T391 295T402 264Q402 245 392 234T365 215T331 198T297 179T271 150T260 104Q260 51 293 22T378 -8Q424 -8 467 16T543 79T597 163T618 254Q618 281 610 308T586 359T550 401T503 429Q529 456 544 491T560 564Q560 614 539 653T483 720T404 761T313 775Q251
775 199 755T109 698T50 610T29 495Z" />
<glyph unicode="&#xe0;" glyph-name="agrave" horiz-adv-x="613" d="M479 655Q479 676 467 694T435 720L253 794Q242 799 226 799Q196 799 175 778T153 726Q153 704 165 686T199 659L381 588Q394 583 407 583Q436 583 457 604T479 655ZM414 485Q393 520 360 535T287
550Q228 550 179 527T94 464T40 372T20 263Q20 206 40 156T96 70T181 12T287 -9Q328 -9 360 6T414 56Q412 43 412 29T414 0H607V439Q607 487 582 518T505 549Q491 549 476 545T447 534T424 514T414 485ZM241 265Q241 281 246 297T261 325T284 346T316 354Q352 354
372 328T393 267Q393 251 388 235T372 207T348 187T316 179Q298 179 285 186T261 206T246 233T241 265Z" />
<glyph unicode="&#xe1;" glyph-name="aacute" horiz-adv-x="613" d="M410 798Q397 798 384 793L202 721Q182 713 169 695T156 654Q156 624 177 603T229 581Q245 581 256 586L438 660Q458 668 470 686T482 726Q482 755 461 776T410 798ZM414 485Q393 520 360 535T287
550Q228 550 179 527T94 464T40 372T20 263Q20 206 40 156T96 70T181 12T287 -9Q328 -9 360 6T414 56Q412 43 412 29T414 0H607V439Q607 487 582 518T505 549Q491 549 476 545T447 534T424 514T414 485ZM241 265Q241 281 246 297T261 325T284 346T316 354Q352 354
372 328T393 267Q393 251 388 235T372 207T348 187T316 179Q298 179 285 186T261 206T246 233T241 265Z" />
<glyph unicode="&#xe2;" glyph-name="acircumflex" horiz-adv-x="613" d="M318 787Q308 787 299 784T280 777L139 720Q119 712 108 694T96 654Q96 624 116 602T168 580Q180 580 200 587T243 603T285 622T317 636Q329 631 349 622T391 604T433 589T466 582Q495
582 516 603T538 653Q538 676 526 694T492 721L355 777Q346 781 337 784T318 787ZM414 485Q393 520 360 535T287 550Q228 550 179 527T94 464T40 372T20 263Q20 206 40 156T96 70T181 12T287 -9Q328 -9 360 6T414 56Q412 43 412 29T414 0H607V439Q607 487 582 518T505
549Q491 549 476 545T447 534T424 514T414 485ZM241 265Q241 281 246 297T261 325T284 346T316 354Q352 354 372 328T393 267Q393 251 388 235T372 207T348 187T316 179Q298 179 285 186T261 206T246 233T241 265Z" />
<glyph unicode="&#xe3;" glyph-name="atilde" horiz-adv-x="613" d="M179 736Q152 736 134 716T116 669Q116 643 132 621T178 599H449Q478 599 498 619T518 668Q518 696 498 716T450 736H179ZM414 485Q393 520 360 535T287 550Q228 550 179 527T94 464T40 372T20
263Q20 206 40 156T96 70T181 12T287 -9Q328 -9 360 6T414 56Q412 43 412 29T414 0H607V439Q607 487 582 518T505 549Q491 549 476 545T447 534T424 514T414 485ZM241 265Q241 281 246 297T261 325T284 346T316 354Q352 354 372 328T393 267Q393 251 388 235T372
207T348 187T316 179Q298 179 285 186T261 206T246 233T241 265Z" />
<glyph unicode="&#xe4;" glyph-name="adieresis" horiz-adv-x="613" d="M134 664Q134 645 142 628T163 599T193 579T229 571Q269 571 297 598T325 666Q325 706 297 733T229 761Q189 761 162 733T134 664ZM342 664Q342 644 350 628T371 598T402 578T439 571Q458
571 475 579T505 600T525 630T533 667Q533 707 505 734T436 762Q395 762 369 733T342 664ZM414 485Q393 520 360 535T287 550Q228 550 179 527T94 464T40 372T20 263Q20 206 40 156T96 70T181 12T287 -9Q328 -9 360 6T414 56Q412 43 412 29T414 0H607V439Q607 487
582 518T505 549Q491 549 476 545T447 534T424 514T414 485ZM241 265Q241 281 246 297T261 325T284 346T316 354Q352 354 372 328T393 267Q393 251 388 235T372 207T348 187T316 179Q298 179 285 186T261 206T246 233T241 265Z" />
<glyph unicode="&#xe5;" glyph-name="aring" horiz-adv-x="613" d="M212 675Q212 648 223 628T253 593T295 572T343 565Q366 565 388 573T429 595T458 630T469 675Q469 700 458 720T428 755T387 776T341 784Q318 784 295 777T254 755T224 721T212 675ZM312 675Q312
687 320 694T341 702Q352 702 360 694T368 675Q368 664 360 656T341 647Q330 647 321 655T312 675ZM414 485Q393 520 360 535T287 550Q228 550 179 527T94 464T40 372T20 263Q20 206 40 156T96 70T181 12T287 -9Q328 -9 360 6T414 56Q412 43 412 29T414 0H607V439Q607
487 582 518T505 549Q491 549 476 545T447 534T424 514T414 485ZM241 265Q241 281 246 297T261 325T284 346T316 354Q352 354 372 328T393 267Q393 251 388 235T372 207T348 187T316 179Q298 179 285 186T261 206T246 233T241 265Z" />
<glyph unicode="&#xe6;" glyph-name="ae" horiz-adv-x="953" d="M561 16Q594 1 629 -5T700 -12Q743 -12 789 -6T878 14Q874 46 870 77T861 140Q860 148 859 157T856 174L855 181Q855 182 855 183T854 184Q846 184 836 182T818 178Q804 176 790 176Q776 176 762
175Q754 174 746 174T729 173Q696 173 665 183T613 221H880Q918 221 941 239T965 299Q965 316 961 332T952 365Q937 408 910 442T847 501T769 539T682 552Q651 552 621 547T561 529Q544 546 526 551T484 556Q470 556 456 553T431 543T412 525T405 497Q397 512 382
522T348 539T312 547T277 550Q220 550 173 526T92 463T39 372T20 267Q20 210 39 160T93 72T176 12T283 -10Q317 -10 350 0T406 38Q406 21 415 12T438 -3T467 -9T496 -10Q514 -10 531 -4T561 16ZM314 188Q296 188 283 195T260 214T246 241T241 273Q241 289 246 305T262
333T286 352T318 360Q336 360 349 353T372 334T387 307T392 276Q392 241 372 215T314 188ZM615 332Q617 354 634 371T675 389Q701 389 716 373T735 332H615Z" />
<glyph unicode="&#xe7;" glyph-name="ccedilla" horiz-adv-x="512" d="M320 542Q260 542 206 523T111 467T45 380T20 266Q20 219 37 176T83 98T152 39T236 3Q229 -5 221 -13T204 -31T191 -51T185 -72Q185 -95 202 -110T241 -126Q266 -126 281 -108L367 -7Q394
-5 424 1T480 21T521 57T538 113Q538 132 530 149T509 179T478 199T442 207Q431 207 417 205T387 199T355 193T323 190Q288 190 264 211T240 269Q240 306 265 325T326 344Q339 344 358 341T400 333T443 323T479 315L520 506Q471 519 421 530T320 542Z" />
<glyph unicode="&#xe8;" glyph-name="egrave" horiz-adv-x="589" d="M471 655Q471 676 459 694T427 720L245 794Q234 799 218 799Q188 799 167 778T145 726Q145 704 157 686T191 659L373 588Q386 583 399 583Q428 583 449 604T471 655ZM253 217H513Q556 217 580
233T604 296Q604 350 579 396T512 475T420 528T318 547Q258 547 204 527T109 471T44 384T20 270Q20 201 47 149T120 62T225 10T347 -8Q385 -8 423 -3T498 14L474 184Q448 179 421 175T366 170Q334 170 304 180T253 217ZM255 325Q260 349 276 366T318 383Q343 383
357 366T374 325H255Z" />
<glyph unicode="&#xe9;" glyph-name="eacute" horiz-adv-x="589" d="M402 798Q389 798 376 793L194 721Q174 713 161 695T148 654Q148 624 169 603T221 581Q237 581 248 586L430 660Q450 668 462 686T474 726Q474 755 453 776T402 798ZM253 217H513Q556 217 580
233T604 296Q604 350 579 396T512 475T420 528T318 547Q258 547 204 527T109 471T44 384T20 270Q20 201 47 149T120 62T225 10T347 -8Q385 -8 423 -3T498 14L474 184Q448 179 421 175T366 170Q334 170 304 180T253 217ZM255 325Q260 349 276 366T318 383Q343 383
357 366T374 325H255Z" />
<glyph unicode="&#xea;" glyph-name="ecircumflex" horiz-adv-x="589" d="M310 787Q300 787 291 784T272 777L131 720Q111 712 100 694T88 654Q88 624 108 602T160 580Q172 580 192 587T235 603T277 622T309 636Q321 631 341 622T383 604T425 589T458 582Q487
582 508 603T530 653Q530 676 518 694T484 721L347 777Q338 781 329 784T310 787ZM253 217H513Q556 217 580 233T604 296Q604 350 579 396T512 475T420 528T318 547Q258 547 204 527T109 471T44 384T20 270Q20 201 47 149T120 62T225 10T347 -8Q385 -8 423 -3T498
14L474 184Q448 179 421 175T366 170Q334 170 304 180T253 217ZM255 325Q260 349 276 366T318 383Q343 383 357 366T374 325H255Z" />
<glyph unicode="&#xeb;" glyph-name="edieresis" horiz-adv-x="589" d="M110 683Q110 642 136 614T205 585Q245 585 272 612T300 680Q300 699 293 716T273 747T243 767T205 775Q186 775 169 768T139 749T118 719T110 683ZM320 679Q320 659 327 642T348 613T378
593T415 585Q434 585 451 592T482 612T503 642T511 680Q511 699 504 716T483 747T453 767T415 775Q374 775 347 747T320 679ZM253 217H513Q556 217 580 233T604 296Q604 350 579 396T512 475T420 528T318 547Q258 547 204 527T109 471T44 384T20 270Q20 201 47
149T120 62T225 10T347 -8Q385 -8 423 -3T498 14L474 184Q448 179 421 175T366 170Q334 170 304 180T253 217ZM255 325Q260 349 276 366T318 383Q343 383 357 366T374 325H255Z" />
<glyph unicode="&#xec;" glyph-name="igrave" horiz-adv-x="244" d="M298 655Q298 676 286 694T254 720L72 794Q61 799 45 799Q15 799 -6 778T-28 726Q-28 704 -16 686T18 659L200 588Q213 583 226 583Q255 583 276 604T298 655ZM32 2L255 1V435Q255 457 246 477T222
513T187 538T144 547Q121 547 101 539T65 515T41 480T32 436V2Z" />
<glyph unicode="&#xed;" glyph-name="iacute" horiz-adv-x="244" d="M229 798Q216 798 203 793L21 721Q1 713 -12 695T-25 654Q-25 624 -4 603T48 581Q64 581 75 586L257 660Q277 668 289 686T301 726Q301 755 280 776T229 798ZM32 2L255 1V435Q255 457 246 477T222
513T187 538T144 547Q121 547 101 539T65 515T41 480T32 436V2Z" />
<glyph unicode="&#xee;" glyph-name="icircumflex" horiz-adv-x="244" d="M137 787Q127 787 118 784T99 777L-42 720Q-62 712 -73 694T-85 654Q-85 624 -65 602T-13 580Q-1 580 19 587T62 603T104 622T136 636Q148 631 168 622T210 604T252 589T285 582Q314 582
335 603T357 653Q357 676 345 694T311 721L174 777Q165 781 156 784T137 787ZM32 2L255 1V435Q255 457 246 477T222 513T187 538T144 547Q121 547 101 539T65 515T41 480T32 436V2Z" />
<glyph unicode="&#xef;" glyph-name="idieresis" horiz-adv-x="244" d="M-63 683Q-63 642 -37 614T32 585Q72 585 99 612T127 680Q127 699 120 716T100 747T70 767T32 775Q13 775 -4 768T-34 749T-55 719T-63 683ZM147 679Q147 659 154 642T175 613T205 593T242
585Q261 585 278 592T309 612T330 642T338 680Q338 699 331 716T310 747T280 767T242 775Q201 775 174 747T147 679ZM32 2L255 1V435Q255 457 246 477T222 513T187 538T144 547Q121 547 101 539T65 515T41 480T32 436V2Z" />
<glyph unicode="&#xf1;" glyph-name="ntilde" horiz-adv-x="592" d="M29 0H251V310Q251 333 267 349T307 366Q330 366 346 350T363 310V102Q363 78 372 58T396 23T431 0T476 -9Q499 -9 519 0T554 24T578 60T587 103V359Q587 404 569 439T519 499T449 536T367 549Q324
549 287 533T224 481Q217 512 193 531T137 550Q114 550 94 541T60 516T37 479T29 436V0ZM169 736Q142 736 124 716T106 669Q106 643 122 621T168 599H439Q468 599 488 619T508 668Q508 696 488 716T440 736H169Z" />
<glyph unicode="&#xf2;" glyph-name="ograve" horiz-adv-x="601" d="M20 267Q20 206 44 155T109 67T203 10T316 -11Q376 -11 429 10T523 68T588 157T612 270Q612 331 588 382T524 471T430 529T316 550Q256 550 202 529T108 470T44 380T20 267ZM238 268Q238 285
243 301T259 329T283 349T316 357Q334 357 348 350T373 330T388 301T394 268Q394 232 375 204T316 175Q297 175 283 183T258 204T243 234T238 268ZM477 655Q477 676 465 694T433 720L251 794Q240 799 224 799Q194 799 173 778T151 726Q151 704 163 686T197 659L379
588Q392 583 405 583Q434 583 455 604T477 655Z" />
<glyph unicode="&#xf3;" glyph-name="oacute" horiz-adv-x="601" d="M20 267Q20 206 44 155T109 67T203 10T316 -11Q376 -11 429 10T523 68T588 157T612 270Q612 331 588 382T524 471T430 529T316 550Q256 550 202 529T108 470T44 380T20 267ZM238 268Q238 285
243 301T259 329T283 349T316 357Q334 357 348 350T373 330T388 301T394 268Q394 232 375 204T316 175Q297 175 283 183T258 204T243 234T238 268ZM408 798Q395 798 382 793L200 721Q180 713 167 695T154 654Q154 624 175 603T227 581Q243 581 254 586L436 660Q456
668 468 686T480 726Q480 755 459 776T408 798Z" />
<glyph unicode="&#xf4;" glyph-name="ocircumflex" horiz-adv-x="601" d="M20 267Q20 206 44 155T109 67T203 10T316 -11Q376 -11 429 10T523 68T588 157T612 270Q612 331 588 382T524 471T430 529T316 550Q256 550 202 529T108 470T44 380T20 267ZM238 268Q238
285 243 301T259 329T283 349T316 357Q334 357 348 350T373 330T388 301T394 268Q394 232 375 204T316 175Q297 175 283 183T258 204T243 234T238 268ZM316 787Q306 787 297 784T278 777L137 720Q117 712 106 694T94 654Q94 624 114 602T166 580Q178 580 198 587T241
603T283 622T315 636Q327 631 347 622T389 604T431 589T464 582Q493 582 514 603T536 653Q536 676 524 694T490 721L353 777Q344 781 335 784T316 787Z" />
<glyph unicode="&#xf5;" glyph-name="otilde" horiz-adv-x="601" d="M20 267Q20 206 44 155T109 67T203 10T316 -11Q376 -11 429 10T523 68T588 157T612 270Q612 331 588 382T524 471T430 529T316 550Q256 550 202 529T108 470T44 380T20 267ZM238 268Q238 285
243 301T259 329T283 349T316 357Q334 357 348 350T373 330T388 301T394 268Q394 232 375 204T316 175Q297 175 283 183T258 204T243 234T238 268ZM177 736Q150 736 132 716T114 669Q114 643 130 621T176 599H447Q476 599 496 619T516 668Q516 696 496 716T448
736H177Z" />
<glyph unicode="&#xf6;" glyph-name="odieresis" horiz-adv-x="601" d="M20 268Q20 207 44 156T109 68T203 10T316 -11Q376 -11 429 10T523 68T588 157T612 270Q612 331 588 382T524 471T430 529T316 550Q256 550 202 529T108 471T44 381T20 268ZM238 266Q238
284 243 300T259 329T283 349T317 357Q335 357 349 350T373 329T388 300T394 268Q394 231 375 203T315 175Q297 175 283 182T258 203T243 232T238 266ZM117 662Q117 643 125 626T146 597T176 577T212 569Q232 569 249 576T280 597T300 627T308 664Q308 684 301
701T280 732T250 752T213 760Q171 760 144 732T117 662ZM324 663Q324 643 332 626T353 597T383 577T420 569Q439 569 456 576T487 596T508 626T516 664Q516 683 509 700T488 731T458 752T420 760Q379 760 352 732T324 663Z" />
<glyph unicode="&#xf7;" glyph-name="divide" horiz-adv-x="618" />
<glyph unicode="&#xf8;" glyph-name="oslash" horiz-adv-x="601" d="M506 484Q468 519 421 535T321 552Q261 552 207 532T111 475T45 387T20 272Q20 220 39 171T93 83L21 13L53 -16L124 53Q164 21 212 5T311 -12Q371 -12 425 8T520 66T586 155T610 269Q610 320
591 368T538 455Q542 459 555 470T581 495T605 520T616 537Q616 545 613 553T598 561Q589 561 576 552T550 530T525 504T506 484ZM361 341L244 231Q242 242 240 252T237 274Q237 289 243 304T259 331T284 350T314 357Q339 357 361 341ZM267 193L386 305Q392 287
392 265Q392 229 373 202T314 175Q303 175 289 180T267 193Z" />
<glyph unicode="&#xf9;" glyph-name="ugrave" horiz-adv-x="590" d="M467 655Q467 676 455 694T423 720L241 794Q230 799 214 799Q184 799 163 778T141 726Q141 704 153 686T187 659L369 588Q382 583 395 583Q424 583 445 604T467 655ZM29 243Q29 175 48 127T103
49T190 4T307 -11Q371 -11 422 3T510 48T565 127T584 243V436Q584 459 575 479T551 515T516 538T472 547Q449 547 429 538T393 514T369 478T360 434V244Q360 219 347 201T306 183Q279 183 266 201T252 244V535L29 536V243Z" />
<glyph unicode="&#xfa;" glyph-name="uacute" horiz-adv-x="590" d="M398 798Q385 798 372 793L190 721Q170 713 157 695T144 654Q144 624 165 603T217 581Q233 581 244 586L426 660Q446 668 458 686T470 726Q470 755 449 776T398 798ZM29 243Q29 175 48 127T103
49T190 4T307 -11Q371 -11 422 3T510 48T565 127T584 243V436Q584 459 575 479T551 515T516 538T472 547Q449 547 429 538T393 514T369 478T360 434V244Q360 219 347 201T306 183Q279 183 266 201T252 244V535L29 536V243Z" />
<glyph unicode="&#xfb;" glyph-name="ucircumflex" horiz-adv-x="590" d="M306 787Q296 787 287 784T268 777L127 720Q107 712 96 694T84 654Q84 624 104 602T156 580Q168 580 188 587T231 603T273 622T305 636Q317 631 337 622T379 604T421 589T454 582Q483 582
504 603T526 653Q526 676 514 694T480 721L343 777Q334 781 325 784T306 787ZM29 243Q29 175 48 127T103 49T190 4T307 -11Q371 -11 422 3T510 48T565 127T584 243V436Q584 459 575 479T551 515T516 538T472 547Q449 547 429 538T393 514T369 478T360 434V244Q360
219 347 201T306 183Q279 183 266 201T252 244V535L29 536V243Z" />
<glyph unicode="&#xfc;" glyph-name="udieresis" horiz-adv-x="590" d="M106 659Q106 640 114 623T135 594T165 574T201 566Q241 566 269 593T297 661Q297 680 290 697T269 728T239 748T202 756Q161 756 134 728T106 659ZM316 659Q316 639 324 622T345 593T375
573T413 566Q432 566 449 573T479 594T499 624T507 661Q507 681 500 698T479 728T448 748T411 756Q370 756 343 728T316 659ZM29 243Q29 175 48 127T103 49T190 4T307 -11Q371 -11 422 3T510 48T565 127T584 243V436Q584 459 575 479T551 515T516 538T472 547Q449
547 429 538T393 514T369 478T360 434V244Q360 219 347 201T306 183Q279 183 266 201T252 244V535L29 536V243Z" />
<glyph unicode="&#xff;" glyph-name="ydieresis" horiz-adv-x="497" d="M64 683Q64 642 90 614T159 585Q199 585 226 612T254 680Q254 699 247 716T227 747T197 767T159 775Q140 775 123 768T93 749T72 719T64 683ZM274 679Q274 659 281 642T302 613T332 593T369
585Q388 585 405 592T436 612T457 642T465 680Q465 699 458 716T437 747T407 767T369 775Q328 775 301 747T274 679ZM173 539L-22 451L151 54L74 -113Q64 -134 64 -160Q64 -182 73 -200T97 -231T131 -252T172 -260Q212 -260 236 -238T276 -181L522 390Q533 415
533 441Q533 463 524 483T500 517T464 539T421 548Q376 548 353 522T316 457L265 305L173 539Z" />
<glyph unicode="&#x152;" glyph-name="OE" horiz-adv-x="1035" d="M601 669Q563 707 512 721T408 736Q389 736 371 735T334 731Q267 722 210 688T110 602T44 488T20 358Q20 282 51 214T134 95T254 14T399 -16Q422 -16 449 -13T505 -2T558 16T601 42V43Q611 17
623 9T664 0L963 -3Q984 -3 1002 4T1034 26T1056 58T1064 97Q1064 118 1056 136T1035 168T1003 190T964 198H790V256H927Q947 256 965 264T996 285T1018 317T1026 355Q1026 376 1019 394T998 426T966 448T927 456H789V517H1019V720H668Q640 720 621 711T601 669ZM250
360Q250 394 259 426T286 484T332 524T398 540Q435 540 464 526T515 488T547 433T558 365Q558 331 549 299T520 243T473 203T407 188Q369 188 340 201T291 238T261 293T250 360Z" />
<glyph unicode="&#x153;" glyph-name="oe" horiz-adv-x="953" d="M490 40Q536 11 583 0T684 -11Q703 -11 731 -9T787 -4T843 3T888 14Q884 46 880 77T871 140L867 171Q865 177 865 182Q863 184 864 184Q856 184 845 181T826 176Q797 169 768 163T709 156Q675 156
649 169T605 213H876Q914 213 936 232T959 290Q959 312 954 332T940 373Q923 416 895 448T830 503T752 536T664 548Q635 548 614 545T573 536T535 521T492 499Q448 523 409 536T318 550Q259 550 206 529T111 471T46 383T21 270Q21 207 44 156T108 67T201 9T316
-12Q366 -12 407 -1T490 40ZM238 268Q238 284 243 299T259 327T283 347T315 355Q350 355 370 330T391 271Q391 254 386 238T371 209T347 189T314 181Q277 181 258 208T238 268ZM606 325Q609 350 626 367T669 384Q691 384 709 366T726 325H606Z" />
<glyph unicode="&#x178;" glyph-name="Ydieresis" horiz-adv-x="598" d="M120 862Q120 821 146 793T215 764Q255 764 282 791T310 859Q310 878 303 895T283 926T253 946T215 954Q196 954 179 947T149 928T128 898T120 862ZM330 858Q330 838 337 821T358 792T388
772T425 764Q444 764 461 771T492 791T513 821T521 859Q521 878 514 895T493 926T463 946T425 954Q384 954 357 926T330 858ZM160 730L-16 586L205 338V108Q205 84 214 63T238 25T275 0T321 -10Q345 -10 366 -1T402 25T427 63T436 108V338L627 545Q639 558 644
574T650 608Q650 631 641 653T617 691T580 718T535 728Q504 728 479 711T434 671L320 533L160 730Z" />
<glyph unicode="&#x192;" glyph-name="florin" horiz-adv-x="429" d="M103 347L67 -23Q66 -34 55 -40T30 -52T1 -60T-21 -68L-23 -221Q-3 -231 22 -240T69 -249H113Q152 -249 182 -233T233 -191T266 -130T283 -61L326 347Q346 345 366 354T403 380T430 417T440
457Q440 492 417 515T359 539H346Q347 551 349 560T363 576Q367 578 369 578Q391 584 410 589T444 605T466 632T475 676Q475 712 457 732T410 763T350 775T291 777Q244 777 214 754T166 696T138 619T125 540Q105 536 85 529T48 508T21 478T11 436Q11 398 38 373T103
347Z" />
<glyph unicode="&#x2c6;" glyph-name="circumflex" horiz-adv-x="374" d="M216 787Q206 787 197 784T178 777L37 720Q17 712 6 694T-6 654Q-6 624 14 602T66 580Q78 580 98 587T141 603T183 622T215 636Q227 631 247 622T289 604T331 589T364 582Q393 582 414
603T436 653Q436 676 424 694T390 721L253 777Q244 781 235 784T216 787Z" />
<glyph unicode="&#x2dc;" glyph-name="tilde" horiz-adv-x="362" d="M61 736Q34 736 16 716T-2 669Q-2 643 14 621T60 599H331Q360 599 380 619T400 668Q400 696 380 716T332 736H61Z" />
<glyph unicode="&#x2013;" glyph-name="endash" horiz-adv-x="628" d="M142 448Q124 448 110 441T86 420T71 391T65 359Q65 342 70 326T85 298T109 277T142 269H594V448H142Z" />
<glyph unicode="&#x2014;" glyph-name="emdash" horiz-adv-x="567" d="M31 252H558L557 456H31V252Z" />
<glyph unicode="&#x2018;" glyph-name="quoteleft" horiz-adv-x="289" d="M-32 412L157 325L287 591Q297 611 297 636Q297 658 289 677T265 712T231 735T189 744Q157 744 131 727T91 681L-32 412Z" />
<glyph unicode="&#x2019;" glyph-name="quoteright" horiz-adv-x="289" d="M287 647L98 734L-32 468Q-42 448 -42 423Q-42 400 -34 381T-10 346T25 323T67 314Q99 314 124 331T164 378L287 647Z" />
<glyph unicode="&#x201a;" glyph-name="quotesinglbase" horiz-adv-x="259" d="M96 238L-21 -34Q-30 -55 -30 -79Q-30 -122 -2 -152T71 -183Q101 -183 128 -166T168 -121L292 148L96 238Z" />
<glyph unicode="&#x201c;" glyph-name="quotedblleft" horiz-adv-x="533" d="M-10 426L179 339L293 591Q303 614 303 636Q303 658 295 678T271 712T236 735T194 744Q162 744 136 727T97 681L-10 426ZM269 426L458 339L571 591Q581 614 581 637Q581 659 573 679T550
713T515 735T473 744Q441 744 415 727T376 681L269 426Z" />
<glyph unicode="&#x201d;" glyph-name="quotedblright" horiz-adv-x="533" d="M571 647L382 734L268 482Q258 459 258 437Q258 414 266 395T290 360T324 337T367 328Q399 328 425 345T464 392L571 647ZM292 647L103 734L-10 482Q-20 461 -20 436Q-20 413 -12 394T11
360T45 337T88 328Q120 328 146 345T185 392L292 647Z" />
<glyph unicode="&#x201e;" glyph-name="quotedblbase" horiz-adv-x="499" d="M105 253L-21 -34Q-30 -55 -30 -79Q-30 -122 -2 -152T71 -183Q101 -183 128 -166T168 -121L301 163L105 253ZM384 253L258 -34Q248 -57 248 -79Q248 -100 256 -119T277 -152T309 -174T350
-183Q380 -183 407 -166T447 -121L579 163L384 253Z" />
<glyph unicode="&#x2020;" glyph-name="dagger" horiz-adv-x="661" d="M23 509L22 295H226V-214H455V295H559Q581 295 600 303T636 327Q651 341 659 360T667 401Q667 445 635 477Q620 492 600 500T558 509H455V627Q455 676 421 710Q405 726 385 735T341 744Q318
744 297 735T260 710Q226 676 226 627V509H23Z" />
<glyph unicode="&#x2021;" glyph-name="daggerdbl" horiz-adv-x="692" d="M239 214H133Q111 214 91 206T54 182Q24 152 24 109Q24 88 32 68T56 34Q72 19 92 11T135 2L238 1V-114Q238 -137 247 -159T273 -198Q306 -233 355 -233Q402 -233 434 -199Q451 -182 460
-160T469 -114V1L571 2Q593 2 613 10T649 34Q681 64 681 108Q681 128 673 147T650 181Q635 196 615 205T573 214H470V293L572 291Q594 290 614 298T649 322Q680 353 680 397Q680 441 649 472Q634 487 614 495T573 504L471 505V722H241L240 506H137Q115 506 95 498T58
474Q26 444 26 400Q26 379 34 360T57 326Q72 311 92 303T134 294L239 293V214Z" />
<glyph unicode="&#x2022;" glyph-name="bullet" horiz-adv-x="351" d="M29 360Q29 330 40 304T71 259T117 228T173 216Q203 216 229 227T274 258T305 304T317 360Q317 390 306 416T275 461T229 492T173 504Q143 504 117 493T72 462T41 416T29 360Z" />
<glyph unicode="&#x2026;" glyph-name="ellipsis" horiz-adv-x="799" d="M36 94Q36 71 44 52T67 18T101 -5T144 -14Q166 -14 186 -6T220 17T243 51T252 94Q252 116 244 135T220 170T186 193T144 202Q122 202 103 194T68 170T45 136T36 94ZM324 94Q324 71 332 52T355
18T389 -5T432 -14Q454 -14 474 -6T508 17T531 51T540 94Q540 116 532 135T508 170T474 193T432 202Q410 202 391 194T356 170T333 136T324 94ZM612 94Q612 71 620 52T643 18T677 -5T720 -14Q742 -14 762 -6T796 17T819 51T828 94Q828 116 820 135T796 170T762
193T720 202Q698 202 679 194T644 170T621 136T612 94Z" />
<glyph unicode="&#x2030;" glyph-name="perthousand" horiz-adv-x="1038" d="M24 554Q24 521 35 489T66 430T115 388T180 372Q216 372 245 388T295 431T327 490T339 556Q339 589 328 621T297 680T247 722T182 738Q146 738 117 722T67 679T35 620T24 554ZM154 554Q154
566 161 574T181 583Q195 583 201 575T208 554Q208 543 200 535T180 526Q169 526 162 534T154 554ZM107 59L238 -17L590 617Q600 635 600 655Q600 686 578 708T524 730Q504 730 487 720T459 692L107 59ZM381 165Q381 132 392 100T423 41T472 -1T536 -17Q572 -17
601 -1T650 41T680 100T691 166Q691 199 681 231T650 288T602 329T537 345Q501 345 473 329T424 288T392 230T381 165ZM511 164Q511 176 518 185T538 194Q551 194 558 185T565 164Q565 151 557 144T537 136Q524 136 518 144T511 164ZM712 165Q712 132 723 100T754
41T803 -1T868 -17Q904 -17 932 -1T981 41T1011 100T1022 166Q1022 199 1012 231T981 288T933 329T868 345Q832 345 804 329T755 288T723 230T712 165ZM841 164Q841 176 849 184T869 193Q881 193 888 185T896 165Q896 152 888 144T867 136Q855 136 848 144T841
164Z" />
<glyph unicode="&#x2039;" glyph-name="guilsinglleft" horiz-adv-x="318" d="M29 333L28 202L156 60Q170 44 189 34T229 24Q247 24 263 31T290 50T309 77T316 111Q316 131 308 148T286 180L203 267L287 351Q301 365 309 383T318 421Q318 437 312 452T294 480T267
499T235 506Q212 506 192 494T155 465L29 333Z" />
<glyph unicode="&#x203a;" glyph-name="guilsinglright" horiz-adv-x="318" d="M138 265L54 180Q40 166 32 148T23 110Q23 93 30 78T49 50T76 31T109 24Q132 24 152 36T186 66L292 199L293 330L185 471Q172 488 153 497T113 507Q95 507 79 500T51 482T32 454T25
420Q25 400 33 383T55 352L138 265Z" />
<glyph unicode="&#x2122;" glyph-name="trademark" horiz-adv-x="746" d="M58 720Q43 720 33 710T22 684Q22 666 32 658T57 648T88 647T115 648V382H193V648Q204 648 220 647T250 648T275 658T286 684Q286 699 276 709T250 720H58ZM264 391L342 381L374 594L438
375H521L585 594L617 381L695 391L646 683Q643 702 628 713T594 724Q555 724 542 684L479 477L417 684Q412 701 399 712T367 724Q348 724 332 714T313 683L264 391Z" />
</font>
</defs>
</svg>
