<svg enable-background="new 0 0 615.763 243.221" height="243.221" viewBox="0 0 615.763 243.221" width="615.763" xmlns="http://www.w3.org/2000/svg"><path d="m21.395 132.975v1.53h-10.71v28.05h-1.53v-28.05h-10.71v-1.53z" fill="#fff" stroke="#f1f1f2" stroke-miterlimit="10"/><path d="m45.619 162.555h-1.53v-14.79h-15.3v14.79h-1.53v-29.58h1.53v13.26h15.3v-13.26h1.53z" fill="#fff" stroke="#f1f1f2" stroke-miterlimit="10"/><path d="m75.096 159.546c-1.87 2.346-4.93 3.519-9.18 3.519s-7.293-1.206-9.129-3.62-2.754-6.307-2.754-11.68c0-5.372.918-9.265 2.754-11.679s4.878-3.621 9.129-3.621c4.929 0 8.279 1.615 10.047 4.845l-12.495 10.455h-2.397l12.903-10.761c-1.497-2.006-4.182-3.009-8.058-3.009-1.701 0-3.128.179-4.284.536s-2.218 1.02-3.188 1.989c-.969.969-1.692 2.38-2.167 4.233-.477 1.854-.714 4.191-.714 7.013s.237 5.16.714 7.013c.476 1.854 1.199 3.264 2.167 4.233.969.969 2.031 1.631 3.188 1.988 1.156.357 2.583.535 4.284.535 3.876 0 6.562-1.002 8.058-3.008z" fill="#fff" stroke="#f1f1f2" stroke-miterlimit="10"/><path d="m102.891 161.024h20.094v-30.549l-11.475 24.582-11.475-24.633v32.13l-1.53-.051v-35.7h1.53l11.475 24.633 11.475-24.582 1.53-.051v35.751l-21.624-.051z" fill="#fff" stroke="#f1f1f2" stroke-miterlimit="10"/><path d="m137.111 161.024h16.626l-10.455-24.633-11.118 26.163h-1.632l12.75-30.09 12.75 30.09h-18.921z" fill="#fff" stroke="#f1f1f2" stroke-miterlimit="10"/><path d="m163.325 159.444c-1.836-2.414-2.754-6.307-2.754-11.68 0-5.372.918-9.265 2.754-11.679s4.878-3.621 9.129-3.621c4.25 0 7.31 1.173 9.18 3.519l-1.122 1.02c-1.497-2.006-4.182-3.009-8.058-3.009-1.701 0-3.128.179-4.284.536s-2.218 1.02-3.188 1.989c-.969.969-1.692 2.38-2.167 4.233-.477 1.854-.714 4.191-.714 7.013s.237 5.16.714 7.013c.476 1.854 1.199 3.264 2.167 4.233.969.969 2.031 1.631 3.188 1.988 1.156.357 2.583.535 4.284.535 3.876 0 6.562-1.002 8.058-3.008l1.122 1.02c-1.87 2.346-4.93 3.519-9.18 3.519-4.251-.001-7.293-1.207-9.129-3.621z" fill="#fff" stroke="#f1f1f2" stroke-miterlimit="10"/><path d="m207.592 162.555h-1.53v-14.79h-15.3v14.79h-1.53v-29.58h1.53v13.26h15.3v-13.26h1.53z" fill="#fff" stroke="#f1f1f2" stroke-miterlimit="10"/><path d="m217.281 132.975h1.53v29.58h-1.53z" fill="#fff" stroke="#f1f1f2" stroke-miterlimit="10"/><path d="m228.5 162.555v-29.58h1.53l16.626 26.774v-26.774h1.53v29.58h-1.53l-16.626-26.826v26.826z" fill="#fff" stroke="#f1f1f2" stroke-miterlimit="10"/><path d="m277.664 159.546c-1.87 2.346-4.93 3.519-9.18 3.519s-7.293-1.206-9.129-3.62-2.754-6.307-2.754-11.68c0-5.372.918-9.265 2.754-11.679s4.878-3.621 9.129-3.621c4.929 0 8.279 1.615 10.047 4.845l-12.495 10.455h-2.397l12.903-10.761c-1.497-2.006-4.182-3.009-8.058-3.009-1.701 0-3.128.179-4.284.536s-2.218 1.02-3.188 1.989c-.969.969-1.692 2.38-2.167 4.233-.477 1.854-.714 4.191-.714 7.013s.237 5.16.714 7.013c.476 1.854 1.199 3.264 2.167 4.233.969.969 2.031 1.631 3.188 1.988 1.156.357 2.583.535 4.284.535 3.876 0 6.562-1.002 8.058-3.008z" fill="#fff" stroke="#f1f1f2" stroke-miterlimit="10"/><path d="m300.868 132.975h1.53v29.58h-1.53z" fill="#fff" stroke="#f1f1f2" stroke-miterlimit="10"/><path d="m312.087 162.555v-29.58h1.53l16.625 26.774v-26.774h1.531v29.58h-1.531l-16.625-26.826v26.826z" fill="#fff" stroke="#f1f1f2" stroke-miterlimit="10"/><path d="m375.631 132.975v1.53h-10.709v28.05h-1.529v-28.05h-10.711v-1.53z" fill="#fff" stroke="#f1f1f2" stroke-miterlimit="10"/><path d="m399.856 162.555h-1.529v-14.79h-15.301v14.79h-1.529v-29.58h1.529v13.26h15.301v-13.26h1.529z" fill="#fff" stroke="#f1f1f2" stroke-miterlimit="10"/><path d="m429.334 159.546c-1.871 2.346-4.93 3.519-9.18 3.519-4.252 0-7.293-1.206-9.129-3.62s-2.754-6.307-2.754-11.68c0-5.372.918-9.265 2.754-11.679s4.877-3.621 9.129-3.621c4.93 0 8.277 1.615 10.047 4.845l-12.496 10.455h-2.396l12.902-10.761c-1.496-2.006-4.182-3.009-8.057-3.009-1.701 0-3.129.179-4.285.536s-2.219 1.02-3.188 1.989-1.691 2.38-2.166 4.233c-.477 1.854-.715 4.191-.715 7.013s.238 5.16.715 7.013c.475 1.854 1.197 3.264 2.166 4.233s2.031 1.631 3.188 1.988 2.584.535 4.285.535c3.875 0 6.561-1.002 8.057-3.008z" fill="#fff" stroke="#f1f1f2" stroke-miterlimit="10"/><path d="m473.499 134.046c-.781-1.972-1.887-3.494-3.314-4.565-1.428-1.071-3.654-1.606-6.682-1.606-1.666 0-3.094.213-4.283.638s-2.262 1.147-3.213 2.167c-.953 1.02-1.666 2.491-2.143 4.412s-.713 4.292-.713 7.114v4.999c0 2.822.236 5.193.713 7.114s1.189 3.392 2.143 4.411c.951 1.02 2.023 1.743 3.213 2.168 1.189.426 2.617.637 4.283.637 3.061 0 5.492-.654 7.293-1.963 1.803-1.309 2.703-2.711 2.703-4.207v-8.619h-6.271v-1.53h8.107v9.639c0 2.278-1.027 4.216-3.084 5.813-2.059 1.6-4.973 2.397-8.748 2.397-4.182 0-7.207-1.282-9.076-3.851-1.871-2.566-2.807-6.57-2.807-12.01v-4.999c0-5.439.936-9.443 2.807-12.01 1.869-2.567 4.895-3.851 9.076-3.851 3.367 0 5.883.621 7.549 1.861 1.666 1.242 2.959 3.001 3.877 5.279z" fill="#fff" stroke="#f1f1f2" stroke-miterlimit="10"/><path d="m486.606 161.024h16.625l-10.455-24.633-11.117 26.163h-1.633l12.75-30.09 12.75 30.09h-18.92z" fill="#fff" stroke="#f1f1f2" stroke-miterlimit="10"/><path d="m523.784 147.714 6.936 14.841h-1.682l-7.141-15.3c.068-.033.365-.179.893-.434s.893-.441 1.096-.561c.205-.119.545-.332 1.021-.638.475-.306.832-.603 1.07-.893.238-.288.502-.628.791-1.02.287-.39.5-.833.637-1.326s.205-1.028.205-1.606c0-2.142-1.021-3.723-3.061-4.743-2.041-1.02-4.574-1.53-7.6-1.53h-4.08v28.05h-1.529v-29.58h5.609c4.012 0 7.047.697 9.104 2.091 2.057 1.395 3.086 3.298 3.086 5.712 0 1.564-.527 2.95-1.58 4.156-1.055 1.209-2.314 2.135-3.775 2.781z" fill="#fff" stroke="#f1f1f2" stroke-miterlimit="10"/><path d="m541.532 162.555h-3.877v-29.58h3.877c5.031 0 9.043 1.326 12.035 3.978s4.488 6.256 4.488 10.812c0 4.557-1.496 8.16-4.488 10.812s-7.004 3.978-12.035 3.978zm0-1.531c4.59 0 8.236-1.173 10.939-3.519 2.703-2.347 4.055-5.593 4.055-9.741 0-4.147-1.352-7.395-4.055-9.741s-6.35-3.519-10.939-3.519h-2.346v26.52z" fill="#fff" stroke="#f1f1f2" stroke-miterlimit="10"/><path d="m585.647 159.546c-1.871 2.346-4.93 3.519-9.18 3.519-4.252 0-7.293-1.206-9.129-3.62s-2.754-6.307-2.754-11.68c0-5.372.918-9.265 2.754-11.679s4.877-3.621 9.129-3.621c4.93 0 8.277 1.615 10.047 4.845l-12.496 10.455h-2.396l12.902-10.761c-1.496-2.006-4.182-3.009-8.057-3.009-1.701 0-3.129.179-4.285.536s-2.219 1.02-3.188 1.989-1.691 2.38-2.166 4.233c-.477 1.854-.715 4.191-.715 7.013s.238 5.16.715 7.013c.475 1.854 1.197 3.264 2.166 4.233s2.031 1.631 3.188 1.988 2.584.535 4.285.535c3.875 0 6.561-1.002 8.057-3.008z" fill="#fff" stroke="#f1f1f2" stroke-miterlimit="10"/><path d="m593.805 162.555v-29.58h1.531l16.625 26.774v-26.774h1.531v29.58h-1.531l-16.625-26.826v26.826z" fill="#fff" stroke="#f1f1f2" stroke-miterlimit="10"/><g fill="#034f5f"><path clip-rule="evenodd" d="m567.579 173.81c-32.737 1.683-198.09 21.24-259.332 21.24-58.864-.791-227.379-21.333-260.062-21.24z" fill-rule="evenodd"/><path d="m304.324 201.247c0-.196-.018-.403-.06-.593-.16-.653-.529-1.077-.985-1.077h-.013l-.038-.032-.281-.316c-1.195-1.453-2.212-2.786-3.666-3.575-.146-.097-.309-.14-.468-.14-.649.017-1.196.692-1.448 1.579l-.013.038.025.034.069.11.039.07.064-.026c.266-.096.533-.215.762-.215.145 0 .278.035.416.137.426.349.8.809 1.144 1.324l-.164.146c-.852.571-2.21 1.225-3.962 1.225-1.849 0-4.784-.592-5.695-1.988-.511.168-1.152-.079-2.64-.568.146.091.271.181.425.283 3.723 2.411 6.233 3.095 7.91 3.095 1.031 0 1.74-.259 2.235-.524.231-.128.417-.258.549-.365l.158-.116.053-.029.021-.006.022-.009.025-.013.997-.828c.061-.048.112-.087.177-.129.214.339.424.7.627 1.073l-.013.01c-1.251 1.263-4.586 3.975-10.08 3.979-3.227-.004-7.203-.939-11.948-3.67-.692-.396-1.336-.785-1.951-1.16-1.93.206-4.169-.609-7.952-2.257 1.641 2.137 5.914 4.414 8.124 5.223 5.497 2.02 9.782 2.709 13.066 2.709 3.111 0 5.316-.629 6.816-1.3-3.081 2.089-7.706 4.145-13.947 4.145-4.939 0-10.908-1.291-17.927-4.901-3.215-1.65-5.901-3.971-8.145-5.386-4.11 0-6.58-1.146-12.004-4.271-4.449-3.287-7.406-5.754-14.807-13.977 4.135 5.469 16.07 21.8 32.57 26.884 7.396 2.286 13.418 3.129 18.283 3.129 13.238-.009 17.771-6.249 17.88-6.396l1.829-2.131c.134-.137.242-.258.349-.377.284.524.572 1.047.856 1.541l.009.014c-.074.138-.155.31-.268.517-1.606 3.111-7.443 13.4-26.107 14.277-.716.042-1.434.051-2.152.051-13.882 0-26.208-6.231-35.78-12.924-9.584-6.691-14.709-12.493-19.293-15.619-3.25-2.213-8.622-4.098-15.06-4.105-8.334 0-17.339 4.222-20.278 19.943-2.02 11.874 4.07 23.476 9.812 26.146 3.31 1.521 4.423 1.163 5.433 1.521-7.44-3.542 2.14-1.314 4.616-5.597-11.519.657-19.25-7.559-18.266-20.557.181-2.355 1.117-7.65 2.634-9.541.675-.842-.984 22.7 16.454 16.941-6.417.821-5.597-4.765 3.618-8.389-6.747 2.468-10.199 1.151-13.16-2.14-1.411-1.57-2.601-7.277-2.308-7.072 3.292 2.31 6.58 4.441 10.861 4.274 1.315 0 7.396-1.476 5.853-4.733-3.056 1.607-17.205-.36-12.267-7.435 1.049-1.411 5.661-2.674 10.685-1.811 12.258 2.093 15.434 9.67 23.725 16.53 2.846 2.348 4.294 2.953 3.46 4.319-2.342 3.821-6.155 6.632-8.136 8.372-1.983 1.737-4.694 3.499-4.732 7.463 0 1.671.49 3.13 1.471 4.023.656.604 2.785 1.684 2.139 1.057-7.719-7.385 14.479-21.366 10.371-9.857-1.062 2.988 2.541 3.83 5.742 2.495 1.505-.624 2.527-1.118 3.194-1.458.21-.112.383-.198.516-.276-1.157 1.209-5.927 8.025-3.529 16.188 1.767 6.021 6.572 3.78 6.572 3.78.09-.105 0 0 0 0-3.946-1.805-2.179-12.987 11.205-13.963 3.038-.229 5.011-.524 6.236-.88.611-.182 1.036-.374 1.31-.586.276-.206.417-.438.417-.699-.009-.358-.266-.698-.631-1.038-.545-.489-1.349-.983-2.029-1.434-.33-.226-.627-.438-.842-.632-.219-.203-.327-.379-.317-.486 0-.095.046-.186.232-.293.524-.29 2.08-.497 5.265-.497.941 0 2.033.011 3.275.051 4.245.119 7.009.412 8.699.808.842.199 1.422.431 1.779.662.361.241.495.481.495.713 0 .353-.331.782-.877 1.229-.799.646-2.029 1.303-3.044 1.865-.519.285-.971.547-1.31.773-.167.112-.305.215-.403.319-.104.098-.168.188-.177.318 0 .07.043.145.108.196.069.046.146.083.254.107.219.055.533.085.915.085 2.489 0 8.243-1.146 13.478-4.025 5.227-2.871 9.95-7.487 10.29-14.441.09-1.907.206-3.165.267-3.928.33.445.691.747 1.146.751.146 0 .302-.026.46-.09l-.026-.09.039.072c.428-.291.673-.943.673-1.623z"/><path d="m302.69 198.919c1.96-1.101 3.383-3.266 6.705-3.736-2.397.096-5.291.848-6.777 1.678-2.773 1.524-3.31 3.957.072 2.058z"/><path d="m176.966 194.492c3.524-1.488 8.476-.997 11.996-5.103-2.098 3.228-5.772 6.409-8.433 7.553-4.943 2.115-9.649.103-3.563-2.45z"/><path d="m170.201 214.734c.774-2.412.129-5.339 2.665-8.209-2.038 1.857-3.941 4.651-4.54 6.478-1.116 3.392.547 5.888 1.875 1.731z"/><path d="m177.766 208.365c1.775-2.923 1.792-7.023 6.073-9.954-3.302 1.758-6.705 4.812-8.059 7.015-2.519 4.098-1.057 7.981 1.986 2.939z"/><path d="m170.296 202.143c2.565-.954 6.312-.56 8.711-3.293-1.389 2.158-3.954 4.265-5.879 5.003-3.588 1.367-7.251-.062-2.832-1.71z"/><path d="m180.663 216.459c-.207-2.137-1.814-4.336-.658-7.272-1.096 1.994-1.741 4.718-1.604 6.335.263 3.004 2.601 4.611 2.262.937z"/><path d="m172.276 221.397c.731-1.896 2.812-3.766 2.499-6.44.494 1.831.386 4.292-.16 5.723-1.023 2.65-3.627 3.966-2.339.717z"/><path d="m314.94 201.312c0-.202.013-.399.063-.597.157-.652.526-1.074.972-1.079h.015l.037-.03.28-.322c1.178-1.448 2.192-2.78 3.636-3.571.154-.091.301-.139.461-.139.645.019 1.182.696 1.436 1.582l.013.035-.021.042-.064.113-.043.06-.064-.021c-.271-.1-.525-.219-.766-.219-.137 0-.267.037-.404.145-.422.341-.791.807-1.131 1.324l.168.138c.834.573 2.178 1.22 3.921 1.22 1.835 0 4.744-.584 5.647-1.977.507.166 1.142-.085 2.617-.575-.146.096-.276.189-.422.285-3.691 2.413-6.175 3.094-7.843 3.094-1.02 0-1.729-.259-2.207-.516-.234-.134-.42-.267-.558-.366l-.154-.12-.052-.026-.021-.013h-.021l-.018-.018-.997-.832c-.052-.043-.122-.088-.173-.13-.216.34-.426.696-.627 1.07l.013.021c1.238 1.265 4.556 3.967 9.984 3.972 3.211-.005 7.151-.937 11.858-3.671.683-.4 1.319-.783 1.926-1.152 1.911.207 4.138-.611 7.887-2.26-1.634 2.141-5.866 4.41-8.059 5.226-5.438 2.012-9.692 2.699-12.945 2.699-3.087 0-5.274-.619-6.754-1.299 3.048 2.09 7.633 4.14 13.823 4.14 4.895 0 10.805-1.289 17.759-4.892 3.189-1.645 5.854-3.966 8.081-5.386 4.075 0 6.512-1.146 11.896-4.271 4.41-3.292 7.337-5.758 14.675-13.979-4.097 5.468-15.925 21.803-32.274 26.891-7.345 2.277-13.319 3.12-18.129 3.12-13.121-.009-17.617-6.249-17.721-6.386l-1.818-2.142c-.119-.131-.239-.247-.347-.369-.28.516-.551 1.041-.842 1.534-.01.005-.014.013-.014.013.073.139.158.311.256.525 1.609 3.111 7.395 13.4 25.889 14.278.708.031 1.427.053 2.131.053 13.771 0 25.98-6.243 35.477-12.934 9.493-6.688 14.568-12.496 19.117-15.62 3.213-2.205 8.543-4.093 14.926-4.1 8.252-.006 17.184 4.22 20.089 19.937 2.016 11.877-4.027 23.48-9.722 26.141-3.272 1.531-4.389 1.17-5.386 1.531 7.38-3.546-2.118-1.319-4.572-5.596 11.419.662 19.074-7.564 18.106-20.554-.18-2.359-1.104-7.659-2.607-9.54-.663-.848.97 22.692-16.308 16.938 6.352.82 5.545-4.775-3.59-8.385 6.684 2.463 10.114 1.147 13.045-2.141 1.397-1.573 2.575-7.285 2.283-7.079-3.267 2.308-6.521 4.445-10.763 4.275-1.307 0-7.345-1.478-5.802-4.735 3.03 1.616 17.054-.361 12.163-7.435-1.044-1.411-5.618-2.669-10.594-1.812-12.147 2.104-15.297 9.675-23.527 16.531-2.803 2.344-4.251 2.952-3.414 4.319 2.318 3.821 6.1 6.632 8.061 8.373 1.959 1.745 4.646 3.498 4.692 7.464-.009 1.672-.486 3.126-1.456 4.021-.658.605-2.765 1.685-2.129 1.066 7.659-7.393-14.355-21.375-10.271-9.86 1.049 2.986-2.528 3.825-5.704 2.488-1.483-.621-2.496-1.113-3.149-1.449-.225-.11-.378-.205-.524-.288 1.146 1.202 5.879 8.029 3.503 16.191-1.75 6.026-6.521 3.783-6.521 3.783-.082-.108 0 0 0 0 3.914-1.807 2.166-12.99-11.106-13.966-3.004-.227-4.964-.523-6.167-.875-.61-.181-1.032-.379-1.302-.59-.281-.206-.413-.438-.413-.695 0-.357.266-.706.619-1.033.545-.494 1.35-.989 2.015-1.435.332-.229.625-.443.834-.643.216-.191.328-.378.321-.493 0-.076-.055-.171-.227-.276-.531-.3-2.071-.505-5.222-.496-.937 0-2.016.008-3.245.043-4.212.12-6.949.421-8.626.812-.838.202-1.409.426-1.766.658-.354.239-.486.48-.486.713-.01.356.331.783.868 1.229.801.65 2.007 1.299 3.017 1.876.507.273.959.537 1.289.765.173.11.306.215.413.317.096.098.168.197.168.317 0 .074-.046.155-.099.193-.069.052-.147.086-.264.111-.219.062-.522.086-.91.086-2.458 0-8.156-1.142-13.346-4.017-5.186-2.871-9.872-7.491-10.198-14.451-.099-1.898-.207-3.163-.274-3.92-.318.441-.684.739-1.145.744-.138 0-.292-.033-.438-.087l.029-.093-.055.08c-.417-.297-.662-.951-.662-1.626z"/><path d="m316.56 198.979c-1.942-1.096-3.344-3.26-6.642-3.731 2.374.086 5.242.843 6.715 1.668 2.747 1.537 3.275 3.971-.073 2.063z"/><path d="m441.181 194.552c-3.499-1.479-8.407-.989-11.896-5.097 2.092 3.23 5.719 6.407 8.359 7.547 4.899 2.115 9.563.102 3.537-2.45z"/><path d="m447.877 214.795c-.767-2.407-.126-5.329-2.64-8.199 2.024 1.847 3.911 4.645 4.509 6.462 1.087 3.387-.545 5.896-1.869 1.737z"/><path d="m440.379 208.43c-1.747-2.927-1.786-7.026-6.012-9.95 3.263 1.754 6.642 4.797 7.974 7.007 2.514 4.099 1.067 7.98-1.962 2.943z"/><path d="m447.786 202.211c-2.531-.964-6.253-.568-8.634-3.292 1.37 2.154 3.92 4.254 5.836 4.997 3.546 1.363 7.179-.06 2.798-1.705z"/><path d="m437.518 216.519c.197-2.129 1.792-4.337.637-7.272 1.092 1.998 1.728 4.719 1.594 6.335-.258 3.004-2.579 4.612-2.231.937z"/><path d="m445.827 221.457c-.734-1.892-2.794-3.755-2.476-6.438-.499 1.838-.382 4.288.159 5.715 1.01 2.657 3.589 3.972 2.317.723z"/><path clip-rule="evenodd" d="m291.697 221.474c2.867.665 4.354 1.505 4.964 1.751-9.503-.319-17.338-.581-22.969 5.535 7.964-4.525 14.012-3.601 23.468-4.596-4.419 2.614-8.911 4.121-13.321 5.485-2.169 1.361-4.272 3.396-5.487 5.291-1.118-1.415.653-2.859-.178-2.98-.206-.025-.399-.033-.601-.033-3.142 1.882-5.965 3.837-7.203 6.009.338-1.264.958-2.786 2.062-4.285-4.349 1.995-8.428 4.801-12.039 9.57.38-8.207 11.042-26.433 31.304-21.747z" fill-rule="evenodd"/><path d="m309.25 215.368c-4.269 2.187-8.184 3.612-9.025 8.246 2.298-4.371 5.604-4.986 9.503-7.857-4.866 9.466-11.271 10.841-11.06 18.387-1.507-6.58-2.325-17.241 7.497-19.034 1.434-.263 2.753.271 3.085.258z"/><path d="m310.245 215.361c4.176 2.412 8.005 4.051 8.753 8.62-2.185-4.416-5.441-5.224-9.228-8.275 4.611 9.533 10.912 11.295 10.551 18.618 1.621-6.31 2.652-16.622-7.022-19.009-1.423-.352-2.722.082-3.054.046z"/><path d="m303.705 234.214c1.453 1.434 3.486 2.363 5.742 2.423 2.27.062 4.341-.757 5.846-2.109 1.521-1.354 2.476-3.254 2.519-5.39.052-2.132-.825-4.078-2.285-5.532-1.444-1.428-3.47-2.347-5.744-2.402-2.26-.063-4.319.744-5.836 2.102-1.513 1.354-2.471 3.262-2.526 5.394-.042 2.126.831 4.077 2.284 5.514z"/><path clip-rule="evenodd" d="m326.317 222.253c-2.922.74-4.439 1.612-5.051 1.882 9.774-.563 17.859-1.031 23.91 4.941-8.397-4.318-14.592-3.249-24.391-3.99 4.667 2.5 9.361 3.892 13.96 5.147 2.312 1.307 4.543 3.283 5.879 5.145 1.093-1.435-.804-2.838.061-2.979.215-.039.413-.052.61-.061 3.322 1.811 6.323 3.688 7.684 5.824-.399-1.25-1.103-2.755-2.311-4.225 4.572 1.877 8.893 4.577 12.816 9.258-.722-8.194-12.472-26.153-33.167-20.942z" fill-rule="evenodd"/><path clip-rule="evenodd" d="m249.376 5.049c-5.121 7.123 2.251 22.376-1.396 20.942-7.924-3.134-12.408-13.66-19.773-25.991 12.522 27.346 33.815 59.949 61.259 80.749-13.895-10.533-32.121-47.794-40.09-75.7z" fill-rule="evenodd"/><path clip-rule="evenodd" d="m207.295 51.471c17.36 15.316 33.395-1.142 69.87 23.204-30.634-20.443-45.973-27.791-48.184-41.752-3.289 12.362 8.79 17.284 5.789 20.708-9.827 1.845-17.25 2.069-27.475-2.16z" fill-rule="evenodd"/><path d="m297.538 91.791s-70.841-29.869-113.327 13.814c0-.001 30.363-39.337 113.327-13.814z"/><path d="m302.529 91.561s-91.204-51.59-155.678.882c.001 0 47.362-48.478 155.678-.882z"/><path d="m287.988 28.514c-8.631 9.933 2.181 20.832 12.994 32.704 4.331 4.759 5.359 6.435 6.898 11.245 2.038 6.334-2.161 10.181-2.14 10.257-.174-.188-14.573-.219-24.004-33.441 3.653 18.4 6.695 32.294 22.863 35.086-1.367 1.162-3.149 2.161-4.922 1.886-2.109-.326-5.085-.79-8.662-4.341-4.352-4.326-6.747-9.997-8.163-13.584-1.182-3.007-1.575-5.116-1.61-5.34-.041-.193-4.85-25.486 6.746-34.472z"/><path d="m199.168 78.68c7.226-2.665 13.177-9.212 24.664-8.998-8.129-.979-18.31.01-23.792 1.987-10.193 3.694-13.33 11.612-.872 7.011z"/><path d="m184.883 60.418c5.098 2.568 9.337 8.672 17.414 8.693-5.709.733-12.87-.352-16.749-2.263-7.189-3.572-9.456-10.872-.665-6.43z"/><path d="m175.883 83.521c3.568-3.068 5.379-8.336 12.19-10.426-5.029.958-10.77 3.546-13.485 5.85-5.041 4.281-4.853 9.865 1.295 4.576z"/><path d="m162.148 73.085c3.842.438 7.462 2.212 13.108 1.473-3.914.789-9.037 1.075-11.948.749-5.415-.591-7.787-2.971-1.16-2.222z"/><path d="m157.988 93.437c2.77-4.285 2.993-10.4 9.508-14.573-5.004 2.471-10.222 6.869-12.344 10.099-3.939 6.002-1.941 11.862 2.836 4.474z"/><path d="m141.367 87.984c4.064-.397 9.317 1.63 13.841-1.375-2.84 2.573-7.354 4.616-10.42 4.932-5.705.581-10.435-2.884-3.421-3.557z"/><path d="m147.285 105.018c.532-3.144-.945-6.94 1.87-10.73-2.359 2.451-4.337 6.129-4.763 8.514-.786 4.433 1.968 7.663 2.893 2.216z"/><path d="m134.679 104.009c2.346-1.188 5.207-1.493 8.007-4.051-1.804 1.931-4.538 4.021-6.311 4.927-3.304 1.677-5.757 1.157-1.696-.876z"/><path clip-rule="evenodd" d="m372.581 5.49c5.05 7.187-2.526 22.346 1.146 20.96 7.984-3.049 12.613-13.513 20.154-25.765-12.896 27.207-34.644 59.56-62.439 80.033 14.073-10.359 32.804-47.407 41.139-75.228z" fill-rule="evenodd"/><path clip-rule="evenodd" d="m414.233 52.404c-17.605 15.112-33.488-1.529-70.379 22.394 30.99-20.101 46.461-27.26 48.845-41.191 3.159 12.392-9.024 17.172-6.054 20.626 9.834 1.967 17.283 2.267 27.588-1.829z" fill-rule="evenodd"/><path d="m323.218 91.673s71.417-29.043 113.514 15.118c0 0-29.982-39.677-113.514-15.118z"/><path d="m318.204 91.388s92.125-50.546 156.162 2.68c0 0-46.916-49.027-156.162-2.68z"/><path d="m333.561 28.514c8.542 10.03-2.445 20.807-13.431 32.546-4.403 4.708-5.458 6.384-7.054 11.158-2.129 6.318 2.04 10.212 2.02 10.293.183-.194 14.623-.062 24.488-33.166-3.888 18.358-7.107 32.218-23.362 34.827 1.359 1.172 3.132 2.191 4.917 1.937 2.118-.301 5.104-.734 8.737-4.25 4.419-4.27 6.89-9.905 8.352-13.477 1.229-3.001 1.642-5.106 1.688-5.335.03-.188 5.167-25.425-6.355-34.533z"/><path d="m422.053 79.699c-7.209-2.747-13.111-9.365-24.638-9.284 8.171-.886 18.374.214 23.853 2.268 10.174 3.796 13.232 11.755.785 7.016z"/><path d="m436.606 61.605c-5.142 2.507-9.474 8.565-17.568 8.494 5.71.794 12.91-.203 16.824-2.079 7.256-3.485 9.625-10.761.744-6.415z"/><path d="m445.355 84.805c-3.542-3.119-5.291-8.397-12.103-10.558 5.035 1.004 10.756 3.659 13.458 6.002 5.007 4.332 4.748 9.917-1.355 4.556z"/><path d="m459.265 74.532c-3.863.387-7.511 2.12-13.172 1.315 3.918.831 9.055 1.177 11.979.887 5.437-.521 7.848-2.874 1.193-2.202z"/><path d="m463.188 94.924c-2.731-4.31-2.879-10.425-9.365-14.674 4.992 2.527 10.175 6.98 12.27 10.232 3.877 6.052 1.804 11.892-2.905 4.442z"/><path d="m479.931 89.666c-4.071-.438-9.37 1.529-13.875-1.538 2.819 2.608 7.324 4.698 10.4 5.054 5.707.651 10.497-2.762 3.475-3.516z"/><path d="m473.787 106.644c-.501-3.159 1.028-6.939-1.742-10.761 2.328 2.476 4.27 6.186 4.677 8.57.728 4.433-2.07 7.633-2.935 2.191z"/><path d="m486.443 105.767c-2.343-1.212-5.207-1.549-7.984-4.138 1.789 1.947 4.51 4.077 6.272 4.988 3.296 1.718 5.758 1.229 1.712-.85z"/><path d="m319.452 30.692c-2.094-2.264-5.035-3.707-8.319-3.793-3.282-.086-6.288 1.213-8.5 3.365-2.202 2.161-3.608 5.167-3.699 8.541-.082 3.373 1.172 6.451 3.271 8.713 2.09 2.262 5.024 3.705 8.317 3.791 3.281.082 6.286-1.202 8.488-3.363 2.21-2.16 3.623-5.167 3.703-8.54.077-3.368-1.167-6.456-3.261-8.714z"/><path clip-rule="evenodd" d="m615.763 116.069c-38.817-1.997-234.846-25.18-307.446-25.18-69.791.932-269.562 25.293-308.317 25.18z" fill-rule="evenodd"/></g></svg>