<?xml version="1.0" encoding="utf-8"?>
<!-- Generator: Adobe Illustrator 16.0.4, SVG Export Plug-In . SVG Version: 6.00 Build 0)  -->
<!DOCTYPE svg PUBLIC "-//W3C//DTD SVG 1.1//EN" "http://www.w3.org/Graphics/SVG/1.1/DTD/svg11.dtd">
<svg version="1.1" xmlns="http://www.w3.org/2000/svg" xmlns:xlink="http://www.w3.org/1999/xlink" x="0px" y="0px"
	 width="615.763px" height="243.221px" viewBox="0 0 615.763 243.221" enable-background="new 0 0 615.763 243.221"
	 xml:space="preserve">
<g id="guides" display="none">
	<rect x="99.232" y="116.089" display="inline" fill="#693B17" width="5.282" height="57.6"/>
</g>
<g id="background" display="none">
	<rect x="-13.382" y="-34.485" display="inline" width="648" height="360"/>
</g>
<g id="tMitG">
	<g>
		<path fill="#FFFFFF" stroke="#F1F1F2" stroke-miterlimit="10" d="M21.395,132.975v1.53h-10.71v28.05h-1.53v-28.05h-10.71v-1.53
			H21.395z"/>
		<path fill="#FFFFFF" stroke="#F1F1F2" stroke-miterlimit="10" d="M45.619,162.555h-1.53v-14.79h-15.3v14.79h-1.53v-29.58h1.53
			v13.26h15.3v-13.26h1.53V162.555z"/>
		<path fill="#FFFFFF" stroke="#F1F1F2" stroke-miterlimit="10" d="M75.096,159.546c-1.87,2.346-4.93,3.519-9.18,3.519
			c-4.25,0-7.293-1.206-9.129-3.62c-1.836-2.414-2.754-6.307-2.754-11.68c0-5.372,0.918-9.265,2.754-11.679
			c1.836-2.414,4.878-3.621,9.129-3.621c4.929,0,8.279,1.615,10.047,4.845l-12.495,10.455h-2.397l12.903-10.761
			c-1.497-2.006-4.182-3.009-8.058-3.009c-1.701,0-3.128,0.179-4.284,0.536c-1.156,0.357-2.218,1.02-3.188,1.989
			c-0.969,0.969-1.692,2.38-2.167,4.233c-0.477,1.854-0.714,4.191-0.714,7.013c0,2.822,0.237,5.16,0.714,7.013
			c0.476,1.854,1.199,3.264,2.167,4.233c0.969,0.969,2.031,1.631,3.188,1.988c1.156,0.357,2.583,0.535,4.284,0.535
			c3.876,0,6.562-1.002,8.058-3.008L75.096,159.546z"/>
		<path fill="#FFFFFF" stroke="#F1F1F2" stroke-miterlimit="10" d="M102.891,161.024h20.094v-30.549l-11.475,24.582l-11.475-24.633
			v32.13l-1.53-0.051v-35.7h1.53l11.475,24.633l11.475-24.582l1.53-0.051v35.751l-21.624-0.051V161.024z"/>
		<path fill="#FFFFFF" stroke="#F1F1F2" stroke-miterlimit="10" d="M137.111,161.024h16.626l-10.455-24.633l-11.118,26.163h-1.632
			l12.75-30.09l12.75,30.09h-18.921V161.024z"/>
		<path fill="#FFFFFF" stroke="#F1F1F2" stroke-miterlimit="10" d="M163.325,159.444c-1.836-2.414-2.754-6.307-2.754-11.68
			c0-5.372,0.918-9.265,2.754-11.679c1.836-2.414,4.878-3.621,9.129-3.621c4.25,0,7.31,1.173,9.18,3.519l-1.122,1.02
			c-1.497-2.006-4.182-3.009-8.058-3.009c-1.701,0-3.128,0.179-4.284,0.536c-1.156,0.357-2.218,1.02-3.188,1.989
			c-0.969,0.969-1.692,2.38-2.167,4.233c-0.477,1.854-0.714,4.191-0.714,7.013c0,2.822,0.237,5.16,0.714,7.013
			c0.476,1.854,1.199,3.264,2.167,4.233c0.969,0.969,2.031,1.631,3.188,1.988c1.156,0.357,2.583,0.535,4.284,0.535
			c3.876,0,6.562-1.002,8.058-3.008l1.122,1.02c-1.87,2.346-4.93,3.519-9.18,3.519C168.203,163.064,165.161,161.858,163.325,159.444
			z"/>
		<path fill="#FFFFFF" stroke="#F1F1F2" stroke-miterlimit="10" d="M207.592,162.555h-1.53v-14.79h-15.3v14.79h-1.53v-29.58h1.53
			v13.26h15.3v-13.26h1.53V162.555z"/>
		<path fill="#FFFFFF" stroke="#F1F1F2" stroke-miterlimit="10" d="M217.281,132.975h1.53v29.58h-1.53V132.975z"/>
		<path fill="#FFFFFF" stroke="#F1F1F2" stroke-miterlimit="10" d="M228.5,162.555v-29.58h1.53l16.626,26.774v-26.774h1.53v29.58
			h-1.53l-16.626-26.826v26.826H228.5z"/>
		<path fill="#FFFFFF" stroke="#F1F1F2" stroke-miterlimit="10" d="M277.664,159.546c-1.87,2.346-4.93,3.519-9.18,3.519
			c-4.25,0-7.293-1.206-9.129-3.62c-1.836-2.414-2.754-6.307-2.754-11.68c0-5.372,0.918-9.265,2.754-11.679
			c1.836-2.414,4.878-3.621,9.129-3.621c4.929,0,8.279,1.615,10.047,4.845l-12.495,10.455h-2.397l12.903-10.761
			c-1.497-2.006-4.182-3.009-8.058-3.009c-1.701,0-3.128,0.179-4.284,0.536c-1.156,0.357-2.218,1.02-3.188,1.989
			c-0.969,0.969-1.692,2.38-2.167,4.233c-0.477,1.854-0.714,4.191-0.714,7.013c0,2.822,0.237,5.16,0.714,7.013
			c0.476,1.854,1.199,3.264,2.167,4.233c0.969,0.969,2.031,1.631,3.188,1.988c1.156,0.357,2.583,0.535,4.284,0.535
			c3.876,0,6.562-1.002,8.058-3.008L277.664,159.546z"/>
		<path fill="#FFFFFF" stroke="#F1F1F2" stroke-miterlimit="10" d="M300.868,132.975h1.53v29.58h-1.53V132.975z"/>
		<path fill="#FFFFFF" stroke="#F1F1F2" stroke-miterlimit="10" d="M312.087,162.555v-29.58h1.53l16.625,26.774v-26.774h1.531v29.58
			h-1.531l-16.625-26.826v26.826H312.087z"/>
		<path fill="#FFFFFF" stroke="#F1F1F2" stroke-miterlimit="10" d="M375.631,132.975v1.53h-10.709v28.05h-1.529v-28.05h-10.711
			v-1.53H375.631z"/>
		<path fill="#FFFFFF" stroke="#F1F1F2" stroke-miterlimit="10" d="M399.856,162.555h-1.529v-14.79h-15.301v14.79h-1.529v-29.58
			h1.529v13.26h15.301v-13.26h1.529V162.555z"/>
		<path fill="#FFFFFF" stroke="#F1F1F2" stroke-miterlimit="10" d="M429.334,159.546c-1.871,2.346-4.93,3.519-9.18,3.519
			c-4.252,0-7.293-1.206-9.129-3.62s-2.754-6.307-2.754-11.68c0-5.372,0.918-9.265,2.754-11.679
			c1.836-2.414,4.877-3.621,9.129-3.621c4.93,0,8.277,1.615,10.047,4.845l-12.496,10.455h-2.396l12.902-10.761
			c-1.496-2.006-4.182-3.009-8.057-3.009c-1.701,0-3.129,0.179-4.285,0.536s-2.219,1.02-3.188,1.989
			c-0.969,0.969-1.691,2.38-2.166,4.233c-0.477,1.854-0.715,4.191-0.715,7.013c0,2.822,0.238,5.16,0.715,7.013
			c0.475,1.854,1.197,3.264,2.166,4.233c0.969,0.969,2.031,1.631,3.188,1.988s2.584,0.535,4.285,0.535
			c3.875,0,6.561-1.002,8.057-3.008L429.334,159.546z"/>
		<path fill="#FFFFFF" stroke="#F1F1F2" stroke-miterlimit="10" d="M473.499,134.046c-0.781-1.972-1.887-3.494-3.314-4.565
			c-1.428-1.071-3.654-1.606-6.682-1.606c-1.666,0-3.094,0.213-4.283,0.638c-1.189,0.425-2.262,1.147-3.213,2.167
			c-0.953,1.02-1.666,2.491-2.143,4.412c-0.477,1.921-0.713,4.292-0.713,7.114v4.999c0,2.822,0.236,5.193,0.713,7.114
			s1.189,3.392,2.143,4.411c0.951,1.02,2.023,1.743,3.213,2.168c1.189,0.426,2.617,0.637,4.283,0.637
			c3.061,0,5.492-0.654,7.293-1.963c1.803-1.309,2.703-2.711,2.703-4.207v-8.619h-6.271v-1.53h8.107v9.639
			c0,2.278-1.027,4.216-3.084,5.813c-2.059,1.6-4.973,2.397-8.748,2.397c-4.182,0-7.207-1.282-9.076-3.851
			c-1.871-2.566-2.807-6.57-2.807-12.01v-4.999c0-5.439,0.936-9.443,2.807-12.01c1.869-2.567,4.895-3.851,9.076-3.851
			c3.367,0,5.883,0.621,7.549,1.861c1.666,1.242,2.959,3.001,3.877,5.279L473.499,134.046z"/>
		<path fill="#FFFFFF" stroke="#F1F1F2" stroke-miterlimit="10" d="M486.606,161.024h16.625l-10.455-24.633l-11.117,26.163h-1.633
			l12.75-30.09l12.75,30.09h-18.92V161.024z"/>
		<path fill="#FFFFFF" stroke="#F1F1F2" stroke-miterlimit="10" d="M523.784,147.714l6.936,14.841h-1.682l-7.141-15.3
			c0.068-0.033,0.365-0.179,0.893-0.434s0.893-0.441,1.096-0.561c0.205-0.119,0.545-0.332,1.021-0.638
			c0.475-0.306,0.832-0.603,1.07-0.893c0.238-0.288,0.502-0.628,0.791-1.02c0.287-0.39,0.5-0.833,0.637-1.326
			c0.137-0.493,0.205-1.028,0.205-1.606c0-2.142-1.021-3.723-3.061-4.743c-2.041-1.02-4.574-1.53-7.6-1.53h-4.08v28.05h-1.529
			v-29.58h5.609c4.012,0,7.047,0.697,9.104,2.091c2.057,1.395,3.086,3.298,3.086,5.712c0,1.564-0.527,2.95-1.58,4.156
			C526.504,146.142,525.245,147.068,523.784,147.714z"/>
		<path fill="#FFFFFF" stroke="#F1F1F2" stroke-miterlimit="10" d="M541.532,162.555h-3.877v-29.58h3.877
			c5.031,0,9.043,1.326,12.035,3.978s4.488,6.256,4.488,10.812c0,4.557-1.496,8.16-4.488,10.812
			C550.575,161.229,546.563,162.555,541.532,162.555z M541.532,161.024c4.59,0,8.236-1.173,10.939-3.519
			c2.703-2.347,4.055-5.593,4.055-9.741c0-4.147-1.352-7.395-4.055-9.741c-2.703-2.346-6.35-3.519-10.939-3.519h-2.346v26.52
			H541.532z"/>
		<path fill="#FFFFFF" stroke="#F1F1F2" stroke-miterlimit="10" d="M585.647,159.546c-1.871,2.346-4.93,3.519-9.18,3.519
			c-4.252,0-7.293-1.206-9.129-3.62s-2.754-6.307-2.754-11.68c0-5.372,0.918-9.265,2.754-11.679
			c1.836-2.414,4.877-3.621,9.129-3.621c4.93,0,8.277,1.615,10.047,4.845l-12.496,10.455h-2.396l12.902-10.761
			c-1.496-2.006-4.182-3.009-8.057-3.009c-1.701,0-3.129,0.179-4.285,0.536s-2.219,1.02-3.188,1.989
			c-0.969,0.969-1.691,2.38-2.166,4.233c-0.477,1.854-0.715,4.191-0.715,7.013c0,2.822,0.238,5.16,0.715,7.013
			c0.475,1.854,1.197,3.264,2.166,4.233c0.969,0.969,2.031,1.631,3.188,1.988s2.584,0.535,4.285,0.535
			c3.875,0,6.561-1.002,8.057-3.008L585.647,159.546z"/>
		<path fill="#FFFFFF" stroke="#F1F1F2" stroke-miterlimit="10" d="M593.805,162.555v-29.58h1.531l16.625,26.774v-26.774h1.531
			v29.58h-1.531l-16.625-26.826v26.826H593.805z"/>
	</g>
</g>
<g id="bottom_ornament">
	<g>
		<path fill-rule="evenodd" clip-rule="evenodd" fill="#034F5F" d="M567.579,173.81L567.579,173.81
			c-32.737,1.683-198.09,21.24-259.332,21.24l0,0l0,0l0,0l0,0l0,0c-58.864-0.791-227.379-21.333-260.062-21.24l0,0H567.579
			L567.579,173.81z"/>
		<g>
			<g>
				<path fill="#034F5F" d="M304.324,201.247c0-0.196-0.018-0.403-0.06-0.593c-0.16-0.653-0.529-1.077-0.985-1.077h-0.013
					l-0.038-0.032l-0.281-0.316c-1.195-1.453-2.212-2.786-3.666-3.575c-0.146-0.097-0.309-0.14-0.468-0.14
					c-0.649,0.017-1.196,0.692-1.448,1.579l-0.013,0.038l0.025,0.034l0.069,0.11l0.039,0.07l0.064-0.026
					c0.266-0.096,0.533-0.215,0.762-0.215c0.145,0,0.278,0.035,0.416,0.137c0.426,0.349,0.8,0.809,1.144,1.324l-0.164,0.146
					c-0.852,0.571-2.21,1.225-3.962,1.225c-1.849,0-4.784-0.592-5.695-1.988c-0.511,0.168-1.152-0.079-2.64-0.568
					c0.146,0.091,0.271,0.181,0.425,0.283c3.723,2.411,6.233,3.095,7.91,3.095c1.031,0,1.74-0.259,2.235-0.524
					c0.231-0.128,0.417-0.258,0.549-0.365l0.158-0.116l0.053-0.029l0.021-0.006l0.022-0.009l0.025-0.013l0.997-0.828
					c0.061-0.048,0.112-0.087,0.177-0.129c0.214,0.339,0.424,0.7,0.627,1.073l-0.013,0.01c-1.251,1.263-4.586,3.975-10.08,3.979
					c-3.227-0.004-7.203-0.939-11.948-3.67c-0.692-0.396-1.336-0.785-1.951-1.16c-1.93,0.206-4.169-0.609-7.952-2.257
					c1.641,2.137,5.914,4.414,8.124,5.223c5.497,2.02,9.782,2.709,13.066,2.709c3.111,0,5.316-0.629,6.816-1.3
					c-3.081,2.089-7.706,4.145-13.947,4.145c-4.939,0-10.908-1.291-17.927-4.901c-3.215-1.65-5.901-3.971-8.145-5.386
					c-4.11,0-6.58-1.146-12.004-4.271c-4.449-3.287-7.406-5.754-14.807-13.977c4.135,5.469,16.07,21.8,32.57,26.884
					c7.396,2.286,13.418,3.129,18.283,3.129c13.238-0.009,17.771-6.249,17.88-6.396l1.829-2.131
					c0.134-0.137,0.242-0.258,0.349-0.377c0.284,0.524,0.572,1.047,0.856,1.541l0.009,0.014c-0.074,0.138-0.155,0.31-0.268,0.517
					c-1.606,3.111-7.443,13.4-26.107,14.277c-0.716,0.042-1.434,0.051-2.152,0.051c-13.882,0-26.208-6.231-35.78-12.924
					c-9.584-6.691-14.709-12.493-19.293-15.619c-3.25-2.213-8.622-4.098-15.06-4.105c-8.334,0-17.339,4.222-20.278,19.943l0,0
					c-2.02,11.874,4.07,23.476,9.812,26.146c3.31,1.521,4.423,1.163,5.433,1.521c-7.44-3.542,2.14-1.314,4.616-5.597
					c-11.519,0.657-19.25-7.559-18.266-20.557c0.181-2.355,1.117-7.65,2.634-9.541c0.675-0.842-0.984,22.7,16.454,16.941
					c-6.417,0.821-5.597-4.765,3.618-8.389c-6.747,2.468-10.199,1.151-13.16-2.14c-1.411-1.57-2.601-7.277-2.308-7.072
					c3.292,2.31,6.58,4.441,10.861,4.274l0,0c1.315,0,7.396-1.476,5.853-4.733c-3.056,1.607-17.205-0.36-12.267-7.435
					c1.049-1.411,5.661-2.674,10.685-1.811c12.258,2.093,15.434,9.67,23.725,16.53c2.846,2.348,4.294,2.953,3.46,4.319
					c-2.342,3.821-6.155,6.632-8.136,8.372c-1.983,1.737-4.694,3.499-4.732,7.463l0,0c0,1.671,0.49,3.13,1.471,4.023
					c0.656,0.604,2.785,1.684,2.139,1.057c-7.719-7.385,14.479-21.366,10.371-9.857c-1.062,2.988,2.541,3.83,5.742,2.495
					c1.505-0.624,2.527-1.118,3.194-1.458c0.21-0.112,0.383-0.198,0.516-0.276c-1.157,1.209-5.927,8.025-3.529,16.188
					c1.767,6.021,6.572,3.78,6.572,3.78l0,0l0,0l0,0l0,0c0.09-0.105,0,0,0,0c-3.946-1.805-2.179-12.987,11.205-13.963
					c3.038-0.229,5.011-0.524,6.236-0.88c0.611-0.182,1.036-0.374,1.31-0.586c0.276-0.206,0.417-0.438,0.417-0.699
					c-0.009-0.358-0.266-0.698-0.631-1.038c-0.545-0.489-1.349-0.983-2.029-1.434c-0.33-0.226-0.627-0.438-0.842-0.632
					c-0.219-0.203-0.327-0.379-0.317-0.486c0-0.095,0.046-0.186,0.232-0.293c0.524-0.29,2.08-0.497,5.265-0.497
					c0.941,0,2.033,0.011,3.275,0.051c4.245,0.119,7.009,0.412,8.699,0.808c0.842,0.199,1.422,0.431,1.779,0.662
					c0.361,0.241,0.495,0.481,0.495,0.713c0,0.353-0.331,0.782-0.877,1.229c-0.799,0.646-2.029,1.303-3.044,1.865
					c-0.519,0.285-0.971,0.547-1.31,0.773c-0.167,0.112-0.305,0.215-0.403,0.319c-0.104,0.098-0.168,0.188-0.177,0.318
					c0,0.07,0.043,0.145,0.108,0.196c0.069,0.046,0.146,0.083,0.254,0.107c0.219,0.055,0.533,0.085,0.915,0.085
					c2.489,0,8.243-1.146,13.478-4.025c5.227-2.871,9.95-7.487,10.29-14.441c0.09-1.907,0.206-3.165,0.267-3.928
					c0.33,0.445,0.691,0.747,1.146,0.751c0.146,0,0.302-0.026,0.46-0.09l-0.026-0.09l0.039,0.072
					C304.079,202.579,304.324,201.927,304.324,201.247z"/>
				<path fill="#034F5F" d="M302.69,198.919c1.96-1.101,3.383-3.266,6.705-3.736l0,0c-2.397,0.096-5.291,0.848-6.777,1.678
					C299.845,198.385,299.308,200.818,302.69,198.919z"/>
				<path fill="#034F5F" d="M176.966,194.492c3.524-1.488,8.476-0.997,11.996-5.103l0,0c-2.098,3.228-5.772,6.409-8.433,7.553
					C175.586,199.057,170.88,197.045,176.966,194.492z"/>
				<path fill="#034F5F" d="M170.201,214.734c0.774-2.412,0.129-5.339,2.665-8.209l0,0c-2.038,1.857-3.941,4.651-4.54,6.478
					C167.21,216.395,168.873,218.891,170.201,214.734z"/>
				<path fill="#034F5F" d="M177.766,208.365c1.775-2.923,1.792-7.023,6.073-9.954l0,0c-3.302,1.758-6.705,4.812-8.059,7.015
					C173.261,209.524,174.723,213.407,177.766,208.365z"/>
				<path fill="#034F5F" d="M170.296,202.143c2.565-0.954,6.312-0.56,8.711-3.293l0,0c-1.389,2.158-3.954,4.265-5.879,5.003
					C169.54,205.22,165.877,203.791,170.296,202.143z"/>
				<path fill="#034F5F" d="M180.663,216.459c-0.207-2.137-1.814-4.336-0.658-7.272l0,0c-1.096,1.994-1.741,4.718-1.604,6.335
					C178.664,218.526,181.002,220.133,180.663,216.459z"/>
				<path fill="#034F5F" d="M172.276,221.397c0.731-1.896,2.812-3.766,2.499-6.44l0,0c0.494,1.831,0.386,4.292-0.16,5.723
					C173.592,223.33,170.988,224.646,172.276,221.397z"/>
			</g>
			<g>
				<path fill="#034F5F" d="M314.94,201.312c0-0.202,0.013-0.399,0.063-0.597c0.157-0.652,0.526-1.074,0.972-1.079h0.015l0.037-0.03
					l0.28-0.322c1.178-1.448,2.192-2.78,3.636-3.571c0.154-0.091,0.301-0.139,0.461-0.139c0.645,0.019,1.182,0.696,1.436,1.582
					l0.013,0.035l-0.021,0.042l-0.064,0.113l-0.043,0.06l-0.064-0.021c-0.271-0.1-0.525-0.219-0.766-0.219
					c-0.137,0-0.267,0.037-0.404,0.145c-0.422,0.341-0.791,0.807-1.131,1.324l0.168,0.138c0.834,0.573,2.178,1.22,3.921,1.22
					c1.835,0,4.744-0.584,5.647-1.977c0.507,0.166,1.142-0.085,2.617-0.575c-0.146,0.096-0.276,0.189-0.422,0.285
					c-3.691,2.413-6.175,3.094-7.843,3.094c-1.02,0-1.729-0.259-2.207-0.516c-0.234-0.134-0.42-0.267-0.558-0.366l-0.154-0.12
					l-0.052-0.026l-0.021-0.013h-0.021l-0.018-0.018l-0.997-0.832c-0.052-0.043-0.122-0.088-0.173-0.13
					c-0.216,0.34-0.426,0.696-0.627,1.07l0.013,0.021c1.238,1.265,4.556,3.967,9.984,3.972c3.211-0.005,7.151-0.937,11.858-3.671
					c0.683-0.4,1.319-0.783,1.926-1.152c1.911,0.207,4.138-0.611,7.887-2.26c-1.634,2.141-5.866,4.41-8.059,5.226
					c-5.438,2.012-9.692,2.699-12.945,2.699c-3.087,0-5.274-0.619-6.754-1.299c3.048,2.09,7.633,4.14,13.823,4.14
					c4.895,0,10.805-1.289,17.759-4.892c3.189-1.645,5.854-3.966,8.081-5.386c4.075,0,6.512-1.146,11.896-4.271
					c4.41-3.292,7.337-5.758,14.675-13.979c-4.097,5.468-15.925,21.803-32.274,26.891c-7.345,2.277-13.319,3.12-18.129,3.12
					c-13.121-0.009-17.617-6.249-17.721-6.386l-1.818-2.142c-0.119-0.131-0.239-0.247-0.347-0.369
					c-0.28,0.516-0.551,1.041-0.842,1.534c-0.01,0.005-0.014,0.013-0.014,0.013c0.073,0.139,0.158,0.311,0.256,0.525
					c1.609,3.111,7.395,13.4,25.889,14.278c0.708,0.031,1.427,0.053,2.131,0.053c13.771,0,25.98-6.243,35.477-12.934
					c9.493-6.688,14.568-12.496,19.117-15.62c3.213-2.205,8.543-4.093,14.926-4.1c8.252-0.006,17.184,4.22,20.089,19.937l0,0
					c2.016,11.877-4.027,23.48-9.722,26.141c-3.272,1.531-4.389,1.17-5.386,1.531c7.38-3.546-2.118-1.319-4.572-5.596
					c11.419,0.662,19.074-7.564,18.106-20.554c-0.18-2.359-1.104-7.659-2.607-9.54c-0.663-0.848,0.97,22.692-16.308,16.938
					c6.352,0.82,5.545-4.775-3.59-8.385c6.684,2.463,10.114,1.147,13.045-2.141c1.397-1.573,2.575-7.285,2.283-7.079
					c-3.267,2.308-6.521,4.445-10.763,4.275l0,0c-1.307,0-7.345-1.478-5.802-4.735c3.03,1.616,17.054-0.361,12.163-7.435
					c-1.044-1.411-5.618-2.669-10.594-1.812c-12.147,2.104-15.297,9.675-23.527,16.531c-2.803,2.344-4.251,2.952-3.414,4.319
					c2.318,3.821,6.1,6.632,8.061,8.373c1.959,1.745,4.646,3.498,4.692,7.464l0,0c-0.009,1.672-0.486,3.126-1.456,4.021
					c-0.658,0.605-2.765,1.685-2.129,1.066c7.659-7.393-14.355-21.375-10.271-9.86c1.049,2.986-2.528,3.825-5.704,2.488
					c-1.483-0.621-2.496-1.113-3.149-1.449c-0.225-0.11-0.378-0.205-0.524-0.288c1.146,1.202,5.879,8.029,3.503,16.191
					c-1.75,6.026-6.521,3.783-6.521,3.783l0,0l0,0l0,0l0,0c-0.082-0.108,0,0,0,0c3.914-1.807,2.166-12.99-11.106-13.966
					c-3.004-0.227-4.964-0.523-6.167-0.875c-0.61-0.181-1.032-0.379-1.302-0.59c-0.281-0.206-0.413-0.438-0.413-0.695
					c0-0.357,0.266-0.706,0.619-1.033c0.545-0.494,1.35-0.989,2.015-1.435c0.332-0.229,0.625-0.443,0.834-0.643
					c0.216-0.191,0.328-0.378,0.321-0.493c0-0.076-0.055-0.171-0.227-0.276c-0.531-0.3-2.071-0.505-5.222-0.496
					c-0.937,0-2.016,0.008-3.245,0.043c-4.212,0.12-6.949,0.421-8.626,0.812c-0.838,0.202-1.409,0.426-1.766,0.658
					c-0.354,0.239-0.486,0.48-0.486,0.713c-0.01,0.356,0.331,0.783,0.868,1.229c0.801,0.65,2.007,1.299,3.017,1.876
					c0.507,0.273,0.959,0.537,1.289,0.765c0.173,0.11,0.306,0.215,0.413,0.317c0.096,0.098,0.168,0.197,0.168,0.317
					c0,0.074-0.046,0.155-0.099,0.193c-0.069,0.052-0.147,0.086-0.264,0.111c-0.219,0.062-0.522,0.086-0.91,0.086
					c-2.458,0-8.156-1.142-13.346-4.017c-5.186-2.871-9.872-7.491-10.198-14.451c-0.099-1.898-0.207-3.163-0.274-3.92
					c-0.318,0.441-0.684,0.739-1.145,0.744c-0.138,0-0.292-0.033-0.438-0.087l0.029-0.093l-0.055,0.08
					C315.185,202.641,314.94,201.987,314.94,201.312z"/>
				<path fill="#034F5F" d="M316.56,198.979c-1.942-1.096-3.344-3.26-6.642-3.731l0,0c2.374,0.086,5.242,0.843,6.715,1.668
					C319.38,198.453,319.908,200.887,316.56,198.979z"/>
				<path fill="#034F5F" d="M441.181,194.552c-3.499-1.479-8.407-0.989-11.896-5.097l0,0c2.092,3.23,5.719,6.407,8.359,7.547
					C442.543,199.117,447.207,197.104,441.181,194.552z"/>
				<path fill="#034F5F" d="M447.877,214.795c-0.767-2.407-0.126-5.329-2.64-8.199l0,0c2.024,1.847,3.911,4.645,4.509,6.462
					C450.833,216.445,449.201,218.954,447.877,214.795z"/>
				<path fill="#034F5F" d="M440.379,208.43c-1.747-2.927-1.786-7.026-6.012-9.95l0,0c3.263,1.754,6.642,4.797,7.974,7.007
					C444.855,209.586,443.408,213.467,440.379,208.43z"/>
				<path fill="#034F5F" d="M447.786,202.211c-2.531-0.964-6.253-0.568-8.634-3.292l0,0c1.37,2.154,3.92,4.254,5.836,4.997
					C448.534,205.279,452.167,203.856,447.786,202.211z"/>
				<path fill="#034F5F" d="M437.518,216.519c0.197-2.129,1.792-4.337,0.637-7.272l0,0c1.092,1.998,1.728,4.719,1.594,6.335
					C439.491,218.586,437.17,220.194,437.518,216.519z"/>
				<path fill="#034F5F" d="M445.827,221.457c-0.734-1.892-2.794-3.755-2.476-6.438l0,0c-0.499,1.838-0.382,4.288,0.159,5.715
					C444.52,223.391,447.099,224.706,445.827,221.457z"/>
			</g>
		</g>
		<path fill-rule="evenodd" clip-rule="evenodd" fill="#034F5F" d="M291.697,221.474c2.867,0.665,4.354,1.505,4.964,1.751
			c-9.503-0.319-17.338-0.581-22.969,5.535c7.964-4.525,14.012-3.601,23.468-4.596c-4.419,2.614-8.911,4.121-13.321,5.485
			c-2.169,1.361-4.272,3.396-5.487,5.291c-1.118-1.415,0.653-2.859-0.178-2.98c-0.206-0.025-0.399-0.033-0.601-0.033
			c-3.142,1.882-5.965,3.837-7.203,6.009c0.338-1.264,0.958-2.786,2.062-4.285c-4.349,1.995-8.428,4.801-12.039,9.57
			C260.773,235.014,271.435,216.788,291.697,221.474z"/>
		<g>
			<path fill="#034F5F" d="M309.25,215.368c-4.269,2.187-8.184,3.612-9.025,8.246c2.298-4.371,5.604-4.986,9.503-7.857
				c-4.866,9.466-11.271,10.841-11.06,18.387c-1.507-6.58-2.325-17.241,7.497-19.034
				C307.599,214.847,308.918,215.381,309.25,215.368z"/>
			<path fill="#034F5F" d="M310.245,215.361c4.176,2.412,8.005,4.051,8.753,8.62c-2.185-4.416-5.441-5.224-9.228-8.275
				c4.611,9.533,10.912,11.295,10.551,18.618c1.621-6.31,2.652-16.622-7.022-19.009
				C311.876,214.963,310.577,215.397,310.245,215.361z"/>
		</g>
		<path fill="#034F5F" d="M303.705,234.214c1.453,1.434,3.486,2.363,5.742,2.423c2.27,0.062,4.341-0.757,5.846-2.109
			c1.521-1.354,2.476-3.254,2.519-5.39c0.052-2.132-0.825-4.078-2.285-5.532c-1.444-1.428-3.47-2.347-5.744-2.402
			c-2.26-0.063-4.319,0.744-5.836,2.102c-1.513,1.354-2.471,3.262-2.526,5.394C301.379,230.826,302.252,232.777,303.705,234.214z"/>
		<path fill-rule="evenodd" clip-rule="evenodd" fill="#034F5F" d="M326.317,222.253c-2.922,0.74-4.439,1.612-5.051,1.882
			c9.774-0.563,17.859-1.031,23.91,4.941c-8.397-4.318-14.592-3.249-24.391-3.99c4.667,2.5,9.361,3.892,13.96,5.147
			c2.312,1.307,4.543,3.283,5.879,5.145c1.093-1.435-0.804-2.838,0.061-2.979c0.215-0.039,0.413-0.052,0.61-0.061
			c3.322,1.811,6.323,3.688,7.684,5.824c-0.399-1.25-1.103-2.755-2.311-4.225c4.572,1.877,8.893,4.577,12.816,9.258
			C358.762,235.001,347.012,217.042,326.317,222.253z"/>
	</g>
</g>
<g id="top_ornament">
	<g>
		<g>
			<g>
				<path fill-rule="evenodd" clip-rule="evenodd" fill="#034F5F" d="M249.376,5.049c-5.121,7.123,2.251,22.376-1.396,20.942
					c-7.924-3.134-12.408-13.66-19.773-25.991c12.522,27.346,33.815,59.949,61.259,80.749
					C275.571,70.216,257.345,32.955,249.376,5.049z"/>
				<path fill-rule="evenodd" clip-rule="evenodd" fill="#034F5F" d="M207.295,51.471c17.36,15.316,33.395-1.142,69.87,23.204
					c-30.634-20.443-45.973-27.791-48.184-41.752c-3.289,12.362,8.79,17.284,5.789,20.708
					C224.943,55.476,217.52,55.7,207.295,51.471z"/>
				<g>
					<path fill="#034F5F" d="M297.538,91.791c0,0-70.841-29.869-113.327,13.814C184.211,105.604,214.574,66.268,297.538,91.791z"/>
					<path fill="#034F5F" d="M302.529,91.561c0,0-91.204-51.59-155.678,0.882C146.852,92.443,194.213,43.965,302.529,91.561z"/>
				</g>
				<path fill="#034F5F" d="M287.988,28.514L287.988,28.514c-8.631,9.933,2.181,20.832,12.994,32.704
					c4.331,4.759,5.359,6.435,6.898,11.245c2.038,6.334-2.161,10.181-2.14,10.257c-0.174-0.188-14.573-0.219-24.004-33.441
					c3.653,18.4,6.695,32.294,22.863,35.086c-1.367,1.162-3.149,2.161-4.922,1.886c-2.109-0.326-5.085-0.79-8.662-4.341
					c-4.352-4.326-6.747-9.997-8.163-13.584c-1.182-3.007-1.575-5.116-1.61-5.34C281.201,62.793,276.392,37.5,287.988,28.514
					L287.988,28.514z"/>
				<g>
					<g>
						<path fill="#034F5F" d="M199.168,78.68c7.226-2.665,13.177-9.212,24.664-8.998l0,0c-8.129-0.979-18.31,0.01-23.792,1.987
							C189.847,75.363,186.71,83.281,199.168,78.68z"/>
						<path fill="#034F5F" d="M184.883,60.418c5.098,2.568,9.337,8.672,17.414,8.693l0,0c-5.709,0.733-12.87-0.352-16.749-2.263
							C178.359,63.276,176.092,55.976,184.883,60.418z"/>
						<path fill="#034F5F" d="M175.883,83.521c3.568-3.068,5.379-8.336,12.19-10.426l0,0c-5.029,0.958-10.77,3.546-13.485,5.85
							C169.547,83.226,169.735,88.81,175.883,83.521z"/>
						<path fill="#034F5F" d="M162.148,73.085c3.842,0.438,7.462,2.212,13.108,1.473l0,0c-3.914,0.789-9.037,1.075-11.948,0.749
							C157.893,74.716,155.521,72.336,162.148,73.085z"/>
					</g>
					<g>
						<path fill="#034F5F" d="M157.988,93.437c2.77-4.285,2.993-10.4,9.508-14.573l0,0c-5.004,2.471-10.222,6.869-12.344,10.099
							C151.213,94.965,153.211,100.825,157.988,93.437z"/>
						<path fill="#034F5F" d="M141.367,87.984c4.064-0.397,9.317,1.63,13.841-1.375l0,0c-2.84,2.573-7.354,4.616-10.42,4.932
							C139.083,92.122,134.353,88.657,141.367,87.984z"/>
						<path fill="#034F5F" d="M147.285,105.018c0.532-3.144-0.945-6.94,1.87-10.73l0,0c-2.359,2.451-4.337,6.129-4.763,8.514
							C143.606,107.235,146.36,110.465,147.285,105.018z"/>
						<path fill="#034F5F" d="M134.679,104.009c2.346-1.188,5.207-1.493,8.007-4.051l0,0c-1.804,1.931-4.538,4.021-6.311,4.927
							C133.071,106.562,130.618,106.042,134.679,104.009z"/>
					</g>
				</g>
			</g>
			<g>
				<path fill-rule="evenodd" clip-rule="evenodd" fill="#034F5F" d="M372.581,5.49c5.05,7.187-2.526,22.346,1.146,20.96
					c7.984-3.049,12.613-13.513,20.154-25.765c-12.896,27.207-34.644,59.56-62.439,80.033
					C345.515,70.359,364.246,33.311,372.581,5.49z"/>
				<path fill-rule="evenodd" clip-rule="evenodd" fill="#034F5F" d="M414.233,52.404c-17.605,15.112-33.488-1.529-70.379,22.394
					c30.99-20.101,46.461-27.26,48.845-41.191c3.159,12.392-9.024,17.172-6.054,20.626C396.479,56.2,403.928,56.5,414.233,52.404z"
					/>
				<g>
					<path fill="#034F5F" d="M323.218,91.673c0,0,71.417-29.043,113.514,15.118C436.732,106.791,406.75,67.114,323.218,91.673z"/>
					<path fill="#034F5F" d="M318.204,91.388c0,0,92.125-50.546,156.162,2.68C474.366,94.068,427.45,45.041,318.204,91.388z"/>
				</g>
				<path fill="#034F5F" d="M333.561,28.514L333.561,28.514c8.542,10.03-2.445,20.807-13.431,32.546
					c-4.403,4.708-5.458,6.384-7.054,11.158c-2.129,6.318,2.04,10.212,2.02,10.293c0.183-0.194,14.623-0.062,24.488-33.166
					c-3.888,18.358-7.107,32.218-23.362,34.827c1.359,1.172,3.132,2.191,4.917,1.937c2.118-0.301,5.104-0.734,8.737-4.25
					c4.419-4.27,6.89-9.905,8.352-13.477c1.229-3.001,1.642-5.106,1.688-5.335C339.946,62.859,345.083,37.622,333.561,28.514
					L333.561,28.514z"/>
				<g>
					<g>
						<path fill="#034F5F" d="M422.053,79.699c-7.209-2.747-13.111-9.365-24.638-9.284l0,0c8.171-0.886,18.374,0.214,23.853,2.268
							C431.442,76.479,434.5,84.438,422.053,79.699z"/>
						<path fill="#034F5F" d="M436.606,61.605c-5.142,2.507-9.474,8.565-17.568,8.494l0,0c5.71,0.794,12.91-0.203,16.824-2.079
							C443.118,64.535,445.487,57.259,436.606,61.605z"/>
						<path fill="#034F5F" d="M445.355,84.805c-3.542-3.119-5.291-8.397-12.103-10.558l0,0c5.035,1.004,10.756,3.659,13.458,6.002
							C451.717,84.581,451.458,90.166,445.355,84.805z"/>
						<path fill="#034F5F" d="M459.265,74.532c-3.863,0.387-7.511,2.12-13.172,1.315l0,0c3.918,0.831,9.055,1.177,11.979,0.887
							C463.509,76.213,465.92,73.86,459.265,74.532z"/>
					</g>
					<g>
						<path fill="#034F5F" d="M463.188,94.924c-2.731-4.31-2.879-10.425-9.365-14.674l0,0c4.992,2.527,10.175,6.98,12.27,10.232
							C469.97,96.534,467.897,102.374,463.188,94.924z"/>
						<path fill="#034F5F" d="M479.931,89.666c-4.071-0.438-9.37,1.529-13.875-1.538l0,0c2.819,2.608,7.324,4.698,10.4,5.054
							C482.163,93.833,486.953,90.42,479.931,89.666z"/>
						<path fill="#034F5F" d="M473.787,106.644c-0.501-3.159,1.028-6.939-1.742-10.761l0,0c2.328,2.476,4.27,6.186,4.677,8.57
							C477.45,108.886,474.652,112.086,473.787,106.644z"/>
						<path fill="#034F5F" d="M486.443,105.767c-2.343-1.212-5.207-1.549-7.984-4.138l0,0c1.789,1.947,4.51,4.077,6.272,4.988
							C488.027,108.335,490.489,107.846,486.443,105.767z"/>
					</g>
				</g>
			</g>
			<path fill="#034F5F" d="M319.452,30.692c-2.094-2.264-5.035-3.707-8.319-3.793c-3.282-0.086-6.288,1.213-8.5,3.365
				c-2.202,2.161-3.608,5.167-3.699,8.541c-0.082,3.373,1.172,6.451,3.271,8.713c2.09,2.262,5.024,3.705,8.317,3.791
				c3.281,0.082,6.286-1.202,8.488-3.363c2.21-2.16,3.623-5.167,3.703-8.54C322.79,36.038,321.546,32.95,319.452,30.692z"/>
		</g>
		<path fill-rule="evenodd" clip-rule="evenodd" fill="#034F5F" d="M615.763,116.069L615.763,116.069
			c-38.817-1.997-234.846-25.18-307.446-25.18l0,0l0,0l0,0l0,0l0,0C238.526,91.821,38.755,116.182,0,116.069l0,0H615.763
			L615.763,116.069z"/>
	</g>
	<g>
	</g>
	<g>
	</g>
	<g>
	</g>
	<g>
	</g>
	<g>
	</g>
	<g>
	</g>
</g>
</svg>
